<svg width="1000" height="360" viewBox="0 0 1000 360" fill="none" xmlns="http://www.w3.org/2000/svg">
<rect width="1000" height="360" rx="10" fill="#FEF8F2"/>
<rect width="1000" height="360" rx="10" fill="#F3F5F9"/>
<rect x="102" y="47" width="2" height="240" fill="#5C38FA"/>
<rect x="102" y="285" width="848" height="2" fill="#5C38FA"/>
<circle cx="138" cy="213" r="9" fill="#5C38FA"/>
<circle cx="138" cy="269" r="9" fill="#929292"/>
<circle cx="271" cy="269" r="9" fill="#929292"/>
<circle cx="401" cy="269" r="9" fill="#929292"/>
<circle cx="534" cy="267" r="9" fill="#929292"/>
<circle cx="271" cy="207" r="9" fill="#5C38FA"/>
<circle cx="401" cy="200" r="9" fill="#5C38FA"/>
<circle cx="534" cy="189" r="9" fill="#5C38FA"/>
<path d="M139 212C427.5 201 657 204 908.5 110" stroke="#5C38FA" stroke-width="4"/>
<circle cx="906" cy="110" r="9" fill="#5C38FA"/>
<path opacity="0.7" d="M258.852 304.438L259.547 298.625H266.195V300.672H261.688L261.43 302.93C261.617 302.82 261.862 302.724 262.164 302.641C262.471 302.557 262.771 302.516 263.062 302.516C264.193 302.516 265.06 302.852 265.664 303.523C266.273 304.19 266.578 305.128 266.578 306.336C266.578 307.065 266.414 307.727 266.086 308.32C265.763 308.909 265.307 309.362 264.719 309.68C264.13 309.997 263.435 310.156 262.633 310.156C261.919 310.156 261.25 310.01 260.625 309.719C260 309.422 259.51 309.018 259.156 308.508C258.802 307.992 258.628 307.411 258.633 306.766H261.273C261.299 307.182 261.432 307.513 261.672 307.758C261.911 308.003 262.227 308.125 262.617 308.125C263.503 308.125 263.945 307.469 263.945 306.156C263.945 304.943 263.404 304.336 262.32 304.336C261.706 304.336 261.247 304.534 260.945 304.93L258.852 304.438ZM272.386 306.16V303.728H275.154V306.16H272.386ZM282.594 306.16H277.122V303.728H281.346V301.952H277.122V300.048H281.714V298.208H272.674C272.882 297.776 273.058 297.344 273.202 296.896L271.266 296.4C270.578 298.464 269.346 300.512 267.906 301.728C268.37 302 269.186 302.64 269.554 302.96C270.306 302.208 271.074 301.184 271.73 300.048H275.154V301.952H270.482V306.16H267.954V307.984H275.154V311.408H277.122V307.984H282.594V306.16Z" fill="#5C38FA"/>
<path opacity="0.7" d="M134.594 305.352C134.594 306.888 134.247 308.073 133.555 308.906C132.867 309.74 131.896 310.156 130.641 310.156C129.375 310.156 128.396 309.737 127.703 308.898C127.01 308.06 126.664 306.878 126.664 305.352V303.273C126.664 301.737 127.008 300.552 127.695 299.719C128.388 298.885 129.365 298.469 130.625 298.469C131.885 298.469 132.862 298.888 133.555 299.727C134.247 300.565 134.594 301.75 134.594 303.281V305.352ZM131.961 302.938C131.961 302.12 131.854 301.51 131.641 301.109C131.427 300.703 131.089 300.5 130.625 300.5C130.172 300.5 129.841 300.688 129.633 301.062C129.43 301.438 129.32 302.005 129.305 302.766V305.672C129.305 306.521 129.411 307.143 129.625 307.539C129.839 307.93 130.177 308.125 130.641 308.125C131.089 308.125 131.419 307.935 131.633 307.555C131.846 307.169 131.956 306.568 131.961 305.75V302.938ZM140.386 306.16V303.728H143.154V306.16H140.386ZM150.594 306.16H145.122V303.728H149.346V301.952H145.122V300.048H149.714V298.208H140.674C140.882 297.776 141.058 297.344 141.202 296.896L139.266 296.4C138.578 298.464 137.346 300.512 135.906 301.728C136.37 302 137.186 302.64 137.554 302.96C138.306 302.208 139.074 301.184 139.73 300.048H143.154V301.952H138.482V306.16H135.954V307.984H143.154V311.408H145.122V307.984H150.594V306.16Z" fill="#5C38FA"/>
<path opacity="0.7" d="M521.531 310H518.891V301.594L516.297 302.352V300.352L521.289 298.625H521.531V310ZM525.117 304.438L525.812 298.625H532.461V300.672H527.953L527.695 302.93C527.883 302.82 528.128 302.724 528.43 302.641C528.737 302.557 529.036 302.516 529.328 302.516C530.458 302.516 531.326 302.852 531.93 303.523C532.539 304.19 532.844 305.128 532.844 306.336C532.844 307.065 532.68 307.727 532.352 308.32C532.029 308.909 531.573 309.362 530.984 309.68C530.396 309.997 529.701 310.156 528.898 310.156C528.185 310.156 527.516 310.01 526.891 309.719C526.266 309.422 525.776 309.018 525.422 308.508C525.068 307.992 524.893 307.411 524.898 306.766H527.539C527.565 307.182 527.698 307.513 527.938 307.758C528.177 308.003 528.492 308.125 528.883 308.125C529.768 308.125 530.211 307.469 530.211 306.156C530.211 304.943 529.669 304.336 528.586 304.336C527.971 304.336 527.513 304.534 527.211 304.93L525.117 304.438ZM538.651 306.16V303.728H541.419V306.16H538.651ZM548.859 306.16H543.387V303.728H547.611V301.952H543.387V300.048H547.979V298.208H538.939C539.147 297.776 539.323 297.344 539.467 296.896L537.531 296.4C536.843 298.464 535.611 300.512 534.171 301.728C534.635 302 535.451 302.64 535.819 302.96C536.571 302.208 537.339 301.184 537.995 300.048H541.419V301.952H536.747V306.16H534.219V307.984H541.419V311.408H543.387V307.984H548.859V306.16Z" fill="#5C38FA"/>
<path opacity="0.7" d="M387.531 310H384.891V301.594L382.297 302.352V300.352L387.289 298.625H387.531V310ZM398.859 305.352C398.859 306.888 398.513 308.073 397.82 308.906C397.133 309.74 396.161 310.156 394.906 310.156C393.641 310.156 392.661 309.737 391.969 308.898C391.276 308.06 390.93 306.878 390.93 305.352V303.273C390.93 301.737 391.273 300.552 391.961 299.719C392.654 298.885 393.63 298.469 394.891 298.469C396.151 298.469 397.128 298.888 397.82 299.727C398.513 300.565 398.859 301.75 398.859 303.281V305.352ZM396.227 302.938C396.227 302.12 396.12 301.51 395.906 301.109C395.693 300.703 395.354 300.5 394.891 300.5C394.438 300.5 394.107 300.688 393.898 301.062C393.695 301.438 393.586 302.005 393.57 302.766V305.672C393.57 306.521 393.677 307.143 393.891 307.539C394.104 307.93 394.443 308.125 394.906 308.125C395.354 308.125 395.685 307.935 395.898 307.555C396.112 307.169 396.221 306.568 396.227 305.75V302.938ZM404.651 306.16V303.728H407.419V306.16H404.651ZM414.859 306.16H409.387V303.728H413.611V301.952H409.387V300.048H413.979V298.208H404.939C405.147 297.776 405.323 297.344 405.467 296.896L403.531 296.4C402.843 298.464 401.611 300.512 400.171 301.728C400.635 302 401.451 302.64 401.819 302.96C402.571 302.208 403.339 301.184 403.995 300.048H407.419V301.952H402.747V306.16H400.219V307.984H407.419V311.408H409.387V307.984H414.859V306.16Z" fill="#5C38FA"/>
<path opacity="0.7" d="M74.5938 278.352C74.5938 279.888 74.2474 281.073 73.5547 281.906C72.8672 282.74 71.8958 283.156 70.6406 283.156C69.375 283.156 68.3958 282.737 67.7031 281.898C67.0104 281.06 66.6641 279.878 66.6641 278.352V276.273C66.6641 274.737 67.0078 273.552 67.6953 272.719C68.388 271.885 69.3646 271.469 70.625 271.469C71.8854 271.469 72.862 271.888 73.5547 272.727C74.2474 273.565 74.5938 274.75 74.5938 276.281V278.352ZM71.9609 275.938C71.9609 275.12 71.8542 274.51 71.6406 274.109C71.4271 273.703 71.0885 273.5 70.625 273.5C70.1719 273.5 69.8411 273.688 69.6328 274.062C69.4297 274.438 69.3203 275.005 69.3047 275.766V278.672C69.3047 279.521 69.4115 280.143 69.625 280.539C69.8385 280.93 70.1771 281.125 70.6406 281.125C71.0885 281.125 71.4193 280.935 71.6328 280.555C71.8464 280.169 71.9557 279.568 71.9609 278.75V275.938ZM84.1616 276.376V272.344H88.1616V276.376H84.1616ZM78.4976 272.344H82.2736V276.376H78.4976V272.344ZM90.0816 270.456H76.5776V284.376H78.4976V278.264H88.1616V282.136C88.1616 282.408 88.0496 282.504 87.7456 282.52C87.4256 282.52 86.3856 282.536 85.4736 282.472C85.7456 282.968 86.0656 283.848 86.1616 284.376C87.5856 284.376 88.5456 284.344 89.1856 284.024C89.8576 283.72 90.0816 283.192 90.0816 282.152V270.456Z" fill="#5C38FA"/>
<path opacity="0.7" d="M36.5312 60H33.8906V51.5938L31.2969 52.3516V50.3516L36.2891 48.625H36.5312V60ZM46.3203 48.4609V50.5312H46.2031C45.2188 50.5312 44.4089 50.7682 43.7734 51.2422C43.1432 51.7109 42.7552 52.3646 42.6094 53.2031C43.2031 52.6198 43.9531 52.3281 44.8594 52.3281C45.8438 52.3281 46.6276 52.6875 47.2109 53.4062C47.7943 54.125 48.0859 55.0677 48.0859 56.2344C48.0859 56.9583 47.9141 57.6224 47.5703 58.2266C47.2318 58.8307 46.7552 59.3047 46.1406 59.6484C45.5312 59.987 44.8542 60.1562 44.1094 60.1562C43.3021 60.1562 42.5807 59.974 41.9453 59.6094C41.3099 59.2396 40.8151 58.7135 40.4609 58.0312C40.1068 57.349 39.9245 56.5625 39.9141 55.6719V54.6172C39.9141 53.4453 40.1641 52.3932 40.6641 51.4609C41.1693 50.5234 41.888 49.7891 42.8203 49.2578C43.7526 48.7266 44.7865 48.4609 45.9219 48.4609H46.3203ZM43.9453 54.3438C43.5964 54.3438 43.3047 54.4245 43.0703 54.5859C42.8359 54.7474 42.6615 54.9453 42.5469 55.1797V55.9688C42.5469 57.4062 43.0443 58.125 44.0391 58.125C44.4401 58.125 44.7734 57.9453 45.0391 57.5859C45.3099 57.2266 45.4453 56.776 45.4453 56.2344C45.4453 55.6771 45.3073 55.224 45.0312 54.875C44.7604 54.5208 44.3984 54.3438 43.9453 54.3438ZM57.125 55.3516C57.125 56.888 56.7786 58.0729 56.0859 58.9062C55.3984 59.7396 54.4271 60.1562 53.1719 60.1562C51.9062 60.1562 50.9271 59.737 50.2344 58.8984C49.5417 58.0599 49.1953 56.8776 49.1953 55.3516V53.2734C49.1953 51.737 49.5391 50.5521 50.2266 49.7188C50.9193 48.8854 51.8958 48.4688 53.1562 48.4688C54.4167 48.4688 55.3932 48.888 56.0859 49.7266C56.7786 50.5651 57.125 51.75 57.125 53.2812V55.3516ZM54.4922 52.9375C54.4922 52.1198 54.3854 51.5104 54.1719 51.1094C53.9583 50.7031 53.6198 50.5 53.1562 50.5C52.7031 50.5 52.3724 50.6875 52.1641 51.0625C51.9609 51.4375 51.8516 52.0052 51.8359 52.7656V55.6719C51.8359 56.5208 51.9427 57.1432 52.1562 57.5391C52.3698 57.9297 52.7083 58.125 53.1719 58.125C53.6198 58.125 53.9505 57.9349 54.1641 57.5547C54.3776 57.1693 54.487 56.5677 54.4922 55.75V52.9375ZM72.8369 49.408V47.536H58.7729V49.408H62.5009C62.3889 53.264 62.2609 57.52 58.1489 59.824C58.6449 60.192 59.2369 60.848 59.5249 61.36C62.5009 59.568 63.6529 56.8 64.1489 53.84H69.4769C69.3009 57.264 69.0449 58.832 68.6289 59.232C68.4209 59.408 68.2129 59.44 67.8769 59.44C67.3969 59.44 66.3089 59.44 65.2049 59.344C65.5569 59.872 65.8289 60.672 65.8769 61.216C66.9329 61.264 68.0369 61.28 68.6609 61.2C69.3809 61.12 69.8929 60.96 70.3729 60.4C70.9969 59.696 71.2689 57.76 71.5089 52.848C71.5409 52.608 71.5569 52 71.5569 52H64.3729C64.4529 51.136 64.4849 50.256 64.5169 49.408H72.8369ZM82.6929 53.376V49.344H86.6929V53.376H82.6929ZM77.0289 49.344H80.8049V53.376H77.0289V49.344ZM88.6129 47.456H75.1089V61.376H77.0289V55.264H86.6929V59.136C86.6929 59.408 86.5809 59.504 86.2769 59.52C85.9569 59.52 84.9169 59.536 84.0049 59.472C84.2769 59.968 84.5969 60.848 84.6929 61.376C86.1169 61.376 87.0769 61.344 87.7169 61.024C88.3889 60.72 88.6129 60.192 88.6129 59.152V47.456Z" fill="#5C38FA"/>
<path d="M146.057 192.642C146.057 194.083 145.732 195.193 145.083 195.975C144.438 196.756 143.527 197.146 142.351 197.146C141.164 197.146 140.246 196.753 139.597 195.967C138.947 195.181 138.623 194.073 138.623 192.642V190.694C138.623 189.253 138.945 188.143 139.589 187.361C140.239 186.58 141.154 186.189 142.336 186.189C143.518 186.189 144.433 186.583 145.083 187.369C145.732 188.155 146.057 189.266 146.057 190.701V192.642ZM143.588 190.379C143.588 189.612 143.488 189.041 143.288 188.665C143.088 188.284 142.771 188.094 142.336 188.094C141.911 188.094 141.601 188.27 141.406 188.621C141.215 188.973 141.113 189.505 141.098 190.218V192.942C141.098 193.738 141.198 194.322 141.398 194.693C141.599 195.059 141.916 195.242 142.351 195.242C142.771 195.242 143.081 195.064 143.281 194.708C143.481 194.346 143.583 193.782 143.588 193.016V190.379Z" fill="#5C38FA"/>
<path d="M132.976 191.967L133.98 189.18H135.897L134.254 193.015H135.355V194.035H133.894V194.572H135.355V195.587H133.894V197H132.014V195.587H130.387V194.572H132.014V194.035H130.387V193.015H131.697L130.048 189.18H131.971L132.976 191.967Z" fill="#5C38FA"/>
<path d="M241.976 184.967L242.98 182.18H244.897L243.254 186.015H244.355V187.035H242.894V187.572H244.355V188.587H242.894V190H241.014V188.587H239.387V187.572H241.014V187.035H239.387V186.015H240.697L239.048 182.18H240.971L241.976 184.967Z" fill="#5C38FA"/>
<path d="M252.123 190H249.647V182.119L247.216 182.83V180.955L251.896 179.336H252.123V190ZM260.81 190H258.334V182.119L255.902 182.83V180.955L260.583 179.336H260.81V190ZM268.888 185.876C268.356 186.355 267.76 186.594 267.101 186.594C266.134 186.594 265.368 186.267 264.801 185.613C264.235 184.958 263.952 184.084 263.952 182.991C263.952 182.307 264.11 181.672 264.428 181.086C264.745 180.5 265.189 180.037 265.761 179.695C266.337 179.353 266.972 179.182 267.665 179.182C268.368 179.182 269.003 179.36 269.569 179.717C270.141 180.068 270.585 180.569 270.902 181.218C271.22 181.863 271.383 182.607 271.393 183.452V184.397C271.393 185.574 271.161 186.594 270.697 187.458C270.238 188.323 269.582 188.987 268.727 189.451C267.873 189.915 266.876 190.146 265.739 190.146H265.585V188.169L266.054 188.162C267.753 188.079 268.698 187.317 268.888 185.876ZM267.768 184.814C268.305 184.814 268.69 184.583 268.925 184.119V183.093C268.925 182.41 268.81 181.904 268.581 181.577C268.351 181.25 268.041 181.086 267.65 181.086C267.304 181.086 267.013 181.272 266.779 181.643C266.544 182.014 266.427 182.463 266.427 182.991C266.427 183.547 266.547 183.992 266.786 184.324C267.025 184.651 267.353 184.814 267.768 184.814ZM273.62 192.871L272.375 192.285L272.624 191.787C272.965 191.152 273.144 190.547 273.158 189.971V188.14H275.136L275.128 189.729C275.124 190.291 274.979 190.862 274.696 191.443C274.413 192.024 274.054 192.5 273.62 192.871ZM276.901 184.785L277.553 179.336H283.786V181.255H279.56L279.318 183.372C279.494 183.269 279.723 183.179 280.006 183.101C280.294 183.022 280.575 182.983 280.849 182.983C281.908 182.983 282.721 183.298 283.288 183.928C283.859 184.553 284.145 185.432 284.145 186.565C284.145 187.249 283.991 187.869 283.683 188.425C283.38 188.977 282.953 189.402 282.401 189.7C281.85 189.998 281.198 190.146 280.446 190.146C279.777 190.146 279.149 190.01 278.563 189.736C277.978 189.458 277.519 189.08 277.187 188.601C276.854 188.118 276.691 187.573 276.696 186.968H279.171C279.196 187.358 279.32 187.668 279.545 187.898C279.77 188.127 280.065 188.242 280.431 188.242C281.261 188.242 281.676 187.627 281.676 186.396C281.676 185.259 281.168 184.69 280.153 184.69C279.577 184.69 279.147 184.875 278.864 185.247L276.901 184.785ZM290.912 190H288.437V182.119L286.005 182.83V180.955L290.685 179.336H290.912V190ZM294.274 184.785L294.926 179.336H301.159V181.255H296.933L296.691 183.372C296.867 183.269 297.096 183.179 297.379 183.101C297.667 183.022 297.948 182.983 298.222 182.983C299.281 182.983 300.094 183.298 300.661 183.928C301.232 184.553 301.518 185.432 301.518 186.565C301.518 187.249 301.364 187.869 301.056 188.425C300.753 188.977 300.326 189.402 299.774 189.7C299.223 189.998 298.571 190.146 297.819 190.146C297.15 190.146 296.522 190.01 295.937 189.736C295.351 189.458 294.892 189.08 294.56 188.601C294.228 188.118 294.064 187.573 294.069 186.968H296.544C296.569 187.358 296.693 187.668 296.918 187.898C297.143 188.127 297.438 188.242 297.804 188.242C298.634 188.242 299.049 187.627 299.049 186.396C299.049 185.259 298.542 184.69 297.526 184.69C296.95 184.69 296.52 184.875 296.237 185.247L294.274 184.785Z" fill="#5C38FA"/>
<path d="M368.976 177.967L369.98 175.18H371.897L370.254 179.015H371.355V180.035H369.894V180.572H371.355V181.587H369.894V183H368.014V181.587H366.387V180.572H368.014V180.035H366.387V179.015H367.697L366.048 175.18H367.971L368.976 177.967Z" fill="#5C38FA"/>
<path d="M376.908 176.635H378.072C378.995 176.635 379.457 176.184 379.457 175.28C379.457 174.929 379.347 174.643 379.127 174.423C378.907 174.199 378.597 174.086 378.197 174.086C377.87 174.086 377.584 174.182 377.34 174.372C377.101 174.562 376.981 174.799 376.981 175.083H374.513C374.513 174.521 374.669 174.021 374.981 173.581C375.294 173.142 375.726 172.8 376.278 172.556C376.834 172.307 377.445 172.182 378.109 172.182C379.295 172.182 380.228 172.453 380.907 172.995C381.585 173.537 381.925 174.282 381.925 175.229C381.925 175.688 381.783 176.123 381.5 176.533C381.222 176.938 380.814 177.268 380.277 177.521C380.843 177.727 381.288 178.039 381.61 178.459C381.932 178.874 382.093 179.389 382.093 180.004C382.093 180.957 381.727 181.718 380.995 182.29C380.262 182.861 379.3 183.146 378.109 183.146C377.411 183.146 376.761 183.015 376.161 182.751C375.565 182.482 375.113 182.114 374.806 181.645C374.498 181.171 374.344 180.634 374.344 180.034H376.827C376.827 180.361 376.959 180.644 377.223 180.883C377.486 181.123 377.811 181.242 378.197 181.242C378.631 181.242 378.978 181.123 379.237 180.883C379.496 180.639 379.625 180.329 379.625 179.953C379.625 179.416 379.491 179.035 379.222 178.811C378.954 178.586 378.583 178.474 378.109 178.474H376.908V176.635ZM389.3 172.182V174.123H389.19C388.268 174.123 387.508 174.345 386.913 174.79C386.322 175.229 385.958 175.842 385.821 176.628C386.378 176.081 387.081 175.808 387.931 175.808C388.854 175.808 389.588 176.145 390.135 176.818C390.682 177.492 390.956 178.376 390.956 179.47C390.956 180.148 390.794 180.771 390.472 181.337C390.155 181.904 389.708 182.348 389.132 182.67C388.561 182.988 387.926 183.146 387.228 183.146C386.471 183.146 385.794 182.976 385.199 182.634C384.603 182.287 384.139 181.794 383.807 181.154C383.475 180.515 383.304 179.777 383.294 178.942V177.954C383.294 176.855 383.529 175.869 383.998 174.995C384.471 174.116 385.145 173.427 386.019 172.929C386.893 172.431 387.862 172.182 388.927 172.182H389.3ZM387.074 177.697C386.747 177.697 386.473 177.773 386.253 177.924C386.034 178.076 385.87 178.261 385.763 178.481V179.221C385.763 180.568 386.229 181.242 387.162 181.242C387.538 181.242 387.85 181.074 388.099 180.737C388.353 180.4 388.48 179.978 388.48 179.47C388.48 178.947 388.351 178.522 388.092 178.195C387.838 177.863 387.499 177.697 387.074 177.697ZM399.43 178.642C399.43 180.083 399.105 181.193 398.456 181.975C397.811 182.756 396.9 183.146 395.724 183.146C394.537 183.146 393.619 182.753 392.97 181.967C392.32 181.181 391.996 180.073 391.996 178.642V176.694C391.996 175.253 392.318 174.143 392.962 173.361C393.612 172.58 394.527 172.189 395.709 172.189C396.891 172.189 397.806 172.583 398.456 173.369C399.105 174.155 399.43 175.266 399.43 176.701V178.642ZM396.961 176.379C396.961 175.612 396.861 175.041 396.661 174.665C396.461 174.284 396.144 174.094 395.709 174.094C395.284 174.094 394.974 174.27 394.779 174.621C394.588 174.973 394.486 175.505 394.471 176.218V178.942C394.471 179.738 394.571 180.322 394.771 180.693C394.972 181.059 395.289 181.242 395.724 181.242C396.144 181.242 396.454 181.064 396.654 180.708C396.854 180.346 396.957 179.782 396.961 179.016V176.379ZM401.62 185.871L400.375 185.285L400.624 184.787C400.965 184.152 401.144 183.547 401.158 182.971V181.14H403.136L403.128 182.729C403.124 183.291 402.979 183.862 402.696 184.443C402.413 185.024 402.054 185.5 401.62 185.871ZM410.716 172.182V174.123H410.606C409.684 174.123 408.924 174.345 408.329 174.79C407.738 175.229 407.374 175.842 407.237 176.628C407.794 176.081 408.497 175.808 409.347 175.808C410.27 175.808 411.004 176.145 411.551 176.818C412.098 177.492 412.372 178.376 412.372 179.47C412.372 180.148 412.21 180.771 411.888 181.337C411.571 181.904 411.124 182.348 410.548 182.67C409.977 182.988 409.342 183.146 408.644 183.146C407.887 183.146 407.21 182.976 406.615 182.634C406.019 182.287 405.555 181.794 405.223 181.154C404.891 180.515 404.72 179.777 404.71 178.942V177.954C404.71 176.855 404.945 175.869 405.414 174.995C405.887 174.116 406.561 173.427 407.435 172.929C408.309 172.431 409.278 172.182 410.343 172.182H410.716ZM408.49 177.697C408.163 177.697 407.889 177.773 407.669 177.924C407.45 178.076 407.286 178.261 407.179 178.481V179.221C407.179 180.568 407.645 181.242 408.578 181.242C408.954 181.242 409.266 181.074 409.515 180.737C409.769 180.4 409.896 179.978 409.896 179.47C409.896 178.947 409.767 178.522 409.508 178.195C409.254 177.863 408.915 177.697 408.49 177.697ZM420.853 173.654L416.869 183H414.261L418.253 174.24H413.17V172.336H420.853V173.654ZM427.599 183H425.123V175.119L422.691 175.83V173.955L427.372 172.336H427.599V183Z" fill="#5C38FA"/>
<path d="M501.976 165.967L502.98 163.18H504.897L503.254 167.015H504.355V168.035H502.894V168.572H504.355V169.587H502.894V171H501.014V169.587H499.387V168.572H501.014V168.035H499.387V167.015H500.697L499.048 163.18H500.971L501.976 165.967Z" fill="#5C38FA"/>
<path d="M515.064 161.654L511.08 171H508.472L512.464 162.24H507.381V160.336H515.064V161.654ZM518.594 164.635H519.759C520.682 164.635 521.143 164.184 521.143 163.28C521.143 162.929 521.033 162.643 520.813 162.423C520.594 162.199 520.284 162.086 519.883 162.086C519.556 162.086 519.271 162.182 519.026 162.372C518.787 162.562 518.667 162.799 518.667 163.083H516.199C516.199 162.521 516.355 162.021 516.668 161.581C516.98 161.142 517.413 160.8 517.964 160.556C518.521 160.307 519.131 160.182 519.795 160.182C520.982 160.182 521.915 160.453 522.593 160.995C523.272 161.537 523.611 162.282 523.611 163.229C523.611 163.688 523.47 164.123 523.187 164.533C522.908 164.938 522.5 165.268 521.963 165.521C522.53 165.727 522.974 166.039 523.296 166.459C523.619 166.874 523.78 167.389 523.78 168.004C523.78 168.957 523.414 169.718 522.681 170.29C521.949 170.861 520.987 171.146 519.795 171.146C519.097 171.146 518.448 171.015 517.847 170.751C517.251 170.482 516.8 170.114 516.492 169.645C516.185 169.171 516.031 168.634 516.031 168.034H518.514C518.514 168.361 518.646 168.644 518.909 168.883C519.173 169.123 519.498 169.242 519.883 169.242C520.318 169.242 520.665 169.123 520.923 168.883C521.182 168.639 521.312 168.329 521.312 167.953C521.312 167.416 521.177 167.035 520.909 166.811C520.64 166.586 520.269 166.474 519.795 166.474H518.594V164.635ZM532.466 171H525.025V169.389L528.453 165.785C529.297 164.823 529.72 164.059 529.72 163.493C529.72 163.034 529.62 162.685 529.419 162.445C529.219 162.206 528.929 162.086 528.548 162.086C528.172 162.086 527.867 162.248 527.632 162.57C527.398 162.887 527.281 163.285 527.281 163.764H524.805C524.805 163.109 524.969 162.506 525.296 161.955C525.623 161.398 526.077 160.963 526.658 160.651C527.239 160.338 527.889 160.182 528.606 160.182C529.759 160.182 530.645 160.448 531.265 160.98C531.89 161.513 532.203 162.277 532.203 163.273C532.203 163.693 532.125 164.103 531.968 164.503C531.812 164.899 531.568 165.316 531.236 165.756C530.909 166.19 530.379 166.774 529.646 167.506L528.27 169.096H532.466V171ZM534.62 173.871L533.375 173.285L533.624 172.787C533.965 172.152 534.144 171.547 534.158 170.971V169.14H536.136L536.128 170.729C536.124 171.291 535.979 171.862 535.696 172.443C535.413 173.024 535.054 173.5 534.62 173.871ZM543.716 160.182V162.123H543.606C542.684 162.123 541.924 162.345 541.329 162.79C540.738 163.229 540.374 163.842 540.237 164.628C540.794 164.081 541.497 163.808 542.347 163.808C543.27 163.808 544.004 164.145 544.551 164.818C545.098 165.492 545.372 166.376 545.372 167.47C545.372 168.148 545.21 168.771 544.888 169.337C544.571 169.904 544.124 170.348 543.548 170.67C542.977 170.988 542.342 171.146 541.644 171.146C540.887 171.146 540.21 170.976 539.615 170.634C539.019 170.287 538.555 169.794 538.223 169.154C537.891 168.515 537.72 167.777 537.71 166.942V165.954C537.71 164.855 537.945 163.869 538.414 162.995C538.887 162.116 539.561 161.427 540.435 160.929C541.309 160.431 542.278 160.182 543.343 160.182H543.716ZM541.49 165.697C541.163 165.697 540.889 165.773 540.669 165.924C540.45 166.076 540.286 166.261 540.179 166.481V167.221C540.179 168.568 540.645 169.242 541.578 169.242C541.954 169.242 542.266 169.074 542.515 168.737C542.769 168.4 542.896 167.978 542.896 167.47C542.896 166.947 542.767 166.522 542.508 166.195C542.254 165.863 541.915 165.697 541.49 165.697ZM553.846 166.642C553.846 168.083 553.521 169.193 552.872 169.975C552.227 170.756 551.316 171.146 550.14 171.146C548.953 171.146 548.035 170.753 547.386 169.967C546.736 169.181 546.412 168.073 546.412 166.642V164.694C546.412 163.253 546.734 162.143 547.378 161.361C548.028 160.58 548.943 160.189 550.125 160.189C551.307 160.189 552.222 160.583 552.872 161.369C553.521 162.155 553.846 163.266 553.846 164.701V166.642ZM551.377 164.379C551.377 163.612 551.277 163.041 551.077 162.665C550.877 162.284 550.56 162.094 550.125 162.094C549.7 162.094 549.39 162.27 549.195 162.621C549.004 162.973 548.902 163.505 548.887 164.218V166.942C548.887 167.738 548.987 168.322 549.188 168.693C549.388 169.059 549.705 169.242 550.14 169.242C550.56 169.242 550.87 169.064 551.07 168.708C551.27 168.346 551.373 167.782 551.377 167.016V164.379ZM562.532 166.642C562.532 168.083 562.208 169.193 561.558 169.975C560.914 170.756 560.003 171.146 558.826 171.146C557.64 171.146 556.722 170.753 556.072 169.967C555.423 169.181 555.098 168.073 555.098 166.642V164.694C555.098 163.253 555.42 162.143 556.065 161.361C556.714 160.58 557.63 160.189 558.812 160.189C559.993 160.189 560.909 160.583 561.558 161.369C562.208 162.155 562.532 163.266 562.532 164.701V166.642ZM560.064 164.379C560.064 163.612 559.964 163.041 559.764 162.665C559.563 162.284 559.246 162.094 558.812 162.094C558.387 162.094 558.077 162.27 557.881 162.621C557.691 162.973 557.588 163.505 557.574 164.218V166.942C557.574 167.738 557.674 168.322 557.874 168.693C558.074 169.059 558.392 169.242 558.826 169.242C559.246 169.242 559.556 169.064 559.756 168.708C559.957 168.346 560.059 167.782 560.064 167.016V164.379Z" fill="#5C38FA"/>
<path d="M132.976 241.967L133.98 239.18H135.897L134.254 243.015H135.355V244.035H133.894V244.572H135.355V245.587H133.894V247H132.014V245.587H130.387V244.572H132.014V244.035H130.387V243.015H131.697L130.048 239.18H131.971L132.976 241.967Z" fill="#636363"/>
<path d="M145.057 243.642C145.057 245.083 144.732 246.193 144.083 246.975C143.438 247.756 142.527 248.146 141.351 248.146C140.164 248.146 139.246 247.753 138.597 246.967C137.947 246.181 137.623 245.073 137.623 243.642V241.694C137.623 240.253 137.945 239.143 138.589 238.361C139.239 237.58 140.154 237.189 141.336 237.189C142.518 237.189 143.433 237.583 144.083 238.369C144.732 239.155 145.057 240.266 145.057 241.701V243.642ZM142.588 241.379C142.588 240.612 142.488 240.041 142.288 239.665C142.088 239.284 141.771 239.094 141.336 239.094C140.911 239.094 140.601 239.27 140.406 239.621C140.215 239.973 140.113 240.505 140.098 241.218V243.942C140.098 244.738 140.198 245.322 140.398 245.693C140.599 246.059 140.916 246.242 141.351 246.242C141.771 246.242 142.081 246.064 142.281 245.708C142.481 245.346 142.583 244.782 142.588 244.016V241.379Z" fill="#636363"/>
<path d="M261.976 241.967L262.98 239.18H264.897L263.254 243.015H264.355V244.035H262.894V244.572H264.355V245.587H262.894V247H261.014V245.587H259.387V244.572H261.014V244.035H259.387V243.015H260.697L259.048 239.18H260.971L261.976 241.967Z" fill="#636363"/>
<path d="M266.798 242.785L267.45 237.336H273.683V239.255H269.457L269.215 241.372C269.391 241.269 269.621 241.179 269.904 241.101C270.192 241.022 270.473 240.983 270.746 240.983C271.806 240.983 272.619 241.298 273.185 241.928C273.756 242.553 274.042 243.432 274.042 244.565C274.042 245.249 273.888 245.869 273.581 246.425C273.278 246.977 272.851 247.402 272.299 247.7C271.747 247.998 271.095 248.146 270.343 248.146C269.674 248.146 269.047 248.01 268.461 247.736C267.875 247.458 267.416 247.08 267.084 246.601C266.752 246.118 266.588 245.573 266.593 244.968H269.069C269.093 245.358 269.218 245.668 269.442 245.898C269.667 246.127 269.962 246.242 270.329 246.242C271.159 246.242 271.574 245.627 271.574 244.396C271.574 243.259 271.066 242.69 270.05 242.69C269.474 242.69 269.044 242.875 268.761 243.247L266.798 242.785ZM282.743 243.642C282.743 245.083 282.418 246.193 281.769 246.975C281.125 247.756 280.214 248.146 279.037 248.146C277.851 248.146 276.933 247.753 276.283 246.967C275.634 246.181 275.309 245.073 275.309 243.642V241.694C275.309 240.253 275.631 239.143 276.276 238.361C276.925 237.58 277.841 237.189 279.022 237.189C280.204 237.189 281.12 237.583 281.769 238.369C282.418 239.155 282.743 240.266 282.743 241.701V243.642ZM280.275 241.379C280.275 240.612 280.175 240.041 279.975 239.665C279.774 239.284 279.457 239.094 279.022 239.094C278.598 239.094 278.288 239.27 278.092 239.621C277.902 239.973 277.799 240.505 277.785 241.218V243.942C277.785 244.738 277.885 245.322 278.085 245.693C278.285 246.059 278.603 246.242 279.037 246.242C279.457 246.242 279.767 246.064 279.967 245.708C280.167 245.346 280.27 244.782 280.275 244.016V241.379Z" fill="#636363"/>
<rect x="651" y="63" width="205" height="76" rx="7" fill="#5C38FA"/>
<rect x="651" y="184" width="205" height="76" rx="7" fill="#636363"/>
<path d="M385.976 242.967L386.98 240.18H388.897L387.254 244.015H388.355V245.035H386.894V245.572H388.355V246.587H386.894V248H385.014V246.587H383.387V245.572H385.014V245.035H383.387V244.015H384.697L383.048 240.18H384.971L385.976 242.967Z" fill="#636363"/>
<path d="M396.123 248H393.647V240.119L391.216 240.83V238.955L395.896 237.336H396.123V248ZM406.743 243.642C406.743 245.083 406.418 246.193 405.769 246.975C405.125 247.756 404.214 248.146 403.037 248.146C401.851 248.146 400.933 247.753 400.283 246.967C399.634 246.181 399.309 245.073 399.309 243.642V241.694C399.309 240.253 399.631 239.143 400.276 238.361C400.925 237.58 401.841 237.189 403.022 237.189C404.204 237.189 405.12 237.583 405.769 238.369C406.418 239.155 406.743 240.266 406.743 241.701V243.642ZM404.275 241.379C404.275 240.612 404.175 240.041 403.975 239.665C403.774 239.284 403.457 239.094 403.022 239.094C402.598 239.094 402.288 239.27 402.092 239.621C401.902 239.973 401.799 240.505 401.785 241.218V243.942C401.785 244.738 401.885 245.322 402.085 245.693C402.285 246.059 402.603 246.242 403.037 246.242C403.457 246.242 403.767 246.064 403.967 245.708C404.167 245.346 404.27 244.782 404.275 244.016V241.379ZM415.43 243.642C415.43 245.083 415.105 246.193 414.456 246.975C413.811 247.756 412.9 248.146 411.724 248.146C410.537 248.146 409.619 247.753 408.97 246.967C408.32 246.181 407.996 245.073 407.996 243.642V241.694C407.996 240.253 408.318 239.143 408.962 238.361C409.612 237.58 410.527 237.189 411.709 237.189C412.891 237.189 413.806 237.583 414.456 238.369C415.105 239.155 415.43 240.266 415.43 241.701V243.642ZM412.961 241.379C412.961 240.612 412.861 240.041 412.661 239.665C412.461 239.284 412.144 239.094 411.709 239.094C411.284 239.094 410.974 239.27 410.779 239.621C410.588 239.973 410.486 240.505 410.471 241.218V243.942C410.471 244.738 410.571 245.322 410.771 245.693C410.972 246.059 411.289 246.242 411.724 246.242C412.144 246.242 412.454 246.064 412.654 245.708C412.854 245.346 412.957 244.782 412.961 244.016V241.379Z" fill="#636363"/>
<path d="M518.976 242.967L519.98 240.18H521.897L520.254 244.015H521.355V245.035H519.894V245.572H521.355V246.587H519.894V248H518.014V246.587H516.387V245.572H518.014V245.035H516.387V244.015H517.697L516.048 240.18H517.971L518.976 242.967Z" fill="#636363"/>
<path d="M529.123 248H526.647V240.119L524.216 240.83V238.955L528.896 237.336H529.123V248ZM532.485 242.785L533.137 237.336H539.37V239.255H535.144L534.902 241.372C535.078 241.269 535.307 241.179 535.59 241.101C535.878 241.022 536.159 240.983 536.433 240.983C537.492 240.983 538.305 241.298 538.872 241.928C539.443 242.553 539.729 243.432 539.729 244.565C539.729 245.249 539.575 245.869 539.267 246.425C538.964 246.977 538.537 247.402 537.985 247.7C537.434 247.998 536.782 248.146 536.03 248.146C535.361 248.146 534.733 248.01 534.147 247.736C533.562 247.458 533.103 247.08 532.771 246.601C532.438 246.118 532.275 245.573 532.28 244.968H534.755C534.78 245.358 534.904 245.668 535.129 245.898C535.354 246.127 535.649 246.242 536.015 246.242C536.845 246.242 537.26 245.627 537.26 244.396C537.26 243.259 536.752 242.69 535.737 242.69C535.161 242.69 534.731 242.875 534.448 243.247L532.485 242.785ZM548.43 243.642C548.43 245.083 548.105 246.193 547.456 246.975C546.811 247.756 545.9 248.146 544.724 248.146C543.537 248.146 542.619 247.753 541.97 246.967C541.32 246.181 540.996 245.073 540.996 243.642V241.694C540.996 240.253 541.318 239.143 541.962 238.361C542.612 237.58 543.527 237.189 544.709 237.189C545.891 237.189 546.806 237.583 547.456 238.369C548.105 239.155 548.43 240.266 548.43 241.701V243.642ZM545.961 241.379C545.961 240.612 545.861 240.041 545.661 239.665C545.461 239.284 545.144 239.094 544.709 239.094C544.284 239.094 543.974 239.27 543.779 239.621C543.588 239.973 543.486 240.505 543.471 241.218V243.942C543.471 244.738 543.571 245.322 543.771 245.693C543.972 246.059 544.289 246.242 544.724 246.242C545.144 246.242 545.454 246.064 545.654 245.708C545.854 245.346 545.957 244.782 545.961 244.016V241.379Z" fill="#636363"/>
<circle cx="903" cy="267" r="9" fill="#929292"/>
<path opacity="0.7" d="M895.633 310H887.695V308.281L891.352 304.438C892.253 303.411 892.703 302.596 892.703 301.992C892.703 301.503 892.596 301.13 892.383 300.875C892.169 300.62 891.859 300.492 891.453 300.492C891.052 300.492 890.727 300.664 890.477 301.008C890.227 301.346 890.102 301.771 890.102 302.281H887.461C887.461 301.583 887.635 300.94 887.984 300.352C888.333 299.758 888.818 299.294 889.438 298.961C890.057 298.628 890.75 298.461 891.516 298.461C892.745 298.461 893.69 298.745 894.352 299.312C895.018 299.88 895.352 300.695 895.352 301.758C895.352 302.206 895.268 302.643 895.102 303.07C894.935 303.492 894.674 303.938 894.32 304.406C893.971 304.87 893.406 305.492 892.625 306.273L891.156 307.969H895.633V310ZM904.859 305.352C904.859 306.888 904.513 308.073 903.82 308.906C903.133 309.74 902.161 310.156 900.906 310.156C899.641 310.156 898.661 309.737 897.969 308.898C897.276 308.06 896.93 306.878 896.93 305.352V303.273C896.93 301.737 897.273 300.552 897.961 299.719C898.654 298.885 899.63 298.469 900.891 298.469C902.151 298.469 903.128 298.888 903.82 299.727C904.513 300.565 904.859 301.75 904.859 303.281V305.352ZM902.227 302.938C902.227 302.12 902.12 301.51 901.906 301.109C901.693 300.703 901.354 300.5 900.891 300.5C900.438 300.5 900.107 300.688 899.898 301.062C899.695 301.438 899.586 302.005 899.57 302.766V305.672C899.57 306.521 899.677 307.143 899.891 307.539C900.104 307.93 900.443 308.125 900.906 308.125C901.354 308.125 901.685 307.935 901.898 307.555C902.112 307.169 902.221 306.568 902.227 305.75V302.938ZM910.651 306.16V303.728H913.419V306.16H910.651ZM920.859 306.16H915.387V303.728H919.611V301.952H915.387V300.048H919.979V298.208H910.939C911.147 297.776 911.323 297.344 911.467 296.896L909.531 296.4C908.843 298.464 907.611 300.512 906.171 301.728C906.635 302 907.451 302.64 907.819 302.96C908.571 302.208 909.339 301.184 909.995 300.048H913.419V301.952H908.747V306.16H906.219V307.984H913.419V311.408H915.387V307.984H920.859V306.16Z" fill="#5C38FA"/>
<path d="M692.869 103.765L694.513 99.2031H697.65L694.961 105.479H696.763V107.148H694.372V108.027H696.763V109.688H694.372V112H691.296V109.688H688.633V108.027H691.296V107.148H688.633V105.479H690.777L688.079 99.2031H691.226L692.869 103.765Z" fill="white"/>
<path d="M713.332 111H708.381V95.2383L703.518 96.6592V92.9092L712.878 89.6719H713.332V111ZM721.579 116.742L719.089 115.57L719.587 114.574C720.271 113.305 720.627 112.094 720.656 110.941V107.279H724.611L724.597 110.458C724.587 111.581 724.299 112.724 723.733 113.886C723.166 115.048 722.448 116 721.579 116.742ZM742.732 111H727.849V107.777L734.704 100.57C736.394 98.6465 737.238 97.1182 737.238 95.9854C737.238 95.0674 737.038 94.3691 736.638 93.8906C736.237 93.4121 735.656 93.1729 734.895 93.1729C734.143 93.1729 733.532 93.4951 733.064 94.1396C732.595 94.7744 732.361 95.5703 732.361 96.5273H727.409C727.409 95.2188 727.736 94.0127 728.391 92.9092C729.045 91.7959 729.953 90.9268 731.115 90.3018C732.277 89.6768 733.576 89.3643 735.012 89.3643C737.317 89.3643 739.089 89.8965 740.329 90.9609C741.579 92.0254 742.204 93.5537 742.204 95.5459C742.204 96.3857 742.048 97.2061 741.736 98.0068C741.423 98.7979 740.935 99.6328 740.271 100.512C739.616 101.381 738.557 102.548 737.092 104.013L734.338 107.191H742.732V111ZM758.259 102.665H760.427V106.474H758.259V111H753.322V106.474H745.075L744.782 103.456L753.322 89.7158V89.6719H758.259V102.665ZM749.485 102.665H753.322V96.1025L753.015 96.6006L749.485 102.665ZM762.888 100.57L764.192 89.6719H776.657V93.5098H768.205L767.722 97.7432C768.073 97.5381 768.532 97.3574 769.099 97.2012C769.675 97.0449 770.236 96.9668 770.783 96.9668C772.902 96.9668 774.528 97.5967 775.661 98.8564C776.804 100.106 777.375 101.864 777.375 104.13C777.375 105.497 777.068 106.737 776.452 107.851C775.847 108.954 774.992 109.804 773.889 110.399C772.785 110.995 771.482 111.293 769.978 111.293C768.64 111.293 767.385 111.02 766.213 110.473C765.041 109.916 764.123 109.159 763.459 108.202C762.795 107.235 762.468 106.146 762.478 104.936H767.429C767.478 105.717 767.727 106.337 768.176 106.796C768.625 107.255 769.216 107.484 769.948 107.484C771.609 107.484 772.439 106.254 772.439 103.793C772.439 101.518 771.423 100.38 769.392 100.38C768.239 100.38 767.38 100.751 766.814 101.493L762.888 100.57ZM781.784 116.742L779.294 115.57L779.792 114.574C780.476 113.305 780.832 112.094 780.861 110.941V107.279H784.817L784.802 110.458C784.792 111.581 784.504 112.724 783.938 113.886C783.371 115.048 782.653 116 781.784 116.742ZM798.996 111H794.045V95.2383L789.182 96.6592V92.9092L798.542 89.6719H798.996V111ZM820.31 111H805.427V107.777L812.282 100.57C813.972 98.6465 814.817 97.1182 814.817 95.9854C814.817 95.0674 814.616 94.3691 814.216 93.8906C813.816 93.4121 813.235 93.1729 812.473 93.1729C811.721 93.1729 811.111 93.4951 810.642 94.1396C810.173 94.7744 809.939 95.5703 809.939 96.5273H804.987C804.987 95.2188 805.315 94.0127 805.969 92.9092C806.623 91.7959 807.531 90.9268 808.694 90.3018C809.856 89.6768 811.154 89.3643 812.59 89.3643C814.895 89.3643 816.667 89.8965 817.907 90.9609C819.157 92.0254 819.782 93.5537 819.782 95.5459C819.782 96.3857 819.626 97.2061 819.314 98.0068C819.001 98.7979 818.513 99.6328 817.849 100.512C817.194 101.381 816.135 102.548 814.67 104.013L811.916 107.191H820.31V111ZM837.624 92.3086L829.655 111H824.441L832.424 93.4805H822.258V89.6719H837.624V92.3086Z" fill="white"/>
<path d="M734.869 223.765L736.513 219.203H739.65L736.961 225.479H738.763V227.148H736.372V228.027H738.763V229.688H736.372V232H733.296V229.688H730.633V228.027H733.296V227.148H730.633V225.479H732.777L730.079 219.203H733.226L734.869 223.765Z" fill="white"/>
<path d="M759.187 233H744.304V229.777L751.159 222.57C752.849 220.646 753.693 219.118 753.693 217.985C753.693 217.067 753.493 216.369 753.093 215.891C752.692 215.412 752.111 215.173 751.35 215.173C750.598 215.173 749.987 215.495 749.519 216.14C749.05 216.774 748.815 217.57 748.815 218.527H743.864C743.864 217.219 744.191 216.013 744.846 214.909C745.5 213.796 746.408 212.927 747.57 212.302C748.732 211.677 750.031 211.364 751.467 211.364C753.771 211.364 755.544 211.896 756.784 212.961C758.034 214.025 758.659 215.554 758.659 217.546C758.659 218.386 758.503 219.206 758.19 220.007C757.878 220.798 757.39 221.633 756.726 222.512C756.071 223.381 755.012 224.548 753.547 226.013L750.793 229.191H759.187V233ZM776.486 224.284C776.486 227.165 775.837 229.387 774.538 230.949C773.249 232.512 771.428 233.293 769.074 233.293C766.701 233.293 764.865 232.507 763.566 230.935C762.268 229.362 761.618 227.146 761.618 224.284V220.388C761.618 217.507 762.263 215.285 763.552 213.723C764.851 212.16 766.682 211.379 769.045 211.379C771.408 211.379 773.239 212.165 774.538 213.737C775.837 215.31 776.486 217.531 776.486 220.402V224.284ZM771.55 219.758C771.55 218.225 771.35 217.082 770.949 216.33C770.549 215.568 769.914 215.188 769.045 215.188C768.195 215.188 767.575 215.539 767.185 216.242C766.804 216.945 766.599 218.01 766.569 219.436V224.885C766.569 226.477 766.77 227.644 767.17 228.386C767.57 229.118 768.205 229.484 769.074 229.484C769.914 229.484 770.534 229.128 770.935 228.415C771.335 227.692 771.54 226.564 771.55 225.031V219.758ZM793.859 224.284C793.859 227.165 793.21 229.387 791.911 230.949C790.622 232.512 788.801 233.293 786.447 233.293C784.074 233.293 782.238 232.507 780.939 230.935C779.641 229.362 778.991 227.146 778.991 224.284V220.388C778.991 217.507 779.636 215.285 780.925 213.723C782.224 212.16 784.055 211.379 786.418 211.379C788.781 211.379 790.612 212.165 791.911 213.737C793.21 215.31 793.859 217.531 793.859 220.402V224.284ZM788.923 219.758C788.923 218.225 788.723 217.082 788.322 216.33C787.922 215.568 787.287 215.188 786.418 215.188C785.568 215.188 784.948 215.539 784.558 216.242C784.177 216.945 783.972 218.01 783.942 219.436V224.885C783.942 226.477 784.143 227.644 784.543 228.386C784.943 229.118 785.578 229.484 786.447 229.484C787.287 229.484 787.907 229.128 788.308 228.415C788.708 227.692 788.913 226.564 788.923 225.031V219.758Z" fill="white"/>
<path d="M138 269.5L912 266" stroke="#929292" stroke-width="4"/>
<path d="M178.376 62H181.24V57.456H185.304V55.072H181.24V52.464H185.976V50.08H178.376V62ZM192.8 62.224C195.968 62.224 197.568 60.416 197.568 56.4V50.08H194.816V56.704C194.816 58.96 194.096 59.76 192.8 59.76C191.488 59.76 190.816 58.96 190.816 56.704V50.08H187.968V56.4C187.968 60.416 189.616 62.224 192.8 62.224ZM200.235 62H207.963V59.6H203.099V57.072H207.083V54.672H203.099V52.464H207.787V50.08H200.235V62ZM210.314 62H217.818V59.6H213.178V50.08H210.314V62ZM228.444 62.224C231.692 62.224 233.9 59.888 233.9 55.984C233.9 52.096 231.692 49.872 228.444 49.872C225.196 49.872 222.988 52.08 222.988 55.984C222.988 59.888 225.196 62.224 228.444 62.224ZM228.444 59.76C226.876 59.76 225.916 58.288 225.916 55.984C225.916 53.68 226.876 52.32 228.444 52.32C230.012 52.32 230.988 53.68 230.988 55.984C230.988 58.288 230.012 59.76 228.444 59.76ZM236.11 62H238.83V58.048C238.83 56.608 238.59 54.976 238.462 53.648H238.542L239.71 56.256L242.654 62H245.566V50.08H242.846V54.032C242.846 55.456 243.086 57.168 243.23 58.432H243.15L241.982 55.792L239.022 50.08H236.11V62ZM248.329 62H255.833V59.6H251.193V50.08H248.329V62ZM257.892 62H260.756V50.08H257.892V62ZM263.485 62H266.205V58.048C266.205 56.608 265.965 54.976 265.837 53.648H265.917L267.085 56.256L270.029 62H272.941V50.08H270.221V54.032C270.221 55.456 270.461 57.168 270.605 58.432H270.525L269.357 55.792L266.397 50.08H263.485V62ZM275.704 62H283.432V59.6H278.568V57.072H282.552V54.672H278.568V52.464H283.256V50.08H275.704V62ZM289.439 62H292.303V57.456H296.367V55.072H292.303V52.464H297.039V50.08H289.439V62ZM303.863 62.224C307.031 62.224 308.631 60.416 308.631 56.4V50.08H305.879V56.704C305.879 58.96 305.159 59.76 303.863 59.76C302.551 59.76 301.879 58.96 301.879 56.704V50.08H299.031V56.4C299.031 60.416 300.679 62.224 303.863 62.224ZM311.298 62H314.018V58.048C314.018 56.608 313.778 54.976 313.65 53.648H313.73L314.898 56.256L317.842 62H320.754V50.08H318.034V54.032C318.034 55.456 318.274 57.168 318.418 58.432H318.338L317.17 55.792L314.21 50.08H311.298V62ZM323.517 62H327.101C330.573 62 332.973 60.128 332.973 55.984C332.973 51.84 330.573 50.08 326.941 50.08H323.517V62ZM326.381 59.696V52.368H326.765C328.685 52.368 330.045 53.152 330.045 55.984C330.045 58.816 328.685 59.696 326.765 59.696H326.381Z" fill="#5C38FA"/>
<path opacity="0.98" d="M203.008 73.348C203.812 73.168 204.568 72.952 205.168 72.712L204.508 72.028C203.392 72.52 201.304 72.928 199.552 73.192C199.66 73.384 199.792 73.684 199.828 73.9C200.572 73.792 201.364 73.672 202.144 73.528V75.556H199.636V76.372H201.964C201.376 77.86 200.332 79.516 199.372 80.428C199.528 80.644 199.756 81.016 199.864 81.256C200.68 80.44 201.52 79.084 202.144 77.716V82.888H203.008V78.16C203.62 78.724 204.388 79.492 204.748 79.888L205.264 79.156C204.916 78.844 203.548 77.668 203.008 77.248V76.372H205.3V75.556H203.008V73.348ZM206.968 73.384H206.104V79.948H206.968V73.384ZM209.032 72.196V81.736C209.032 81.964 208.936 82.036 208.72 82.036C208.492 82.048 207.736 82.048 206.896 82.024C207.04 82.276 207.172 82.684 207.22 82.924C208.312 82.924 208.984 82.9 209.38 82.768C209.752 82.612 209.92 82.336 209.92 81.724V72.196H209.032ZM218.416 78.748H215.512V76.012H218.416V78.748ZM214.66 75.208V79.54H219.292V75.208H214.66ZM212.932 81.424V73.348H221.032V81.424H212.932ZM212.032 72.46V82.912H212.932V82.264H221.032V82.912H221.98V72.46H212.032ZM227.068 72.532L226.012 72.496C225.988 72.82 225.964 73.168 225.916 73.528C225.772 74.5 225.544 76.264 225.544 77.404C225.544 78.184 225.616 78.856 225.676 79.312L226.6 79.24C226.528 78.64 226.516 78.232 226.576 77.764C226.72 76.192 228.112 74.008 229.612 74.008C230.872 74.008 231.52 75.376 231.52 77.272C231.52 80.284 229.48 81.352 226.876 81.736L227.44 82.6C230.416 82.06 232.504 80.596 232.504 77.26C232.504 74.74 231.364 73.144 229.768 73.144C228.244 73.144 226.996 74.644 226.504 75.868C226.576 75.028 226.816 73.408 227.068 72.532ZM238.212 82H243.744V81.052H241.308C240.864 81.052 240.324 81.1 239.868 81.136C241.932 79.18 243.312 77.392 243.312 75.64C243.312 74.068 242.328 73.036 240.756 73.036C239.64 73.036 238.884 73.552 238.164 74.332L238.8 74.956C239.28 74.38 239.904 73.936 240.624 73.936C241.716 73.936 242.244 74.668 242.244 75.676C242.244 77.188 240.972 78.94 238.212 81.352V82ZM246.008 82.156C246.44 82.156 246.8 81.82 246.8 81.328C246.8 80.824 246.44 80.476 246.008 80.476C245.576 80.476 245.216 80.824 245.216 81.328C245.216 81.82 245.576 82.156 246.008 82.156ZM251.016 82.156C252.684 82.156 253.752 80.632 253.752 77.572C253.752 74.524 252.684 73.036 251.016 73.036C249.336 73.036 248.268 74.512 248.268 77.572C248.268 80.632 249.336 82.156 251.016 82.156ZM251.016 81.28C250.008 81.28 249.336 80.164 249.336 77.572C249.336 75.004 250.008 73.912 251.016 73.912C252.012 73.912 252.684 75.004 252.684 77.572C252.684 80.164 252.012 81.28 251.016 81.28ZM256.796 78.592C258.008 78.592 258.8 77.572 258.8 75.796C258.8 74.032 258.008 73.036 256.796 73.036C255.596 73.036 254.804 74.032 254.804 75.796C254.804 77.572 255.596 78.592 256.796 78.592ZM256.796 77.908C256.112 77.908 255.632 77.2 255.632 75.796C255.632 74.392 256.112 73.708 256.796 73.708C257.492 73.708 257.972 74.392 257.972 75.796C257.972 77.2 257.492 77.908 256.796 77.908ZM257.06 82.156H257.792L262.652 73.036H261.908L257.06 82.156ZM262.928 82.156C264.128 82.156 264.92 81.148 264.92 79.372C264.92 77.608 264.128 76.612 262.928 76.612C261.728 76.612 260.924 77.608 260.924 79.372C260.924 81.148 261.728 82.156 262.928 82.156ZM262.928 81.484C262.232 81.484 261.764 80.776 261.764 79.372C261.764 77.968 262.232 77.284 262.928 77.284C263.612 77.284 264.092 77.968 264.092 79.372C264.092 80.776 263.612 81.484 262.928 81.484Z" fill="#5C38FA"/>
<path opacity="0.98" d="M421.336 82.156C423.004 82.156 424.072 80.632 424.072 77.572C424.072 74.524 423.004 73.036 421.336 73.036C419.656 73.036 418.588 74.512 418.588 77.572C418.588 80.632 419.656 82.156 421.336 82.156ZM421.336 81.28C420.328 81.28 419.656 80.164 419.656 77.572C419.656 75.004 420.328 73.912 421.336 73.912C422.332 73.912 423.004 75.004 423.004 77.572C423.004 80.164 422.332 81.28 421.336 81.28ZM426.324 82.156C426.756 82.156 427.116 81.82 427.116 81.328C427.116 80.824 426.756 80.476 426.324 80.476C425.892 80.476 425.532 80.824 425.532 81.328C425.532 81.82 425.892 82.156 426.324 82.156ZM431.332 82.156C433 82.156 434.068 80.632 434.068 77.572C434.068 74.524 433 73.036 431.332 73.036C429.652 73.036 428.584 74.512 428.584 77.572C428.584 80.632 429.652 82.156 431.332 82.156ZM431.332 81.28C430.324 81.28 429.652 80.164 429.652 77.572C429.652 75.004 430.324 73.912 431.332 73.912C432.328 73.912 433 75.004 433 77.572C433 80.164 432.328 81.28 431.332 81.28ZM437.988 82.156C439.656 82.156 440.724 80.632 440.724 77.572C440.724 74.524 439.656 73.036 437.988 73.036C436.308 73.036 435.24 74.512 435.24 77.572C435.24 80.632 436.308 82.156 437.988 82.156ZM437.988 81.28C436.98 81.28 436.308 80.164 436.308 77.572C436.308 75.004 436.98 73.912 437.988 73.912C438.984 73.912 439.656 75.004 439.656 77.572C439.656 80.164 438.984 81.28 437.988 81.28ZM442.365 82H447.189V81.088H445.425V73.192H444.585C444.105 73.48 443.541 73.684 442.761 73.828V74.524H444.321V81.088H442.365V82ZM450.425 78.592C451.637 78.592 452.429 77.572 452.429 75.796C452.429 74.032 451.637 73.036 450.425 73.036C449.225 73.036 448.433 74.032 448.433 75.796C448.433 77.572 449.225 78.592 450.425 78.592ZM450.425 77.908C449.741 77.908 449.261 77.2 449.261 75.796C449.261 74.392 449.741 73.708 450.425 73.708C451.121 73.708 451.601 74.392 451.601 75.796C451.601 77.2 451.121 77.908 450.425 77.908ZM450.689 82.156H451.421L456.281 73.036H455.537L450.689 82.156ZM456.557 82.156C457.757 82.156 458.549 81.148 458.549 79.372C458.549 77.608 457.757 76.612 456.557 76.612C455.357 76.612 454.553 77.608 454.553 79.372C454.553 81.148 455.357 82.156 456.557 82.156ZM456.557 81.484C455.861 81.484 455.393 80.776 455.393 79.372C455.393 77.968 455.861 77.284 456.557 77.284C457.241 77.284 457.721 77.968 457.721 79.372C457.721 80.776 457.241 81.484 456.557 81.484Z" fill="#929292"/>
<circle cx="145.5" cy="55.5" r="6.5" fill="#5C38FA"/>
<path d="M124 56H167" stroke="#5C38FA" stroke-width="4"/>
<path d="M418.72 58.352V59.008H413.216V58.352H418.72ZM413.216 61.312V60.672H418.72V61.312H413.216ZM410.848 63.52H413.216V63.072H418.72V63.456H421.216V56.624H410.848V63.52ZM413.376 51.92V54.24H412.576L413.072 54.048C412.912 53.456 412.544 52.608 412.144 51.92H413.376ZM416.208 54.24H415.536V51.92H416.208V54.24ZM419.52 54.24H418.4V51.92H419.728C419.488 52.608 419.12 53.44 418.8 54.032L419.52 54.24ZM420.832 54.24C421.184 53.68 421.568 52.944 421.952 52.192L420.912 51.92H422.624V50.064H419.824C420.08 49.744 420.368 49.36 420.688 48.896L418.352 48.256C418.128 48.736 417.712 49.392 417.376 49.84L418.16 50.064H413.808L414.4 49.824C414.208 49.36 413.792 48.72 413.36 48.256L411.296 48.976C411.536 49.296 411.776 49.696 411.984 50.064H409.44V51.92H411.28L410.096 52.352C410.416 52.912 410.72 53.632 410.912 54.24H408.624V56.096H423.392V54.24H420.832ZM433.28 53.984V54.544H431.92V53.984H433.28ZM435.136 50.512C434.88 50.72 434.608 50.912 434.336 51.088C433.808 50.88 433.28 50.672 432.816 50.512H435.136ZM436.736 53.984V54.544H435.344V53.984H436.736ZM435.344 56.72V56.128H436.736V56.72H435.344ZM431.92 56.72V56.128H433.28V56.72H431.92ZM431.92 58.368H433.28V60.56H435.344V58.368H436.736V58.672C436.736 58.832 436.688 58.896 436.512 58.896C436.368 58.896 435.872 58.896 435.504 58.88C435.744 59.376 435.984 60.128 436.064 60.688C436.96 60.688 437.68 60.672 438.224 60.368C438.8 60.064 438.944 59.6 438.944 58.704V52.336H437.04C436.8 52.208 436.512 52.064 436.208 51.92C437.184 51.264 438.128 50.496 438.88 49.776L437.52 48.672L437.072 48.784H429.968V50.512H432.56L431.152 51.664C431.632 51.856 432.192 52.096 432.736 52.336H429.744V60.624H431.92V58.368ZM429.088 51.056C428.496 50.304 427.216 49.296 426.24 48.64L424.64 50.144C425.616 50.88 426.848 51.984 427.36 52.736L429.088 51.056ZM428.544 54.512H424.432V56.656H426.32V59.776C425.632 60.256 424.88 60.688 424.224 61.056L425.28 63.376C426.176 62.704 426.88 62.128 427.568 61.536C428.512 62.752 429.696 63.168 431.52 63.248C433.568 63.344 436.976 63.312 439.072 63.2C439.184 62.544 439.536 61.472 439.792 60.944C437.408 61.152 433.552 61.2 431.552 61.104C430.048 61.04 429.088 60.64 428.544 59.632V54.512ZM452.736 54.016H449.792V53.296H452.736V54.016ZM452.736 56.272H449.792V55.552H452.736V56.272ZM452.736 58.544H449.792V57.824H452.736V58.544ZM446.288 54.064L445.984 54.128H445.44L445.904 53.488C445.68 53.296 445.408 53.088 445.088 52.88C445.84 52.064 446.576 51.056 447.168 50.128V50.816H450.048C450.016 51.088 449.984 51.36 449.952 51.632H447.68V54.368L446.288 54.064ZM454.96 60.208V51.632H452.32C452.416 51.376 452.496 51.104 452.592 50.816H455.392V48.88H447.168V49.68L445.968 48.816L445.552 48.944H440.704V50.944H444.144C443.904 51.28 443.648 51.616 443.408 51.904C442.928 51.664 442.464 51.44 442.032 51.264L440.896 52.784C441.664 53.136 442.528 53.632 443.296 54.128H440.32V56.16H442.56V61.056C442.56 61.232 442.496 61.28 442.272 61.28C442.048 61.28 441.296 61.28 440.688 61.264C440.992 61.872 441.296 62.832 441.376 63.488C442.448 63.488 443.296 63.44 443.952 63.088C444.64 62.736 444.8 62.128 444.8 61.104V56.16H445.392C445.248 56.848 445.104 57.504 444.976 57.984L446.688 58.336C446.992 57.36 447.376 55.872 447.68 54.512V60.208H449.072C448.336 60.864 447.04 61.664 445.904 62.064C446.4 62.464 447.072 63.136 447.44 63.568C448.672 63.088 450.192 62.16 451.088 61.328L449.408 60.208H453.152L451.456 61.36C452.32 62.016 453.488 62.976 454.016 63.568L455.84 62.272C455.216 61.664 454.032 60.8 453.184 60.208H454.96ZM462.656 58.352V61.12H461.056L462.224 60.608C462.016 59.968 461.488 59.088 460.976 58.352H462.656ZM466.8 58.352C466.464 59.152 465.92 60.112 465.472 60.768L466.32 61.12H465.136V58.352H466.8ZM461.568 53.072C462.528 52.24 463.344 51.36 463.936 50.528C464.528 51.344 465.392 52.224 466.368 53.072H461.568ZM467.568 58.352H469.76V56.368H465.136V55.088H467.984V54.336C468.752 54.88 469.536 55.376 470.304 55.792C470.736 55.072 471.264 54.288 471.84 53.696C469.28 52.704 466.8 50.752 465.056 48.256H462.624C461.472 50.16 458.944 52.576 456.208 53.888C456.704 54.368 457.376 55.232 457.664 55.776C458.432 55.36 459.184 54.896 459.904 54.384V55.088H462.656V56.368H458.08V58.352H460.08L458.896 58.848C459.36 59.536 459.824 60.432 460.096 61.12H457.232V63.104H470.784V61.12H467.52C468 60.512 468.56 59.696 469.12 58.912L467.568 58.352Z" fill="#636363"/>
<circle cx="376.5" cy="54.5" r="6.5" fill="#929292"/>
<path d="M355 55H398" stroke="#929292" stroke-width="4"/>
<path d="M889.5 107L841.5 86V107H889.5Z" fill="#5C38FA"/>
<path d="M883.689 250.941L836.312 230.435L849.748 217L883.689 250.941Z" fill="#636363"/>
<line x1="664" y1="103" x2="682" y2="103" stroke="white" stroke-width="4"/>
<line x1="673" y1="112" x2="673" y2="94" stroke="white" stroke-width="4"/>
<line x1="703" y1="223" x2="721" y2="223" stroke="white" stroke-width="4"/>
<line x1="712" y1="232" x2="712" y2="214" stroke="white" stroke-width="4"/>
</svg>
