<svg width="38" height="49" viewBox="0 0 38 49" fill="none" xmlns="http://www.w3.org/2000/svg">
<path d="M2.53333 32.9333H19V0C19 0 1.26666 5.06667 1.26666 26.6C1.26666 30.4 2.53333 32.9333 2.53333 32.9333Z" fill="#363041"/>
<path d="M35.4667 32.9333H19V0C19 0 36.7333 5.06667 36.7333 26.6C36.7333 30.4 35.4667 32.9333 35.4667 32.9333Z" fill="#363041"/>
<path d="M35.4882 40.6868C33.7123 38.2637 24.0667 34.2002 24.0667 34.2002H19H13.9333C13.9333 34.2002 4.28767 38.2637 2.5118 40.6868C0.366067 43.6153 0 48.1335 0 48.1335H38C38 48.1335 37.6339 43.6153 35.4882 40.6868Z" fill="#5C38FA"/>
<path d="M13.9333 22.7998V34.1998C13.9333 37.9479 19 40.5331 19 40.5331C19 40.5331 24.0667 37.9859 24.0667 34.1998V22.7998H13.9333Z" fill="#E7C7B5"/>
<path d="M7.60001 16.1452C7.60001 28.803 13.7345 34.2002 19 34.2002V5.06689C12.4019 5.06689 7.60001 11.4192 7.60001 16.1452Z" fill="#FFECE1"/>
<path d="M30.4 16.1451C30.4 28.8029 24.2655 34.2001 19 34.2001V5.06681C25.5981 5.06681 30.4 -1.80105 30.4 16.1451Z" fill="#FFECE1"/>
<path d="M19 0C12.0042 0 1.26666 5.06667 1.26666 26.6C1.26666 13.9333 16.4667 20.2667 25.3333 6.33333C25.3333 21.5333 36.7333 20.2667 36.7333 26.6C36.7333 12.6667 32.9333 2.53333 25.3333 2.53333C25.3333 2.53333 23.2991 0 19 0Z" fill="#58545F"/>
</svg>
