<svg width="38" height="49" viewBox="0 0 38 49" fill="none" xmlns="http://www.w3.org/2000/svg">
<path d="M32.7332 22.1515C32.1708 24.624 31.6667 25.3333 30.0681 25.3333C27.9693 25.3333 26.4214 23.8779 26.4214 22.1426C26.4214 20.4073 28.1225 19 30.2214 19C32.7028 19 33.307 19.6295 32.7332 22.1515Z" fill="#F0D1C0"/>
<path d="M5.2664 22.1515C5.8288 24.624 6.33293 25.3333 7.93147 25.3333C10.0303 25.3333 11.5782 23.8779 11.5782 22.1426C11.5782 20.4073 9.87707 19 7.7782 19C5.2968 19 4.6926 19.6295 5.2664 22.1515Z" fill="#F0D1C0"/>
<path d="M35.4882 40.6868C33.7123 38.2637 24.0667 34.2002 24.0667 34.2002H19H13.9333C13.9333 34.2002 4.28767 38.2637 2.5118 40.6868C0.366067 43.6153 0 48.1335 0 48.1335H38C38 48.1335 37.6339 43.6153 35.4882 40.6868Z" fill="#5C38FA"/>
<path d="M13.9331 25.333V36.733C13.9331 40.4811 18.9998 43.0663 18.9998 43.0663C18.9998 43.0663 24.0664 40.5191 24.0664 36.733V25.333H13.9331Z" fill="#F0D1C0"/>
<path d="M6.33301 16.1452C6.33301 28.803 13.1489 35.4669 18.9997 35.4669V5.06689C11.6682 5.06689 6.33301 11.4192 6.33301 16.1452Z" fill="#FFDCC8"/>
<path d="M31.6667 16.1452C31.6667 28.803 24.8507 35.4669 19 35.4669V5.06689C26.3315 5.06689 31.6667 11.4192 31.6667 16.1452Z" fill="#FFDCC8"/>
<path d="M19.0002 0C12.0044 0 5.06689 4.4042 5.06689 11.4C5.06689 16.7555 7.05429 22.8 7.05429 22.8C7.05429 22.8 7.60023 18.7365 7.60023 15.2C19.2118 15.2 25.3336 8.86667 25.3336 8.86667C25.3336 8.86667 26.2836 13.7218 30.4002 15.2C30.6548 20.6619 30.9373 22.8 30.9373 22.8C30.9373 22.8 32.9336 15.9119 32.9336 11.4C32.9336 6.29407 30.4395 2.53333 25.3336 2.53333C25.3336 2.53333 23.2993 0 19.0002 0Z" fill="#58545F"/>
</svg>
