<svg width="451" height="383" viewBox="0 0 451 383" fill="none" xmlns="http://www.w3.org/2000/svg">
<circle cx="365.5" cy="96.793" r="58.5" fill="#F3F5F9"/>
<circle cx="367.5" cy="323.793" r="58.5" fill="#F3F5F9"/>
<path d="M331.969 324.668L334.934 318.406H323.534C325.441 324.682 331.969 324.668 331.969 324.668Z" fill="#4D27F2"/>
<path d="M323.322 311.559C323.115 312.407 323 313.351 323 314.402C323 315.458 323.09 316.405 323.253 317.257H346.56L349.258 311.559H323.322Z" fill="#4D27F2"/>
<path d="M363.551 304.132H332.849C332.849 304.132 325.904 304.539 323.677 310.405H360.581L363.551 304.132Z" fill="#4D27F2"/>
<path d="M367.673 324.39V304H376.377V306.749H370.592V312.934H375.632V315.683H370.592V324.39H367.673Z" fill="#4D27F2"/>
<path d="M388.207 304V319.808C388.207 320.477 388.088 321.091 387.848 321.655C387.609 322.219 387.271 322.72 386.832 323.159C386.392 323.599 385.886 323.942 385.313 324.19C384.741 324.438 384.129 324.563 383.48 324.563C382.831 324.563 382.224 324.438 381.663 324.19C381.099 323.942 380.598 323.599 380.158 323.159C379.719 322.72 379.376 322.219 379.128 321.655C378.879 321.091 378.755 320.477 378.755 319.808V304H381.677V319.52C381.677 320.245 381.849 320.781 382.192 321.124C382.535 321.466 382.965 321.639 383.48 321.639C383.995 321.639 384.425 321.466 384.768 321.124C385.111 320.781 385.284 320.245 385.284 319.52V304H388.207Z" fill="#4D27F2"/>
<path d="M391.244 324.39V304H399.948V306.749H394.163V312.734H399.203V315.483H394.163V321.469H399.948V324.39H391.244Z" fill="#4D27F2"/>
<path d="M402.869 324.39V304H405.791V321.469H411.576V324.39H402.869Z" fill="#4D27F2"/>
<circle cx="58.5" cy="317.793" r="58.5" fill="#F3F5F9"/>
<path d="M325.766 110.676L324.394 109.794C324.016 109.892 323.568 109.906 323.288 109.906H316.82C316.358 109.906 315.56 109.836 315.14 109.794V111.768C315.504 111.74 316.176 111.712 316.806 111.712H323.33C323.148 112.902 322.616 114.498 321.692 115.66C320.558 117.074 318.976 118.292 316.204 118.95L317.73 120.616C320.222 119.818 322.084 118.432 323.358 116.752C324.52 115.198 325.136 113.028 325.458 111.656C325.528 111.362 325.64 110.956 325.766 110.676ZM340.326 113.014L339.29 112.076C339.066 112.146 338.464 112.174 338.156 112.174H331.66C331.198 112.174 330.638 112.132 330.204 112.062V113.868C330.722 113.812 331.198 113.784 331.66 113.784H337.736C337.4 114.372 336.518 115.366 335.72 115.912L337.12 116.892C338.114 116.122 339.416 114.358 339.906 113.574C339.99 113.434 340.2 113.168 340.326 113.014ZM335.524 114.484H333.592C333.648 114.778 333.69 115.142 333.69 115.478C333.69 117.242 333.396 118.488 331.814 119.566C331.394 119.86 331.044 120.028 330.68 120.168L332.164 121.358C335.44 119.552 335.44 117.102 335.524 114.484ZM345.814 109.36L344.498 110.76C345.52 111.474 347.27 113 347.998 113.784L349.426 112.328C348.614 111.474 346.794 110.018 345.814 109.36ZM344.064 118.684L345.24 120.532C347.214 120.196 349.02 119.412 350.434 118.558C352.688 117.2 354.55 115.268 355.614 113.378L354.522 111.404C353.64 113.294 351.82 115.436 349.426 116.85C348.068 117.662 346.248 118.376 344.064 118.684ZM366.548 109.584L365.372 110.074C365.89 110.802 366.198 111.362 366.604 112.244L367.822 111.698C367.5 111.068 366.94 110.172 366.548 109.584ZM368.382 108.814L367.22 109.36C367.738 110.06 368.074 110.578 368.522 111.46L369.698 110.886C369.376 110.256 368.788 109.374 368.382 108.814ZM360.962 118.866C360.962 119.412 360.906 120.266 360.822 120.812H363.02C362.95 120.238 362.88 119.258 362.88 118.866V114.904C364.392 115.408 366.492 116.22 367.948 116.99L368.732 115.044C367.444 114.414 364.742 113.42 362.88 112.86V110.816C362.88 110.228 362.95 109.612 363.006 109.122H360.822C360.92 109.626 360.962 110.312 360.962 110.816V118.866ZM381.878 117.984H379.358V117.326H381.878V117.984ZM379.358 115.45H381.878V116.052H379.358V115.45ZM375.466 112.664V111.992H377.664V112.664H375.466ZM381.626 111.992V112.664H379.358V111.992H381.626ZM385.028 116.052H383.572V114.33H379.358V113.714H383.334V110.942H379.358V110.368H384.706V109.052H379.358V108.142H377.664V109.052H372.442V110.368H377.664V110.942H373.87V113.714H377.664V114.33H373.52V115.45H377.664V116.052H372.12V117.326H377.664V117.984H373.408V119.188H377.664V119.622C377.664 119.874 377.58 119.958 377.314 119.972C377.09 119.972 376.264 119.972 375.592 119.944C375.802 120.294 376.054 120.868 376.138 121.26C377.328 121.26 378.084 121.232 378.616 121.022C379.162 120.784 379.358 120.448 379.358 119.622V119.188H381.878V119.762H383.572V117.326H385.028V116.052ZM394.842 111.782C394.688 112.16 394.52 112.566 394.352 112.902H391.734L391.972 112.86C391.874 112.566 391.692 112.146 391.496 111.782H394.842ZM399.364 118.026V116.654H393.918V116.038H398.118V114.834H393.918V114.204H398.776V112.902H396.032C396.242 112.566 396.466 112.188 396.69 111.782H399.322V110.424H397.502C397.824 109.934 398.202 109.304 398.594 108.66L396.844 108.24C396.648 108.856 396.298 109.696 395.962 110.27L396.466 110.424H395.22V108.142H393.652V110.424H392.616V108.142H391.062V110.424H389.788L390.474 110.172C390.278 109.626 389.816 108.8 389.41 108.198L387.982 108.688C388.29 109.22 388.654 109.892 388.85 110.424H386.974V111.782H389.9L389.732 111.81C389.914 112.132 390.096 112.552 390.208 112.902H387.548V114.204H392.28V114.834H388.248V116.038H392.28V116.654H386.932V118.026H390.95C389.746 118.754 388.094 119.342 386.526 119.664C386.876 120 387.352 120.644 387.59 121.05C389.256 120.616 390.978 119.804 392.28 118.782V121.218H393.918V118.698C395.206 119.79 396.9 120.63 398.622 121.064C398.874 120.616 399.364 119.916 399.742 119.552C398.118 119.3 396.494 118.754 395.304 118.026H399.364ZM407.554 111.096H409.836C409.36 111.544 408.856 111.964 408.324 112.37H407.554V111.096ZM410.606 117.214H405.79V116.318H410.606V117.214ZM405.79 119.426V118.474H410.606V119.426H405.79ZM413.952 113.84V112.37H410.704C411.726 111.432 412.664 110.396 413.462 109.29L412.034 108.562C411.6 109.178 411.124 109.766 410.592 110.34V109.654H407.554V108.142H405.902V109.654H402.612V111.096H405.902V112.37H401.408V113.84H406.168C404.558 114.792 402.808 115.59 400.974 116.164C401.282 116.5 401.786 117.172 401.982 117.536C402.696 117.27 403.424 116.962 404.124 116.654V121.232H405.79V120.812H410.606V121.176H412.356V114.96H407.26C407.834 114.596 408.366 114.232 408.912 113.84H413.952Z" fill="#151515"/>
<path d="M284.441 360H286.513V355.8H290.195V354.064H286.513V351.362H290.825V349.626H284.441V360ZM297.167 360.196C299.701 360.196 301.171 358.782 301.171 355.338V349.626H299.183V355.52C299.183 357.676 298.399 358.404 297.167 358.404C295.963 358.404 295.207 357.676 295.207 355.52V349.626H293.135V355.338C293.135 358.782 294.647 360.196 297.167 360.196ZM304.223 360H310.733V358.264H306.295V355.492H309.935V353.756H306.295V351.362H310.579V349.626H304.223V360ZM313.397 360H319.683V358.264H315.469V349.626H313.397V360ZM330.352 348.786H328.364C328.42 349.15 328.462 349.598 328.504 350.2C328.518 350.508 328.532 350.844 328.546 351.208H323.912C323.436 351.208 322.764 351.166 322.358 351.11V352.972C322.848 352.944 323.45 352.916 323.954 352.916H327.776C326.656 354.512 324.346 356.486 321.616 357.774L322.904 359.23C325.116 358.054 327.384 356.108 328.616 354.498C328.644 355.94 328.644 357.34 328.644 358.278C328.644 358.684 328.504 358.866 328.154 358.866C327.678 358.866 326.922 358.81 326.292 358.698L326.446 360.518C327.244 360.574 328.028 360.602 328.882 360.602C329.946 360.602 330.464 360.084 330.45 359.188C330.422 357.298 330.366 354.96 330.324 352.916H332.13C332.508 352.916 333.04 352.944 333.488 352.958V351.096C333.152 351.152 332.494 351.208 332.032 351.208H330.282C330.282 350.844 330.268 350.508 330.268 350.2C330.268 349.766 330.296 349.22 330.352 348.786ZM338.71 349.36L337.394 350.76C338.416 351.474 340.166 353 340.894 353.784L342.322 352.328C341.51 351.474 339.69 350.018 338.71 349.36ZM336.96 358.684L338.136 360.532C340.11 360.196 341.916 359.412 343.33 358.558C345.584 357.2 347.446 355.268 348.51 353.378L347.418 351.404C346.536 353.294 344.716 355.436 342.322 356.85C340.964 357.662 339.144 358.376 336.96 358.684ZM353.018 349.262V351.068C353.424 351.04 354.026 351.026 354.474 351.026H359.836C360.34 351.026 360.998 351.04 361.376 351.068V349.262C360.984 349.318 360.298 349.332 359.864 349.332H354.474C353.998 349.332 353.41 349.318 353.018 349.262ZM362.552 353.322L361.306 352.552C361.11 352.636 360.732 352.692 360.284 352.692H353.354C352.92 352.692 352.318 352.65 351.73 352.608V354.428C352.318 354.372 353.018 354.358 353.354 354.358H360.116C359.864 355.142 359.43 356.01 358.674 356.78C357.61 357.872 355.93 358.796 353.83 359.23L355.216 360.812C357.008 360.308 358.8 359.356 360.214 357.788C361.264 356.626 361.866 355.268 362.286 353.91C362.342 353.756 362.454 353.504 362.552 353.322ZM365.324 354.554L366.206 356.318C367.928 355.814 369.706 355.058 371.148 354.302V358.782C371.148 359.398 371.106 360.28 371.05 360.616H373.262C373.164 360.266 373.136 359.398 373.136 358.782V353.126C374.494 352.23 375.838 351.138 376.902 350.088L375.39 348.646C374.48 349.752 372.884 351.152 371.442 352.048C369.888 353 367.83 353.91 365.324 354.554ZM382.39 349.36L381.074 350.76C382.096 351.474 383.846 353 384.574 353.784L386.002 352.328C385.19 351.474 383.37 350.018 382.39 349.36ZM380.64 358.684L381.816 360.532C383.79 360.196 385.596 359.412 387.01 358.558C389.264 357.2 391.126 355.268 392.19 353.378L391.098 351.404C390.216 353.294 388.396 355.436 386.002 356.85C384.644 357.662 382.824 358.376 380.64 358.684ZM405.599 350.676L404.227 349.794C403.849 349.892 403.401 349.906 403.121 349.906H396.653C396.191 349.906 395.393 349.836 394.973 349.794V351.768C395.337 351.74 396.009 351.712 396.639 351.712H403.163C402.981 352.902 402.449 354.498 401.525 355.66C400.391 357.074 398.809 358.292 396.037 358.95L397.563 360.616C400.055 359.818 401.917 358.432 403.191 356.752C404.353 355.198 404.969 353.028 405.291 351.656C405.361 351.362 405.473 350.956 405.599 350.676ZM420.159 353.014L419.123 352.076C418.899 352.146 418.297 352.174 417.989 352.174H411.493C411.031 352.174 410.471 352.132 410.037 352.062V353.868C410.555 353.812 411.031 353.784 411.493 353.784H417.569C417.233 354.372 416.351 355.366 415.553 355.912L416.953 356.892C417.947 356.122 419.249 354.358 419.739 353.574C419.823 353.434 420.033 353.168 420.159 353.014ZM415.357 354.484H413.425C413.481 354.778 413.523 355.142 413.523 355.478C413.523 357.242 413.229 358.488 411.647 359.566C411.227 359.86 410.877 360.028 410.513 360.168L411.997 361.358C415.273 359.552 415.273 357.102 415.357 354.484ZM425.647 349.36L424.331 350.76C425.353 351.474 427.103 353 427.831 353.784L429.259 352.328C428.447 351.474 426.627 350.018 425.647 349.36ZM423.897 358.684L425.073 360.532C427.047 360.196 428.853 359.412 430.267 358.558C432.521 357.2 434.383 355.268 435.447 353.378L434.355 351.404C433.473 353.294 431.653 355.436 429.259 356.85C427.901 357.662 426.081 358.376 423.897 358.684ZM446.381 349.584L445.205 350.074C445.723 350.802 446.031 351.362 446.437 352.244L447.655 351.698C447.333 351.068 446.773 350.172 446.381 349.584ZM448.215 348.814L447.053 349.36C447.571 350.06 447.907 350.578 448.355 351.46L449.531 350.886C449.209 350.256 448.621 349.374 448.215 348.814ZM440.795 358.866C440.795 359.412 440.739 360.266 440.655 360.812H442.853C442.783 360.238 442.713 359.258 442.713 358.866V354.904C444.225 355.408 446.325 356.22 447.781 356.99L448.565 355.044C447.277 354.414 444.575 353.42 442.713 352.86V350.816C442.713 350.228 442.783 349.612 442.839 349.122H440.655C440.753 349.626 440.795 350.312 440.795 350.816V358.866Z" fill="#151515"/>
<path d="M44.35 334.532V333.076C44.644 332.656 44.924 332.222 45.162 331.788H49.516V330.08H37.378V331.788H42.964C41.662 333.93 39.478 336.1 36.93 337.29C37.294 337.668 37.812 338.354 38.078 338.802C39.758 337.934 41.256 336.716 42.53 335.358V342.19H44.35V334.938C45.862 336.1 47.766 337.696 48.634 338.732L50.048 337.458C49.04 336.352 46.884 334.742 45.386 333.664L44.35 334.532ZM55.816 339.32H58.35V338.144H55.816V337.598H58.294V333.272H55.816V332.726H58.504V333.818H59.778C59.68 336.324 59.344 338.326 58.252 339.838C57.44 339.908 56.614 339.978 55.816 340.034V339.32ZM53.212 336.562V335.932H54.304V336.562H53.212ZM56.908 335.932V336.562H55.816V335.932H56.908ZM55.816 334.938V334.322H56.908V334.938H55.816ZM53.212 334.322H54.304V334.938H53.212V334.322ZM61.402 332.292C61.43 331.368 61.43 330.388 61.43 329.366H59.834C59.834 330.402 59.834 331.368 59.82 332.292H58.504V331.522H55.816V330.836C56.726 330.738 57.594 330.612 58.336 330.458L57.608 329.212C56.068 329.548 53.646 329.786 51.574 329.898C51.728 330.22 51.882 330.738 51.938 331.074C52.694 331.06 53.492 331.018 54.304 330.962V331.522H51.546V332.726H54.304V333.272H51.896V337.598H54.304V338.144H51.84V339.32H54.304V340.16C53.226 340.23 52.246 340.3 51.462 340.356L51.658 341.756C53.17 341.63 55.186 341.42 57.202 341.21C57.566 341.518 57.972 341.98 58.182 342.316C60.534 340.454 61.178 337.57 61.36 333.818H62.62C62.536 338.34 62.396 340.048 62.102 340.426C61.976 340.608 61.836 340.664 61.626 340.664C61.36 340.664 60.828 340.65 60.212 340.594C60.492 341.056 60.674 341.728 60.702 342.19C61.374 342.204 62.018 342.218 62.438 342.134C62.9 342.036 63.222 341.896 63.544 341.434C63.992 340.79 64.104 338.76 64.23 333.034C64.23 332.838 64.244 332.292 64.244 332.292H61.402ZM70.096 338.06C70.362 337.766 70.642 337.402 70.894 337.01H73.008V338.06H70.096ZM74.646 339.334H77.642V338.06H74.646V337.01H78.048V335.736H74.646V334.7H73.008V335.736H71.594C71.706 335.484 71.818 335.232 71.902 334.98L70.432 334.644C70.082 335.666 69.438 336.702 68.668 337.374C69.046 337.542 69.676 337.92 69.984 338.172L70.068 338.088V339.334H73.008V340.566H68.99V341.938H78.804V340.566H74.646V339.334ZM74.478 331.578C74.338 332.054 74.156 332.586 73.974 332.992L74.226 333.062H70.936L71.356 332.95C71.272 332.572 71.076 332.04 70.838 331.578H74.478ZM75.57 333.062C75.836 332.642 76.144 332.11 76.466 331.578H78.202V330.164H73.428V329.142H71.762V330.164H67.03V331.578H69.452L69.144 331.662C69.368 332.096 69.564 332.628 69.676 333.062H67.142V335.316C67.142 336.982 67.03 339.418 65.882 341.126C66.218 341.308 66.918 341.882 67.17 342.176C68.486 340.258 68.738 337.29 68.738 335.33V334.49H78.888V333.062H75.57Z" fill="#151515"/>
<path d="M395.575 38.1513L329.948 0.153388C329.837 0.0752982 329.709 0.0251835 329.575 0.00732331C329.441 -0.0105369 329.305 0.00438743 329.178 0.0508224L329.112 0.0898957L328.396 0.505039L328.808 1.08868V54.4415C328.83 54.8416 328.945 55.231 329.145 55.5781C329.344 55.9251 329.623 56.2201 329.957 56.4391L395.494 93.6358L395.587 94.2244L396.383 93.7628C396.501 93.6802 396.595 93.5673 396.655 93.4359C396.715 93.3045 396.739 93.1593 396.724 93.0156V40.1489C396.702 39.7488 396.587 39.3594 396.387 39.0123C396.188 38.6652 395.909 38.3703 395.575 38.1513Z" fill="#D6D8E5"/>
<path d="M395.926 40.6122V93.4765C395.926 94.2091 395.414 94.5095 394.776 94.1407L329.149 56.1404C328.815 55.9214 328.536 55.6264 328.337 55.2794C328.137 54.9323 328.022 54.5429 328 54.1428V1.28098C328 0.548368 328.514 0.245557 329.149 0.614303L394.776 38.6147C395.112 38.8332 395.39 39.1281 395.59 39.4752C395.79 39.8224 395.905 40.212 395.926 40.6122Z" fill="#FAFBFC"/>
<path d="M328.838 2.4375C328.838 1.88521 329.226 1.66211 329.704 1.93918L394.298 39.3588C394.776 39.6358 395.164 40.3082 395.164 40.8604L395.164 57.1104L328.839 18.6875L328.838 2.4375Z" fill="#E2DEFC"/>
<rect width="62.9674" height="5.37662" rx="2" transform="matrix(0.866005 0.501683 3.75967e-05 1 332.512 9.61719)" fill="#4D27F2"/>
<rect width="41.5317" height="17.026" rx="1" transform="matrix(0.866005 0.501684 3.75967e-05 1 332.513 23.9531)" fill="#E2DEFC"/>
<rect width="23.8919" height="4.92856" rx="1" transform="matrix(0.866005 0.501682 3.75968e-05 1 371.767 46.6914)" fill="#4D27F2"/>
<rect x="0.216511" y="0.375421" width="23.3919" height="4.42858" rx="0.75" transform="matrix(0.866005 0.501684 3.75967e-05 1 371.796 52.8562)" stroke="#4D27F2" stroke-width="0.5"/>
<rect width="41.5317" height="4.48052" rx="1" transform="matrix(0.866005 0.501684 3.75967e-05 1 332.513 42.7695)" fill="#E2DEFC"/>
<rect width="23.8919" height="15.6818" rx="1" transform="matrix(0.866005 0.501683 3.75967e-05 1 371.767 60.582)" fill="#E2DEFC"/>
<rect width="41.5317" height="4.48052" rx="1" transform="matrix(0.866005 0.501684 3.75967e-05 1 332.513 49.043)" fill="#E2DEFC"/>
<rect width="17.1932" height="2.01623" rx="0.5" transform="matrix(0.866005 0.501683 3.75967e-05 1 332.512 16.3359)" fill="#4D27F2"/>
<rect width="5.8055" height="2.01623" rx="1.00812" transform="matrix(0.866005 0.501684 3.75967e-05 1 332.512 6.03125)" fill="#4D27F2"/>
<rect width="5.8055" height="2.01623" rx="1.00812" transform="matrix(0.866005 0.501684 3.75967e-05 1 338.312 9.39453)" fill="white"/>
<rect width="5.80551" height="2.01623" rx="1.00812" transform="matrix(0.866005 0.501683 3.75968e-05 1 344.113 12.7529)" fill="white"/>
<rect width="5.80549" height="2.01623" rx="1.00811" transform="matrix(0.866005 0.501684 3.75967e-05 1 349.914 16.1133)" fill="white"/>
<circle cx="59.5" cy="106.793" r="58.5" fill="#F3F5F9"/>
<path d="M43.732 117.618L43.564 116.176L42.402 116.456V114.272H43.788V112.732H42.402V110.156H40.764V112.732H39V114.272H40.764V116.862C40.008 117.044 39.336 117.198 38.79 117.296L39.238 119.032C39.714 118.892 40.232 118.738 40.764 118.57V121.426C40.764 121.622 40.694 121.678 40.512 121.692C40.33 121.692 39.742 121.692 39.21 121.664C39.406 122.098 39.616 122.77 39.672 123.19C40.652 123.19 41.324 123.148 41.8 122.896C42.248 122.644 42.402 122.238 42.402 121.412V118.052L43.732 117.618ZM49.01 117.604C48.646 118.346 48.156 118.99 47.554 119.536C46.952 118.976 46.462 118.332 46.098 117.604H49.01ZM50.116 116.05L49.808 116.106H44.53C46.112 115.098 46.504 113.516 46.518 112.2H48.31V113.712C48.31 115.084 48.66 115.49 49.808 115.49H50.69C51.656 115.49 52.006 115.014 52.146 113.292C51.726 113.194 51.096 112.942 50.788 112.704C50.76 113.922 50.718 114.118 50.508 114.118H50.116C49.948 114.118 49.906 114.076 49.906 113.698V110.66H44.95V112.088C44.95 113.012 44.782 114.104 43.396 114.902C43.704 115.14 44.292 115.77 44.488 116.106H44.208V117.604H45.734L44.558 117.968C45.02 118.934 45.566 119.788 46.238 120.502C45.286 121.076 44.166 121.468 42.948 121.706C43.256 122.084 43.634 122.784 43.802 123.232C45.202 122.882 46.462 122.364 47.554 121.65C48.534 122.35 49.71 122.882 51.082 123.204C51.334 122.756 51.796 122.056 52.174 121.692C50.942 121.454 49.85 121.062 48.926 120.53C49.962 119.508 50.732 118.178 51.208 116.484L50.116 116.05ZM57.83 111.36C57.13 111.024 55.8 110.576 54.876 110.352L54.148 111.486C55.114 111.766 56.43 112.27 57.074 112.62L57.83 111.36ZM57.032 119.256H63.094V119.872H57.032V119.256ZM57.032 117.716H63.094V118.318H57.032V117.716ZM57.032 116.176H63.094V116.778H57.032V116.176ZM59.3 115.182C60.588 114.818 61.372 114.328 61.862 113.67C62.282 114.272 62.926 114.79 64.004 115.182H59.3ZM64.788 120.866V115.42C65.068 115.49 65.376 115.546 65.712 115.602C65.866 115.196 66.23 114.552 66.538 114.244C63.71 113.908 62.912 113.138 62.618 112.242H64.172C63.99 112.536 63.794 112.802 63.626 113.012L64.914 113.418C65.376 112.9 65.88 112.06 66.244 111.304L65.138 111.024L64.886 111.066H60.756C60.896 110.842 61.008 110.618 61.12 110.38L59.65 110.142C59.286 110.954 58.6 111.878 57.592 112.578C57.97 112.732 58.544 113.068 58.838 113.362C59.272 113.012 59.636 112.634 59.958 112.242H60.966C60.658 113.236 59.916 113.838 57.69 114.202L57.55 112.942C56.066 113.292 54.568 113.642 53.532 113.838L54.148 115.294C55.198 115 56.5 114.622 57.704 114.272L57.69 114.216C57.914 114.44 58.18 114.846 58.348 115.182H55.422V120.866H57.48C56.514 121.342 54.988 121.79 53.63 122.042C53.98 122.336 54.568 122.938 54.862 123.26C56.276 122.868 58.068 122.182 59.23 121.426L57.956 120.866H62.044L60.784 121.594C62.198 122.126 63.626 122.784 64.424 123.246L66.356 122.504C65.404 122.042 63.794 121.37 62.366 120.866H64.788ZM70.29 112.76H78.816V114.37H80.524V111.248H75.4V110.156H73.692V111.248H68.652V114.37H70.29V112.76ZM79.222 115.154C78.718 115.63 77.976 116.204 77.276 116.68C77.052 116.162 76.856 115.616 76.702 115.056H78.298V113.656H70.78V115.056H72.824C71.592 115.686 70.038 116.176 68.54 116.47C68.806 116.792 69.226 117.45 69.394 117.772C70.5 117.478 71.648 117.072 72.712 116.582C72.838 116.694 72.95 116.806 73.062 116.918C72.012 117.632 70.15 118.402 68.736 118.738C69.044 119.06 69.394 119.634 69.576 119.998C70.906 119.536 72.628 118.696 73.818 117.898C73.916 118.052 74 118.22 74.084 118.388C72.698 119.564 70.262 120.712 68.246 121.216C68.554 121.58 68.918 122.182 69.114 122.602C70.864 122 72.936 120.95 74.462 119.83C74.518 120.572 74.322 121.146 74 121.398C73.776 121.65 73.51 121.692 73.16 121.692C72.796 121.692 72.348 121.664 71.816 121.622C72.124 122.084 72.264 122.756 72.292 123.218C72.698 123.246 73.132 123.26 73.482 123.246C74.21 123.246 74.672 123.106 75.19 122.658C76.576 121.65 76.674 118.164 74.042 115.868C74.462 115.616 74.854 115.35 75.204 115.056H75.232C76.03 118.318 77.416 120.894 79.908 122.224C80.174 121.762 80.706 121.104 81.07 120.782C79.754 120.194 78.718 119.2 77.948 117.968C78.76 117.506 79.726 116.876 80.524 116.274L79.222 115.154ZM28.7217 138.828L30.0097 138.282C28.8337 136.238 28.3017 133.886 28.3017 131.576C28.3017 129.294 28.8337 126.928 30.0097 124.884L28.7217 124.338C27.4057 126.494 26.6357 128.79 26.6357 131.576C26.6357 134.39 27.4057 136.658 28.7217 138.828ZM42.5807 126.914L41.1247 126.186C40.8867 126.284 40.1867 126.368 39.8227 126.368H35.3987C34.9227 126.368 34.2787 126.312 33.8307 126.256V128.23C34.3347 128.188 34.8527 128.174 35.4127 128.174H40.2427C40.2147 129.084 39.7247 132.052 39.4587 133.578H33.6767C33.2427 133.578 32.7387 133.536 32.2907 133.466V135.496C32.7667 135.454 33.2567 135.426 33.6767 135.426H43.0147C43.3367 135.426 43.9247 135.44 44.3167 135.496V133.466C43.9527 133.508 43.5047 133.578 43.0147 133.578H41.5027C41.7687 132.01 42.2727 128.818 42.4407 127.544C42.4547 127.432 42.5247 127.11 42.5807 126.914ZM47.1447 129.518V131.716C47.6627 131.674 48.6007 131.646 49.3987 131.646H56.9167C57.5047 131.646 58.2187 131.702 58.5547 131.716V129.518C58.1907 129.546 57.5747 129.602 56.9167 129.602H49.3987C48.6707 129.602 47.6487 129.56 47.1447 129.518ZM71.5813 125.108L70.6433 125.416C70.9093 125.976 71.1613 126.746 71.3573 127.334L72.3233 127.026C72.1693 126.48 71.8473 125.668 71.5813 125.108ZM73.0233 124.66L72.0713 124.968C72.3653 125.514 72.6313 126.27 72.8273 126.872L73.7933 126.564C73.6113 126.032 73.2893 125.22 73.0233 124.66ZM70.3773 130.022V129.56H71.4273C72.1553 129.56 72.6453 129.574 72.9533 129.602V127.74C72.5753 127.81 72.1553 127.838 71.4133 127.838H70.3773V126.368C70.3773 125.808 70.4333 125.36 70.4753 125.066H68.4733C68.5153 125.346 68.5573 125.808 68.5573 126.368V127.838H65.2393V126.466C65.2393 125.906 65.2953 125.458 65.3233 125.192H63.3353C63.3773 125.626 63.4193 126.046 63.4193 126.452V127.838H62.2293C61.5293 127.838 60.9693 127.754 60.7173 127.712V129.616C61.0253 129.602 61.5293 129.56 62.2293 129.56H63.4193V131.464C63.4193 132.094 63.3773 132.654 63.3353 132.934H65.2953C65.2813 132.654 65.2393 132.094 65.2393 131.464V129.56H68.5573V130.092C68.5573 133.536 67.3673 134.74 64.6653 135.692L66.1633 137.106C69.5513 135.608 70.3773 133.494 70.3773 130.022ZM75.9913 129.518V131.716C76.5093 131.674 77.4473 131.646 78.2453 131.646H85.7633C86.3513 131.646 87.0653 131.702 87.4013 131.716V129.518C87.0373 129.546 86.4213 129.602 85.7633 129.602H78.2453C77.5173 129.602 76.4953 129.56 75.9913 129.518ZM91.2653 138.828C92.5953 136.658 93.3653 134.39 93.3653 131.576C93.3653 128.79 92.5953 126.494 91.2653 124.338L89.9913 124.884C91.1673 126.928 91.6993 129.294 91.6993 131.576C91.6993 133.886 91.1673 136.238 89.9913 138.282L91.2653 138.828Z" fill="#151515"/>
<path opacity="0.4" d="M58.3981 95.6689C50.3337 95.6689 43.7962 91.8931 43.7962 87.2353C43.7962 82.5776 50.3337 78.8018 58.3981 78.8018C66.4625 78.8018 73 82.5776 73 87.2353C73 91.8931 66.4625 95.6689 58.3981 95.6689Z" fill="#D6D8E5"/>
<path d="M65.278 85.1212C64.2805 85.9324 62.8132 85.1921 62.7424 85.2693C61.5708 86.351 60.3443 87.3717 59.0678 88.3273C58.4243 88.8166 57.4783 89.4668 57.6585 90.4067C57.9674 92.0805 60.6509 91.5655 61.6677 91.0505C62.6845 90.5355 63.5082 89.6921 64.4671 89.1191C65.1493 88.6942 65.8185 88.4754 65.9279 87.6127C66.018 87.0655 65.4775 85.1019 65.278 85.1212Z" fill="#414345"/>
<path d="M65.9208 87.2344C65.7857 88.0584 65.1228 88.2902 64.4471 88.7086C63.4689 89.3138 62.613 90.1893 61.6027 90.6979C60.5923 91.2065 58.3335 91.6443 57.6771 90.4469C58.031 92.0627 60.6695 91.5542 61.6734 91.0456C62.6774 90.537 63.514 89.6872 64.4728 89.1142C65.155 88.6893 65.8243 88.4704 65.9337 87.6078C65.9394 87.4832 65.9351 87.3583 65.9208 87.2344Z" fill="#202224"/>
<path d="M56.668 81.9064C55.6705 82.7176 53.933 81.8356 53.8557 81.9064C52.8214 82.9575 51.7277 83.9484 50.5801 84.8743C49.9366 85.3571 48.9906 86.0138 49.1643 86.9537C49.4797 88.6276 52.1632 88.1125 53.1736 87.5975C54.1839 87.0825 55.0141 86.2327 55.973 85.6661C56.6551 85.2412 57.3308 85.0224 57.4338 84.1597C57.4982 83.6125 56.8418 81.8871 56.668 81.9064Z" fill="#414345"/>
<path d="M57.4078 83.9023C57.2727 84.7264 56.6098 84.9581 55.9341 85.3766C54.9559 85.9818 54.1 86.8573 53.0897 87.3723C52.0793 87.8874 49.8205 88.3123 49.1641 87.1148C49.518 88.7307 52.1565 88.2286 53.1604 87.72C54.1644 87.2114 54.9945 86.3552 55.9534 85.7564C56.642 85.3315 57.3113 85.1126 57.4207 84.25C57.4251 84.1339 57.4208 84.0177 57.4078 83.9023Z" fill="#202224"/>
<path d="M65.3601 48.3705C65.3086 49.877 64.8452 56.4178 64.6329 59.8749C64.4205 63.332 64.3755 67.6003 64.3755 67.6003C64.3755 67.6003 64.9739 70.1175 65.3601 73.0854C65.7462 76.0532 65.3601 85.401 65.3601 85.401C64.977 85.6501 64.5299 85.7826 64.073 85.7826C63.6161 85.7826 63.169 85.6501 62.7859 85.401C62.7859 85.401 61.1899 77.9138 60.4563 74.5403C59.7227 71.1669 59.5875 69.2227 59.2078 67.1368C58.7445 64.6067 57.747 52.8062 57.747 52.8062H57.348L56.2797 66.1261C56.6095 67.1084 56.8359 68.1225 56.9554 69.1519C57.245 71.3214 56.6465 82.24 56.6465 82.24C56.2214 82.4766 55.7391 82.591 55.253 82.5705C54.7669 82.5501 54.296 82.3956 53.8922 82.1241C53.8922 82.1241 51.2344 67.6647 51.2344 65.4694C51.2344 64.008 51.4789 44.8232 51.4789 44.8232L65.3601 48.3705Z" fill="#E2DEFC"/>
<path d="M61.7509 19.2734C61.7509 19.2734 61.5836 22.5567 61.6544 22.8464C61.7252 23.1361 63.1603 24.0954 63.585 24.443C64.0097 24.7907 61.3133 27.4173 60.0069 28.0611C58.7005 28.7049 54.5626 27.0825 54.4918 25.0482C54.421 23.0138 55.1997 21.3078 55.8303 21.2177C56.461 21.1275 61.7509 19.2734 61.7509 19.2734Z" fill="#F7E5D0"/>
<path d="M52.7663 25.3692C52.5732 23.9207 53.5256 22.543 52.6054 21.3906C49.3877 24.5709 49.7738 32.9787 49.0402 38.3543C46.6333 40.8651 41.8004 43.3437 40.4425 43.9553C40.1979 44.0711 39.9791 44.1935 40.0306 44.4574C40.2127 45.3527 40.598 46.1941 41.1568 46.9167C44.3745 45.539 46.6591 44.7471 50.6555 40.9488C51.034 40.5379 51.3723 40.0916 51.6658 39.6162C52.8049 36.1912 53.0945 27.8671 52.7663 25.3692Z" fill="#F7E5D0"/>
<path d="M62.1184 23.4168C62.1184 23.4168 59.7373 26.9641 56.4167 27.2795C55.3677 26.2495 55.2776 22.5735 56.7256 21.3953C56.7256 21.3953 55.3934 20.3202 54.4796 20.5262C53.4897 21.1232 52.7525 22.0622 52.4074 23.1658C51.5657 25.6074 51.169 28.1805 51.2362 30.7624C51.2941 34.2453 51.2362 44.887 51.2362 44.887C51.2362 44.887 51.6995 47.1338 54.7048 48.8077C57.7102 50.4815 59.9433 50.6489 61.9833 50.1725C63.6629 49.7798 65.053 49.1875 65.6321 47.9708C65.4777 45.5244 64.3901 39.1573 64.7955 36.0865C65.201 33.0156 65.851 30.7302 66.0183 28.2452C66.1856 25.7602 65.6965 25.8117 64.448 24.9297C63.7093 24.3694 62.9307 23.8638 62.1184 23.4168Z" fill="#4D27F2"/>
<path d="M54.3366 14.3826C54.7292 11.8075 56.5633 9.87611 59.1953 10.0499C60.2513 10.1058 61.2631 10.4918 62.0881 11.1534C62.9132 11.815 63.5099 12.719 63.7942 13.7379C64.0785 14.7567 64.036 15.8392 63.6728 16.8326C63.3096 17.8261 62.6439 18.6805 61.7695 19.2754C61.6787 19.6613 61.5426 20.0351 61.3641 20.3891C60.4374 21.4771 57.6251 22.1466 56.8207 22.0308C56.3397 21.9927 55.8813 21.8109 55.5049 21.509C55.1286 21.2071 54.8515 20.799 54.7099 20.3376C53.8346 18.3161 54.1114 15.638 54.3366 14.3826Z" fill="#F7E5D0"/>
<path d="M61.7511 19.2781L61.513 17.0506C61.513 17.0506 63.3471 12.351 59.0353 13.2587C56.2038 13.8574 55.4959 14.115 54.6335 12.2158C53.7712 10.3166 56.8087 8.60416 60.4254 9.08056C61.6681 9.21097 62.8167 9.8033 63.6437 10.7404C64.4708 11.6774 64.9161 12.8909 64.8916 14.1407C64.7886 15.5313 64.4153 18.3639 61.7511 19.2781Z" fill="#414345"/>
<path d="M66.7784 26.7759C65.5364 26.4219 66.4824 26.7116 65.5364 26.4219C62.3187 29.5957 62.6983 35.0421 61.9647 40.4177C60.1757 43.3856 53.5408 47.3771 53.5408 47.3771C53.4571 47.95 53.6566 48.1174 54.3774 49.3084C58.0707 47.8916 61.43 45.7235 64.2428 42.9414C64.4037 42.7933 64.6354 42.7482 64.6997 42.5487C65.8388 39.098 67.1066 29.2803 66.7784 26.7759Z" fill="#F7E5D0"/>
<path d="M37.2514 33.417L42.0715 49.9107L52.6578 54.1404L48.7965 38.0716L37.2514 33.417Z" fill="#F7F7F7"/>
<path d="M55.2057 47.5175C55.0513 46.9509 54.6459 47.0926 54.1825 47.2342C53.6867 47.4357 53.1417 47.4829 52.6187 47.3694C52.2117 47.1699 51.8348 46.9142 51.499 46.6097C51.2853 46.4805 51.0407 46.4116 50.7911 46.4102C50.7911 46.5518 51.0356 47.3887 51.0356 47.3887C51.0356 47.3887 48.7124 47.3887 48.4614 47.3887C48.3814 47.3741 48.2989 47.3848 48.2252 47.4191C48.1515 47.4535 48.0903 47.5099 48.05 47.5806C48.0098 47.6513 47.9924 47.7327 48.0004 47.8136C48.0084 47.8946 48.0413 47.9711 48.0946 48.0325H47.9337C47.464 47.9295 47.2902 48.6763 47.7342 48.7664L48.1204 48.8243C47.8115 48.9467 47.7342 49.4681 48.1204 49.5325H48.2426C48.298 49.5419 48.3546 49.5419 48.41 49.5325H48.5451C48.533 49.5877 48.5326 49.6448 48.5439 49.7002C48.5552 49.7556 48.578 49.808 48.6107 49.8541C48.6434 49.9001 48.6854 49.9388 48.7339 49.9677C48.7825 49.9966 48.8365 50.015 48.8926 50.0218C50.0252 50.1699 51.692 50.6205 52.7152 49.687C53.4258 49.619 54.1198 49.4319 54.7681 49.1334C55.3795 48.8244 55.3988 48.187 55.2057 47.5175Z" fill="#F7E5D0"/>
<path d="M43.6354 46.1637H43.4745C43.5417 46.1163 43.5919 46.0487 43.6179 45.9707C43.644 45.8927 43.6445 45.8085 43.6194 45.7302C43.5942 45.6519 43.5448 45.5837 43.4782 45.5355C43.4117 45.4872 43.3315 45.4615 43.2493 45.462C43.0112 45.462 40.6237 44.9599 40.6237 44.9599L40.3341 43.9813C40.3341 43.9234 39.9222 44.1745 39.9093 44.1873C39.7064 44.3178 39.536 44.4929 39.4111 44.6994C39.2862 44.9058 39.2101 45.138 39.1886 45.3783C39.1764 45.7165 39.2309 46.0537 39.3491 46.3707C39.4672 46.6878 39.6467 46.9784 39.8772 47.226C40.3013 47.6469 40.8695 47.8908 41.4667 47.9084C41.7563 47.9084 42.033 47.9406 42.284 47.9664C42.3405 47.9698 42.3972 47.9618 42.4505 47.9428C42.5038 47.9237 42.5527 47.894 42.5942 47.8555C42.6358 47.817 42.669 47.7704 42.692 47.7186C42.715 47.6669 42.7273 47.611 42.728 47.5543H42.8053C42.8599 47.5701 42.9179 47.5701 42.9726 47.5543H43.0949C43.5003 47.5543 43.5325 47.0522 43.2557 46.8719H43.6483C44.1631 46.917 44.1181 46.1573 43.6354 46.1637Z" fill="#F7E5D0"/>
<path d="M51.4156 27.5191C50.7636 27.4896 50.1472 27.2135 49.691 26.7465C49.781 25.5233 51.3384 20.8945 54.4789 20.5469C53.6369 21.1515 52.9706 21.9691 52.5483 22.916C52.0547 24.4194 51.6761 25.9582 51.4156 27.5191Z" fill="#4D27F2"/>
<path d="M67.3426 33.6345C67.3426 33.6345 64.2214 34.716 62.0205 32.9006C61.776 32.4885 63.3076 27.1709 63.3076 27.1709C63.3076 27.1709 64.5947 24.4541 66.6669 25.5357C68.7391 26.6172 67.3426 33.6345 67.3426 33.6345Z" fill="#4D27F2"/>
<path d="M58.29 318.751L28 301.26V228.492L58.29 245.983V318.751Z" fill="#E2DEFC"/>
<path d="M58.29 245.982L28 228.491L58.29 211L88.591 228.491L58.29 245.982Z" fill="#FEFEFF"/>
<path d="M52.8452 261.029L33.4557 249.834V240.035L52.8452 251.23V261.029Z" fill="#4D27F2"/>
<path d="M88.5907 301.26L58.2898 318.751V245.994L88.5907 228.492V301.26Z" fill="#E2DEFC"/>
<path d="M71.0124 256.827L63.7454 261.027V251.229L71.0124 247.039V256.827Z" fill="#4D27F2"/>
<path d="M83.1354 249.834L75.8684 254.034V244.236L83.1354 240.035V249.834Z" fill="#4D27F2"/>
<path d="M71.0125 271.526L63.7455 275.727V265.928L71.0125 261.728V271.526Z" fill="#4D27F2"/>
<path d="M83.1354 264.533L75.8684 268.723V258.935L83.1354 254.734V264.533Z" fill="#4D27F2"/>
<path d="M71.0124 286.224L63.7454 290.414V280.627L71.0124 276.426V286.224Z" fill="#4D27F2"/>
<path d="M83.1354 279.218L75.8684 283.419V273.621L83.1354 269.431V279.218Z" fill="#4D27F2"/>
<path d="M71.0125 301.608L63.7455 305.809V296.01L71.0125 291.82V301.608Z" fill="#4D27F2"/>
<path d="M83.1354 294.614L75.8684 298.815V289.016L83.1354 284.815V294.614Z" fill="#4D27F2"/>
<path d="M52.8454 275.717L33.4558 264.522V254.734L52.8454 265.919V275.717Z" fill="#4D27F2"/>
<path d="M52.8454 290.411L33.4558 279.216V269.418L52.8454 280.613V290.411Z" fill="#4D27F2"/>
<path d="M52.8452 305.809L33.4557 294.614V284.815L52.8452 296.011V305.809Z" fill="#4D27F2"/>
<path d="M58.2904 238.288L40.8103 228.195V225.074L58.2904 235.167V238.288Z" fill="#E2DEFC"/>
<path d="M58.2898 238.288L75.7808 228.195V225.074L58.2898 235.167V238.288Z" fill="#E2DEFC"/>
<path d="M156.002 86C156.002 85.4477 156.45 85 157.002 85L275.002 85C275.554 85 276.002 85.4477 276.002 86C276.002 86.5523 275.554 87 275.002 87L157.002 87C156.45 87 156.002 86.5523 156.002 86Z" fill="#BEAFFD"/>
<path d="M146 86L159 79L159 93L146 86Z" fill="#5C38FA"/>
<path d="M376 179C376.552 179 377 179.448 377 180L377 241C377 241.552 376.552 242 376 242C375.448 242 375 241.552 375 241L375 180C375 179.448 375.448 179 376 179Z" fill="#BEAFFD"/>
<path d="M376.001 169L383.001 182L369.001 182L376.001 169Z" fill="#5C38FA"/>
<path d="M266 110C266 110.552 265.552 111 265 111L147 111C146.448 111 146 110.552 146 110C146 109.448 146.448 109 147 109L265 109C265.552 109 266 109.448 266 110Z" fill="#BEAFFD"/>
<path d="M276 110L263 117L263 103L276 110Z" fill="#5C38FA"/>
<path d="M352 235C351.448 235 351 234.552 351 234L351 170C351 169.448 351.448 169 352 169C352.552 169 353 169.448 353 170L353 234C353 234.552 352.552 235 352 235Z" fill="#BEAFFD"/>
<path d="M352.001 245L345.001 232L359.001 232L352.001 245Z" fill="#5C38FA"/>
<path d="M218.672 47.822L221.29 47.822L221.29 50.188C221.29 51.168 221.542 51.42 222.424 51.42L223.446 51.42C224.23 51.42 224.482 50.986 224.552 49.292C224.286 49.222 223.88 49.068 223.684 48.9C223.656 50.342 223.6 50.552 223.334 50.552L222.578 50.552C222.326 50.552 222.284 50.496 222.284 50.174L222.284 46.842L217.692 46.842L217.692 48.242C217.692 49.208 217.468 50.398 216.082 51.28C216.278 51.406 216.642 51.812 216.782 52.022C218.322 51 218.672 49.474 218.672 48.256L218.672 47.822ZM216.166 52.372L214.724 52.806L214.724 50.006L216.278 50.006L216.278 49.04L214.724 49.04L214.724 46.296L213.702 46.296L213.702 49.04L211.686 49.04L211.686 50.006L213.702 50.006L213.702 53.114C212.862 53.366 212.106 53.59 211.504 53.744L211.854 54.808C212.414 54.626 213.044 54.402 213.702 54.178L213.702 57.846C213.702 58.056 213.632 58.112 213.45 58.112C213.268 58.126 212.694 58.126 212.064 58.112C212.19 58.364 212.344 58.798 212.372 59.05C213.31 59.064 213.87 59.036 214.22 58.882C214.598 58.714 214.724 58.42 214.724 57.846L214.724 53.828C215.242 53.646 215.76 53.464 216.278 53.282L216.166 52.372ZM222.172 53.254C221.71 54.318 221.01 55.228 220.17 55.956C219.344 55.2 218.714 54.29 218.294 53.254L222.172 53.254ZM222.872 52.26L222.676 52.302L216.866 52.302L216.866 53.254L218.084 53.254L217.328 53.478C217.818 54.696 218.49 55.732 219.344 56.586C218.238 57.328 216.95 57.846 215.606 58.154C215.816 58.364 216.054 58.812 216.166 59.078C217.594 58.7 218.952 58.126 220.128 57.286C221.178 58.098 222.438 58.7 223.908 59.064C224.062 58.784 224.37 58.35 224.594 58.14C223.194 57.846 221.976 57.328 220.968 56.614C222.116 55.578 223.026 54.248 223.544 52.54L222.872 52.26ZM233.288 48.088C232.952 49.362 232.112 50.062 229.83 50.468C229.998 50.65 230.236 50.986 230.32 51.21C232.308 50.818 233.344 50.16 233.89 49.124C234.408 50.132 235.43 51.028 237.81 51.448C237.908 51.196 238.146 50.804 238.342 50.608C235.472 50.188 234.688 49.166 234.38 48.088L236.62 48.088C236.368 48.494 236.06 48.886 235.766 49.166L236.592 49.46C237.096 48.97 237.614 48.186 238.006 47.472L237.306 47.262L237.138 47.304L232.35 47.304C232.532 47.01 232.686 46.73 232.826 46.436L231.888 46.282C231.524 47.122 230.824 48.06 229.774 48.788C230.026 48.886 230.362 49.11 230.558 49.306C231.048 48.928 231.454 48.522 231.804 48.088L233.288 48.088ZM228.57 55.172L235.584 55.172L235.584 56.152L228.57 56.152L228.57 55.172ZM228.57 53.534L235.584 53.534L235.584 54.5L228.57 54.5L228.57 53.534ZM228.57 51.924L235.584 51.924L235.584 52.862L228.57 52.862L228.57 51.924ZM227.562 56.838L236.62 56.838L236.62 51.224L227.562 51.224L227.562 56.838ZM229.774 47.668C229.102 47.318 227.814 46.856 226.848 46.59L226.386 47.304C227.38 47.612 228.668 48.102 229.312 48.48L229.774 47.668ZM229.606 49.194C228.178 49.586 226.708 50.006 225.7 50.244L226.106 51.154C227.156 50.818 228.472 50.412 229.732 50.006L229.606 49.194ZM229.9 56.978C228.906 57.538 227.226 58.028 225.798 58.322C226.036 58.504 226.386 58.91 226.568 59.106C227.954 58.728 229.704 58.084 230.838 57.426L229.9 56.978ZM233.162 57.552C234.688 58.056 236.2 58.644 237.068 59.092L238.216 58.574C237.194 58.112 235.528 57.51 234.016 57.02L233.162 57.552Z" fill="black"/>
<circle cx="197.5" cy="53.5" r="8.5" fill="#5C38FA"/>
<path d="M195.297 50.719L195.297 48.97L198.344 48.97L198.344 57L196.386 57L196.386 50.719L195.297 50.719Z" fill="white"/>
<path d="M176.108 137.005L175.341 137.005L175.341 135.497L176.108 135.497L176.108 137.005ZM177.473 140.437L177.421 140.398C177.408 140.437 177.369 140.437 177.239 140.437L176.771 140.437C176.602 140.437 176.589 140.424 176.589 140.255L176.589 137.824L177.473 137.824L177.473 140.437ZM173.885 144.272L173.885 142.933L177.473 142.933L177.473 144.272L173.885 144.272ZM174.782 137.824L174.782 138.851C174.782 139.54 174.652 140.385 173.898 141.048C174.015 141.113 174.236 141.308 174.327 141.425C175.133 140.684 175.315 139.657 175.315 138.864L175.315 137.824L176.043 137.824L176.043 140.255C176.043 140.879 176.199 141.009 176.706 141.009L177.33 141.009C177.382 141.009 177.434 141.009 177.473 140.996L177.473 142.205L173.885 142.205L173.885 137.824L174.782 137.824ZM172.78 135.497L174.652 135.497L174.652 137.005L173.105 137.005L173.105 145.949L173.885 145.949L173.885 145.052L177.473 145.052L177.473 145.767L178.266 145.767L178.266 137.005L176.81 137.005L176.81 135.497L178.565 135.497L178.565 134.626L172.78 134.626L172.78 135.497ZM180.905 144.948C180.307 144.948 180.19 144.857 180.19 144.376L180.19 139.696L183.115 139.696L183.115 140.567L184.064 140.567L184.064 134.704L179.189 134.704L179.189 135.64L183.115 135.64L183.115 138.773L179.241 138.773L179.241 144.376C179.241 145.559 179.605 145.858 180.801 145.858L182.959 145.858C184.142 145.858 184.415 145.273 184.545 143.167C184.272 143.102 183.869 142.92 183.648 142.751C183.583 144.623 183.479 144.948 182.907 144.948L180.905 144.948ZM195.4 134.574C195.01 135.575 194.295 136.953 193.723 137.798L194.555 138.136C195.14 137.291 195.868 136.03 196.414 134.925L195.4 134.574ZM189.199 137.642C188.9 136.823 188.198 135.601 187.47 134.691L186.625 135.042C187.301 135.952 188.003 137.213 188.276 138.045L189.199 137.642ZM192.007 134.119L190.967 134.119L190.967 138.695L186.794 138.695L186.794 139.644L195.244 139.644L195.244 141.529L187.223 141.529L187.223 142.465L195.244 142.465L195.244 144.48L186.547 144.48L186.547 145.429L195.244 145.429L195.244 146.001L196.245 146.001L196.245 138.695L192.007 138.695L192.007 134.119ZM204.5 138.682C203.733 138.682 203.122 139.293 203.122 140.06C203.122 140.827 203.733 141.438 204.5 141.438C205.267 141.438 205.878 140.827 205.878 140.06C205.878 139.293 205.267 138.682 204.5 138.682ZM222.115 135.146L212.963 135.146L212.963 136.069L222.115 136.069L222.115 135.146ZM220.165 144.844C219.658 144.844 219.554 144.753 219.554 144.311L219.554 139.696L223.207 139.696L223.207 138.76L211.832 138.76L211.832 139.696L215.121 139.696C214.926 142.127 214.445 144.155 211.676 145.208C211.897 145.377 212.17 145.728 212.287 145.962C215.277 144.753 215.901 142.478 216.148 139.696L218.579 139.696L218.579 144.324C218.579 145.429 218.891 145.767 220.048 145.767L221.907 145.767C223.038 145.767 223.298 145.156 223.402 142.946C223.142 142.868 222.726 142.699 222.505 142.517C222.44 144.506 222.362 144.844 221.842 144.844L220.165 144.844ZM236.142 137.811L236.142 136.849L230.994 136.849L230.994 134.132L229.993 134.132L229.993 136.849L224.884 136.849L224.884 137.811L229.395 137.811C228.303 140.034 226.418 142.14 224.442 143.167C224.663 143.349 224.988 143.713 225.131 143.947C227.042 142.842 228.797 140.879 229.993 138.63L229.993 142.608L227.458 142.608L227.458 143.57L229.993 143.57L229.993 145.988L230.994 145.988L230.994 143.57L233.464 143.57L233.464 142.608L230.994 142.608L230.994 138.63C232.164 140.879 233.906 142.855 235.869 143.934C236.012 143.661 236.35 143.284 236.584 143.089C234.543 142.101 232.671 140.034 231.592 137.811L236.142 137.811ZM241.004 135.913L241.004 137.863L241.849 137.863L241.849 136.628L248.336 136.628L248.336 137.863L249.207 137.863L249.207 135.913L247.465 135.913C247.764 135.523 248.102 135.029 248.427 134.561L247.517 134.275C247.322 134.717 246.958 135.367 246.659 135.783L246.971 135.913L245.58 135.913L245.58 134.223L244.644 134.223L244.644 135.913L243.305 135.913L243.617 135.783C243.461 135.367 243.11 134.756 242.746 134.301L242.018 134.561C242.317 134.964 242.603 135.497 242.759 135.913L241.004 135.913ZM242.538 142.777L247.647 142.777L247.647 143.453L242.538 143.453L242.538 142.777ZM242.538 141.581L247.647 141.581L247.647 142.244L242.538 142.244L242.538 141.581ZM242.538 140.398L247.647 140.398L247.647 141.048L242.538 141.048L242.538 140.398ZM241.654 144.051L248.57 144.051L248.57 139.8L241.654 139.8L241.654 144.051ZM247.023 138.669L243.136 138.669L243.136 137.863L247.023 137.863L247.023 138.669ZM242.265 137.291L242.265 139.241L247.92 139.241L247.92 137.291L242.265 137.291ZM240.471 134.171C239.73 136.147 238.534 138.084 237.26 139.332C237.442 139.54 237.702 140.047 237.806 140.268C238.261 139.8 238.703 139.267 239.119 138.669L239.119 145.962L240.029 145.962L240.029 137.252C240.549 136.355 241.004 135.406 241.368 134.444L240.471 134.171ZM243.617 144.155C242.928 144.584 241.693 145.091 240.575 145.351C240.757 145.507 241.004 145.806 241.134 145.988C242.252 145.702 243.526 145.195 244.332 144.636L243.617 144.155ZM245.762 144.74C246.906 145.117 248.089 145.624 248.791 146.014L249.519 145.429C248.752 145.026 247.478 144.532 246.334 144.168L245.762 144.74ZM260.712 136.342L259.36 136.342L259.36 135.133L260.712 135.133L260.712 136.342ZM258.593 136.342L257.254 136.342L257.254 135.133L258.593 135.133L258.593 136.342ZM256.474 136.342L255.187 136.342L255.187 135.133L256.474 135.133L256.474 136.342ZM261.583 134.509L254.355 134.509L254.355 136.966L261.583 136.966L261.583 134.509ZM262.272 137.577L253.653 137.577L253.653 138.305L262.272 138.305L262.272 137.577ZM255.655 139.514L260.244 139.514L260.244 140.619L255.655 140.619L255.655 139.514ZM258.255 141.243L258.268 141.23L260.933 141.23C260.53 141.607 259.997 142.049 259.542 142.374C259.022 142.049 258.58 141.685 258.255 141.295L258.255 141.243ZM258.255 144.441L258.255 142.322C259.165 143.154 260.413 143.817 261.687 144.142C261.817 143.921 262.051 143.583 262.246 143.401C261.531 143.258 260.816 143.024 260.179 142.712C260.738 142.361 261.375 141.88 261.921 141.412L261.232 140.944L261.193 140.983L261.193 138.903L254.758 138.903L254.758 141.23L257.137 141.23C256.266 142.01 255.031 142.673 253.848 143.115C254.03 143.284 254.303 143.648 254.433 143.83C255.421 143.414 256.461 142.803 257.345 142.088L257.345 144.441L258.255 144.441ZM253.601 136.563C253.198 135.926 252.301 135.042 251.508 134.444L250.767 134.99C251.56 135.614 252.431 136.511 252.821 137.161L253.601 136.563ZM253.211 139.215L250.65 139.215L250.65 140.125L252.301 140.125L252.301 143.453C251.716 143.999 251.053 144.545 250.507 144.948L251.014 145.871C251.651 145.312 252.249 144.766 252.821 144.207C253.627 145.221 254.797 145.676 256.5 145.741C257.956 145.806 260.699 145.78 262.155 145.715C262.194 145.429 262.35 144.987 262.467 144.766C260.907 144.87 257.917 144.909 256.487 144.844C254.966 144.792 253.822 144.35 253.211 143.388L253.211 139.215Z" fill="black"/>
<circle cx="158.5" cy="140.5" r="8.5" fill="#5C38FA"/>
<path d="M154.539 142.57L154.539 141.052L158.015 136.08L160.116 136.08L160.116 140.942L161.018 140.942L161.018 142.57L160.116 142.57L160.116 144L158.235 144L158.235 142.57L154.539 142.57ZM158.367 138.148L156.519 140.942L158.367 140.942L158.367 138.148Z" fill="white"/>
<path d="M264.145 223.199C264.437 223.668 264.293 224.284 263.824 224.576L163.627 286.903C163.158 287.194 162.542 287.051 162.25 286.582C161.958 286.113 162.102 285.496 162.571 285.204L262.768 222.878C263.237 222.586 263.853 222.73 264.145 223.199Z" fill="#BEAFFD"/>
<path d="M272.638 217.916L265.297 230.726L257.902 218.838L272.638 217.916Z" fill="#5C38FA"/>
<path d="M155.16 256.061C154.884 255.583 155.048 254.971 155.526 254.695L257.717 195.695C258.196 195.419 258.807 195.583 259.083 196.061C259.36 196.54 259.196 197.151 258.717 197.427L156.526 256.427C156.048 256.704 155.436 256.54 155.16 256.061Z" fill="#BEAFFD"/>
<path d="M146.5 261.063L154.258 248.501L161.258 260.625L146.5 261.063Z" fill="#5C38FA"/>
<path d="M243.944 269.108C243.37 268.8 242.306 268.45 241.494 268.282L240.99 268.828C241.83 269.038 242.866 269.416 243.412 269.71L243.944 269.108ZM236.818 270.158L236.916 270.97L239.744 270.802C240.78 272.202 242.418 273.056 243.832 273.056C244.7 273.056 245.064 272.734 245.204 271.474C244.938 271.404 244.616 271.264 244.406 271.096C244.35 271.894 244.238 272.132 243.874 272.132C242.936 272.146 241.788 271.628 240.934 270.732L245.05 270.48L244.966 269.668L240.318 269.948C239.996 269.458 239.772 268.898 239.688 268.282L238.722 268.282C238.806 268.912 238.988 269.486 239.254 270.018L236.818 270.158ZM235.586 277.172L242.6 277.172L242.6 278.152L235.586 278.152L235.586 277.172ZM235.586 275.534L242.6 275.534L242.6 276.5L235.586 276.5L235.586 275.534ZM235.586 273.924L242.6 273.924L242.6 274.862L235.586 274.862L235.586 273.924ZM234.578 278.838L243.636 278.838L243.636 273.224L234.578 273.224L234.578 278.838ZM235.222 272.832L236.216 272.832L236.216 269.906C236.72 269.486 237.182 269.038 237.56 268.576L236.622 268.226C235.67 269.36 234.046 270.424 232.52 271.096C232.758 271.264 233.136 271.642 233.29 271.838C233.92 271.516 234.578 271.124 235.222 270.676L235.222 272.832ZM236.902 278.978C235.908 279.538 234.228 280.028 232.8 280.322C233.038 280.504 233.388 280.91 233.57 281.106C234.956 280.728 236.706 280.084 237.84 279.426L236.902 278.978ZM240.164 279.552C241.69 280.056 243.202 280.644 244.07 281.092L245.218 280.574C244.196 280.112 242.53 279.51 241.018 279.02L240.164 279.552ZM250.146 268.38C249.348 270.55 248.018 272.678 246.59 274.036C246.786 274.274 247.108 274.82 247.234 275.058C247.71 274.568 248.2 273.994 248.648 273.364L248.648 281.036L249.684 281.036L249.684 271.754C250.258 270.788 250.748 269.752 251.168 268.702L250.146 268.38ZM259.316 271.39L257.538 271.39L257.538 268.45L256.488 268.45L256.488 271.39L250.846 271.39L250.846 272.426L256.488 272.426L256.488 279.65C256.488 279.972 256.362 280.056 256.054 280.084C255.718 280.098 254.57 280.098 253.394 280.056C253.548 280.336 253.744 280.812 253.8 281.078C255.312 281.092 256.25 281.078 256.796 280.91C257.314 280.756 257.538 280.434 257.538 279.65L257.538 272.426L259.316 272.426L259.316 271.39ZM254.724 277.284C254.276 276.43 253.352 274.974 252.624 273.896L251.728 274.316C252.442 275.436 253.338 276.934 253.758 277.802L254.724 277.284Z" fill="black"/>
<circle cx="218.5" cy="275.5" r="8.5" fill="#5C38FA"/>
<path d="M215.431 277.493C215.68 277.295 215.794 277.203 215.772 277.218C216.491 276.624 217.055 276.136 217.466 275.755C217.884 275.374 218.236 274.974 218.522 274.556C218.808 274.138 218.951 273.731 218.951 273.335C218.951 273.034 218.881 272.8 218.742 272.631C218.603 272.462 218.394 272.378 218.115 272.378C217.836 272.378 217.616 272.484 217.455 272.697C217.301 272.902 217.224 273.196 217.224 273.577L215.409 273.577C215.424 272.954 215.556 272.433 215.805 272.015C216.062 271.597 216.395 271.289 216.806 271.091C217.224 270.893 217.686 270.794 218.192 270.794C219.065 270.794 219.721 271.018 220.161 271.465C220.608 271.912 220.832 272.495 220.832 273.214C220.832 273.999 220.564 274.728 220.029 275.403C219.494 276.07 218.812 276.723 217.983 277.361L220.953 277.361L220.953 278.89L215.431 278.89L215.431 277.493Z" fill="white"/>
<path d="M135.342 207.627C136.213 207.432 137.032 207.198 137.682 206.938L136.967 206.197C135.758 206.73 133.496 207.172 131.598 207.458C131.715 207.666 131.858 207.991 131.897 208.225C132.703 208.108 133.561 207.978 134.406 207.822L134.406 210.019L131.689 210.019L131.689 210.903L134.211 210.903C133.574 212.515 132.443 214.309 131.403 215.297C131.572 215.531 131.819 215.934 131.936 216.194C132.82 215.31 133.73 213.841 134.406 212.359L134.406 217.962L135.342 217.962L135.342 212.84C136.005 213.451 136.837 214.283 137.227 214.712L137.786 213.919C137.409 213.581 135.927 212.307 135.342 211.852L135.342 210.903L137.825 210.903L137.825 210.019L135.342 210.019L135.342 207.627ZM139.632 207.666L138.696 207.666L138.696 214.777L139.632 214.777L139.632 207.666ZM141.868 206.379L141.868 216.714C141.868 216.961 141.764 217.039 141.53 217.039C141.283 217.052 140.464 217.052 139.554 217.026C139.71 217.299 139.853 217.741 139.905 218.001C141.088 218.001 141.816 217.975 142.245 217.832C142.648 217.663 142.83 217.364 142.83 216.701L142.83 206.379L141.868 206.379ZM153.594 209.005L147.562 209.005L147.562 207.952L153.594 207.952L153.594 209.005ZM153.594 210.825L147.562 210.825L147.562 209.746L153.594 209.746L153.594 210.825ZM153.594 212.632L147.562 212.632L147.562 211.553L153.594 211.553L153.594 212.632ZM154.569 207.185L150.643 207.185C150.812 206.886 150.994 206.535 151.176 206.184L150.058 205.989C149.967 206.314 149.785 206.795 149.629 207.185L146.626 207.185L146.626 213.399L154.569 213.399L154.569 207.185ZM149.239 214.049C149.993 214.582 150.825 215.362 151.202 215.947L151.943 215.388C151.553 214.803 150.708 214.062 149.954 213.568L149.239 214.049ZM145.313 217.559C146.171 216.857 146.678 215.739 146.99 214.725L146.158 214.413C145.872 215.349 145.326 216.402 144.533 217.013L145.313 217.559ZM149.668 217.052C148.966 217.052 148.862 216.987 148.862 216.649L148.862 214.517L147.913 214.517L147.913 216.649C147.913 217.65 148.264 217.91 149.603 217.91L152.125 217.91C153.204 217.91 153.49 217.572 153.62 216.142C153.36 216.077 152.957 215.947 152.736 215.804C152.697 216.896 152.606 217.052 152.06 217.052L149.668 217.052ZM153.412 214.764C154.348 215.583 155.323 216.753 155.726 217.559L156.545 217.026C156.129 216.194 155.115 215.076 154.166 214.283L153.412 214.764ZM163.5 210.682C162.733 210.682 162.122 211.293 162.122 212.06C162.122 212.827 162.733 213.438 163.5 213.438C164.267 213.438 164.878 212.827 164.878 212.06C164.878 211.293 164.267 210.682 163.5 210.682ZM181.115 207.146L171.963 207.146L171.963 208.069L181.115 208.069L181.115 207.146ZM179.165 216.844C178.658 216.844 178.554 216.753 178.554 216.311L178.554 211.696L182.207 211.696L182.207 210.76L170.832 210.76L170.832 211.696L174.121 211.696C173.926 214.127 173.445 216.155 170.676 217.208C170.897 217.377 171.17 217.728 171.287 217.962C174.277 216.753 174.901 214.478 175.148 211.696L177.579 211.696L177.579 216.324C177.579 217.429 177.891 217.767 179.048 217.767L180.907 217.767C182.038 217.767 182.298 217.156 182.402 214.946C182.142 214.868 181.726 214.699 181.505 214.517C181.44 216.506 181.362 216.844 180.842 216.844L179.165 216.844ZM195.142 209.811L195.142 208.849L189.994 208.849L189.994 206.132L188.993 206.132L188.993 208.849L183.884 208.849L183.884 209.811L188.395 209.811C187.303 212.034 185.418 214.14 183.442 215.167C183.663 215.349 183.988 215.713 184.131 215.947C186.042 214.842 187.797 212.879 188.993 210.63L188.993 214.608L186.458 214.608L186.458 215.57L188.993 215.57L188.993 217.988L189.994 217.988L189.994 215.57L192.464 215.57L192.464 214.608L189.994 214.608L189.994 210.63C191.164 212.879 192.906 214.855 194.869 215.934C195.012 215.661 195.35 215.284 195.584 215.089C193.543 214.101 191.671 212.034 190.592 209.811L195.142 209.811ZM200.004 207.913L200.004 209.863L200.849 209.863L200.849 208.628L207.336 208.628L207.336 209.863L208.207 209.863L208.207 207.913L206.465 207.913C206.764 207.523 207.102 207.029 207.427 206.561L206.517 206.275C206.322 206.717 205.958 207.367 205.659 207.783L205.971 207.913L204.58 207.913L204.58 206.223L203.644 206.223L203.644 207.913L202.305 207.913L202.617 207.783C202.461 207.367 202.11 206.756 201.746 206.301L201.018 206.561C201.317 206.964 201.603 207.497 201.759 207.913L200.004 207.913ZM201.538 214.777L206.647 214.777L206.647 215.453L201.538 215.453L201.538 214.777ZM201.538 213.581L206.647 213.581L206.647 214.244L201.538 214.244L201.538 213.581ZM201.538 212.398L206.647 212.398L206.647 213.048L201.538 213.048L201.538 212.398ZM200.654 216.051L207.57 216.051L207.57 211.8L200.654 211.8L200.654 216.051ZM206.023 210.669L202.136 210.669L202.136 209.863L206.023 209.863L206.023 210.669ZM201.265 209.291L201.265 211.241L206.92 211.241L206.92 209.291L201.265 209.291ZM199.471 206.171C198.73 208.147 197.534 210.084 196.26 211.332C196.442 211.54 196.702 212.047 196.806 212.268C197.261 211.8 197.703 211.267 198.119 210.669L198.119 217.962L199.029 217.962L199.029 209.252C199.549 208.355 200.004 207.406 200.368 206.444L199.471 206.171ZM202.617 216.155C201.928 216.584 200.693 217.091 199.575 217.351C199.757 217.507 200.004 217.806 200.134 217.988C201.252 217.702 202.526 217.195 203.332 216.636L202.617 216.155ZM204.762 216.74C205.906 217.117 207.089 217.624 207.791 218.014L208.519 217.429C207.752 217.026 206.478 216.532 205.334 216.168L204.762 216.74ZM219.712 208.342L218.36 208.342L218.36 207.133L219.712 207.133L219.712 208.342ZM217.593 208.342L216.254 208.342L216.254 207.133L217.593 207.133L217.593 208.342ZM215.474 208.342L214.187 208.342L214.187 207.133L215.474 207.133L215.474 208.342ZM220.583 206.509L213.355 206.509L213.355 208.966L220.583 208.966L220.583 206.509ZM221.272 209.577L212.653 209.577L212.653 210.305L221.272 210.305L221.272 209.577ZM214.655 211.514L219.244 211.514L219.244 212.619L214.655 212.619L214.655 211.514ZM217.255 213.243L217.268 213.23L219.933 213.23C219.53 213.607 218.997 214.049 218.542 214.374C218.022 214.049 217.58 213.685 217.255 213.295L217.255 213.243ZM217.255 216.441L217.255 214.322C218.165 215.154 219.413 215.817 220.687 216.142C220.817 215.921 221.051 215.583 221.246 215.401C220.531 215.258 219.816 215.024 219.179 214.712C219.738 214.361 220.375 213.88 220.921 213.412L220.232 212.944L220.193 212.983L220.193 210.903L213.758 210.903L213.758 213.23L216.137 213.23C215.266 214.01 214.031 214.673 212.848 215.115C213.03 215.284 213.303 215.648 213.433 215.83C214.421 215.414 215.461 214.803 216.345 214.088L216.345 216.441L217.255 216.441ZM212.601 208.563C212.198 207.926 211.301 207.042 210.508 206.444L209.767 206.99C210.56 207.614 211.431 208.511 211.821 209.161L212.601 208.563ZM212.211 211.215L209.65 211.215L209.65 212.125L211.301 212.125L211.301 215.453C210.716 215.999 210.053 216.545 209.507 216.948L210.014 217.871C210.651 217.312 211.249 216.766 211.821 216.207C212.627 217.221 213.797 217.676 215.5 217.741C216.956 217.806 219.699 217.78 221.155 217.715C221.194 217.429 221.35 216.987 221.467 216.766C219.907 216.87 216.917 216.909 215.487 216.844C213.966 216.792 212.822 216.35 212.211 215.388L212.211 211.215Z" fill="black"/>
<circle cx="117.5" cy="212.5" r="8.5" fill="#5C38FA"/>
<path d="M114.563 210.235C114.592 209.45 114.849 208.845 115.333 208.42C115.817 207.995 116.473 207.782 117.302 207.782C117.852 207.782 118.321 207.877 118.71 208.068C119.106 208.259 119.403 208.519 119.601 208.849C119.806 209.179 119.909 209.549 119.909 209.96C119.909 210.444 119.788 210.84 119.546 211.148C119.304 211.449 119.022 211.654 118.699 211.764L118.699 211.808C119.117 211.947 119.447 212.178 119.689 212.501C119.931 212.824 120.052 213.238 120.052 213.744C120.052 214.199 119.946 214.602 119.733 214.954C119.528 215.299 119.223 215.57 118.82 215.768C118.424 215.966 117.951 216.065 117.401 216.065C116.521 216.065 115.817 215.849 115.289 215.416C114.768 214.983 114.493 214.331 114.464 213.458L116.29 213.458C116.297 213.781 116.389 214.037 116.565 214.228C116.741 214.411 116.998 214.503 117.335 214.503C117.621 214.503 117.841 214.422 117.995 214.261C118.156 214.092 118.237 213.872 118.237 213.601C118.237 213.249 118.123 212.996 117.896 212.842C117.676 212.681 117.32 212.6 116.829 212.6L116.477 212.6L116.477 211.071L116.829 211.071C117.203 211.071 117.504 211.009 117.731 210.884C117.966 210.752 118.083 210.521 118.083 210.191C118.083 209.927 118.01 209.722 117.863 209.575C117.716 209.428 117.515 209.355 117.258 209.355C116.979 209.355 116.77 209.439 116.631 209.608C116.499 209.777 116.422 209.986 116.4 210.235L114.563 210.235Z" fill="white"/>
</svg>
