<svg width="128" height="109" viewBox="0 0 128 109" fill="none" xmlns="http://www.w3.org/2000/svg">
<g opacity="0.7">
<path d="M31.9412 15.2146L10.5889 27.5674L47.8112 49.1131L69.1636 36.7603L31.9412 15.2146Z" fill="#C9BDFA"/>
<path d="M31.9412 18.0872L15.4942 27.5672L47.667 46.2401L64.2583 36.7601L31.9412 18.0872Z" fill="#5AB636"/>
<path d="M34.6833 29.1472C31.7979 30.7273 31.7979 33.4564 34.6833 35.0364C37.5688 36.6164 42.0412 36.6164 44.9267 35.0364C47.8122 33.4564 47.8122 30.7273 44.9267 29.1472C42.1855 27.4236 37.5688 27.4236 34.6833 29.1472Z" fill="#B3ED74"/>
<path d="M48.8205 37.3346C48.5319 37.4782 48.5319 37.9092 48.8205 38.0528L52.5716 40.2074C52.8601 40.351 53.4372 40.351 53.87 40.2074C54.1586 40.0637 54.1586 39.6328 53.87 39.4892L50.1189 37.3346C49.6861 37.0473 49.2533 37.0473 48.8205 37.3346Z" fill="#B3ED74"/>
<path d="M25.8817 23.9761C25.5932 24.1198 25.5932 24.5507 25.8817 24.6943L29.6328 26.8489C29.9214 26.9925 30.4985 26.9925 30.9313 26.8489C31.2198 26.7053 31.2198 26.2743 30.9313 26.1307L27.1802 23.9761C26.7474 23.8325 26.3145 23.8325 25.8817 23.9761Z" fill="#B3ED74"/>
<path d="M10.5884 27.4236V33.1691L47.8108 54.7148V48.9692L10.5884 27.4236Z" fill="#8D77ED"/>
<path d="M47.8115 48.9695V54.715L69.1638 42.3621V36.7603L47.8115 48.9695Z" fill="#6C54D5"/>
<path d="M31.9412 7.52319L10.5889 19.876L47.8112 41.4217L69.1636 29.0689L31.9412 7.52319Z" fill="#C9BDFA"/>
<path d="M31.9412 10.3958L15.4942 19.8758L47.667 38.5487L64.2583 29.0687L31.9412 10.3958Z" fill="#F5F2FF"/>
<path d="M34.6833 21.4563C31.7979 23.0363 31.7979 25.7654 34.6833 27.3454C37.5688 28.9254 42.0412 28.9254 44.9267 27.3454C47.8122 25.7654 47.8122 23.0363 44.9267 21.4563C42.1855 19.8762 37.5688 19.8762 34.6833 21.4563Z" fill="#8D77ED"/>
<path d="M48.8205 29.6434C48.5319 29.787 48.5319 30.2179 48.8205 30.3616L52.5716 32.5161C52.8601 32.6598 53.4372 32.6598 53.87 32.5161C54.1586 32.3725 54.1586 31.9416 53.87 31.7979L50.1189 29.6434C49.6861 29.4997 49.2533 29.4997 48.8205 29.6434Z" fill="#8D77ED"/>
<path d="M25.8817 16.4288C25.5932 16.5725 25.5932 17.0034 25.8817 17.147L29.6328 19.3016C29.9214 19.4452 30.4985 19.4452 30.9313 19.3016C31.2198 19.158 31.2198 18.727 30.9313 18.5834L27.1802 16.4288C26.7474 16.1416 26.3146 16.1416 25.8817 16.4288Z" fill="#8D77ED"/>
<path d="M10.5884 19.876V25.4778L47.8108 47.0235V41.278L10.5884 19.876Z" fill="#8D77ED"/>
<path d="M47.8115 41.2783V47.0238L69.1638 34.8146V29.0691L47.8115 41.2783Z" fill="#6C54D5"/>
</g>
<path d="M23.2338 61.3643L1.88144 73.7171L39.1038 95.2628L60.4562 82.9099L23.2338 61.3643Z" fill="#C9BDFA"/>
<path d="M23.2338 64.2368L6.78672 73.7169L38.9596 92.3898L55.5509 82.9097L23.2338 64.2368Z" fill="#5AB636"/>
<path d="M25.9759 75.2969C23.0905 76.8769 23.0905 79.606 25.9759 81.186C28.8614 82.7661 33.3338 82.7661 36.2193 81.186C39.1047 79.606 39.1047 76.8769 36.2193 75.2969C33.4781 73.5732 28.8614 73.5732 25.9759 75.2969Z" fill="#B3ED74"/>
<path d="M40.1131 83.4843C39.8245 83.6279 39.8245 84.0588 40.1131 84.2024L43.8642 86.357C44.1527 86.5007 44.7298 86.5007 45.1626 86.357C45.4511 86.2134 45.4511 85.7825 45.1626 85.6388L41.4115 83.4843C40.9787 83.197 40.5459 83.197 40.1131 83.4843Z" fill="#B3ED74"/>
<path d="M17.1743 70.1258C16.8858 70.2694 16.8858 70.7003 17.1743 70.844L20.9254 72.9985C21.2139 73.1422 21.791 73.1422 22.2239 72.9985C22.5124 72.8549 22.5124 72.424 22.2239 72.2804L18.4728 70.1258C18.0399 69.9822 17.6071 69.9822 17.1743 70.1258Z" fill="#B3ED74"/>
<path d="M1.88098 73.5732V79.3188L39.1033 100.864V95.1189L1.88098 73.5732Z" fill="#8D77ED"/>
<path d="M39.1041 95.1191V100.865L60.4564 88.5118V82.9099L39.1041 95.1191Z" fill="#6C54D5"/>
<path d="M23.2338 53.6729L1.88144 66.0257L39.1038 87.5714L60.4562 75.2185L23.2338 53.6729Z" fill="#C9BDFA"/>
<path d="M23.2338 56.5454L6.78672 66.0255L38.9596 84.6984L55.5509 75.2183L23.2338 56.5454Z" fill="#F5F2FF"/>
<path d="M25.9759 67.6059C23.0904 69.1859 23.0904 71.915 25.9759 73.4951C28.8614 75.0751 33.3338 75.0751 36.2193 73.4951C39.1047 71.915 39.1047 69.1859 36.2193 67.6059C33.4781 66.0259 28.8614 66.0259 25.9759 67.6059Z" fill="#8D77ED"/>
<path d="M40.1131 75.793C39.8245 75.9367 39.8245 76.3676 40.1131 76.5112L43.8642 78.6658C44.1527 78.8094 44.7298 78.8094 45.1626 78.6658C45.4511 78.5221 45.4511 78.0912 45.1626 77.9476L41.4115 75.793C40.9787 75.6494 40.5459 75.6494 40.1131 75.793Z" fill="#8D77ED"/>
<path d="M17.1743 62.5785C16.8858 62.7221 16.8858 63.153 17.1743 63.2967L20.9254 65.4512C21.214 65.5949 21.791 65.5949 22.2239 65.4512C22.5124 65.3076 22.5124 64.8767 22.2239 64.7331L18.4728 62.5785C18.04 62.2912 17.6071 62.2912 17.1743 62.5785Z" fill="#8D77ED"/>
<path d="M1.88098 66.0256V71.6275L39.1033 93.1732V87.4277L1.88098 66.0256Z" fill="#8D77ED"/>
<path d="M39.1041 87.428V93.1735L60.4564 80.9643V75.2188L39.1041 87.428Z" fill="#6C54D5"/>
<g opacity="0.8">
<path d="M88.5399 51.7859L67.1875 64.1387L104.41 85.6844L125.762 73.3315L88.5399 51.7859Z" fill="#C9BDFA"/>
<path d="M88.5399 54.6584L72.0928 64.1385L104.266 82.8114L120.857 73.3313L88.5399 54.6584Z" fill="#5AB636"/>
<path d="M91.282 65.7185C88.3965 67.2985 88.3965 70.0277 91.282 71.6077C94.1675 73.1877 98.6399 73.1877 101.525 71.6077C104.411 70.0277 104.411 67.2985 101.525 65.7185C98.7842 63.9949 94.1675 63.9949 91.282 65.7185Z" fill="#B3ED74"/>
<path d="M105.419 73.9059C105.131 74.0495 105.131 74.4804 105.419 74.6241L109.17 76.7787C109.459 76.9223 110.036 76.9223 110.469 76.7787C110.757 76.635 110.757 76.2041 110.469 76.0605L106.718 73.9059C106.285 73.6186 105.852 73.6186 105.419 73.9059Z" fill="#B3ED74"/>
<path d="M82.4804 60.5474C82.1918 60.6911 82.1918 61.122 82.4804 61.2656L86.2315 63.4202C86.52 63.5638 87.0971 63.5638 87.5299 63.4202C87.8185 63.2765 87.8185 62.8456 87.5299 62.702L83.7788 60.5474C83.346 60.4038 82.9132 60.4038 82.4804 60.5474Z" fill="#B3ED74"/>
<path d="M67.1871 63.9949V69.7404L104.409 91.286V85.5405L67.1871 63.9949Z" fill="#8D77ED"/>
<path d="M104.41 85.5407V91.2862L125.763 78.9334V73.3315L104.41 85.5407Z" fill="#6C54D5"/>
<path d="M88.5399 44.0945L67.1875 56.4473L104.41 77.993L125.762 65.6401L88.5399 44.0945Z" fill="#C9BDFA"/>
<path d="M88.5399 46.967L72.0928 56.4471L104.266 75.12L120.857 65.6399L88.5399 46.967Z" fill="#F5F2FF"/>
<path d="M91.282 58.0275C88.3965 59.6076 88.3965 62.3367 91.282 63.9167C94.1675 65.4967 98.6399 65.4967 101.525 63.9167C104.411 62.3367 104.411 59.6076 101.525 58.0275C98.7842 56.4475 94.1675 56.4475 91.282 58.0275Z" fill="#8D77ED"/>
<path d="M105.419 66.2147C105.131 66.3583 105.131 66.7892 105.419 66.9328L109.17 69.0874C109.459 69.231 110.036 69.231 110.469 69.0874C110.757 68.9438 110.757 68.5129 110.469 68.3692L106.718 66.2147C106.285 66.071 105.852 66.071 105.419 66.2147Z" fill="#8D77ED"/>
<path d="M82.4804 53.0001C82.1919 53.1438 82.1919 53.5747 82.4804 53.7183L86.2315 55.8729C86.52 56.0165 87.0971 56.0165 87.53 55.8729C87.8185 55.7292 87.8185 55.2983 87.53 55.1547L83.7789 53.0001C83.346 52.7128 82.9132 52.7128 82.4804 53.0001Z" fill="#8D77ED"/>
<path d="M67.1871 56.4473V62.0491L104.409 83.5948V77.8493L67.1871 56.4473Z" fill="#8D77ED"/>
<path d="M104.41 77.8496V83.5951L125.763 71.3859V65.6404L104.41 77.8496Z" fill="#6C54D5"/>
</g>
</svg>
