<svg width="38" height="51" viewBox="0 0 38 51" fill="none" xmlns="http://www.w3.org/2000/svg">
<rect x="6.289" width="25.165" height="3.77475" fill="#5C38FA"/>
<rect x="1.62207" y="4.87" width="35.231" height="45.297" fill="#5C38FA"/>
<rect x="12.586" y="45.2971" width="12.5825" height="5.03299" fill="#5C38FA"/>
<rect x="20.1304" y="8.80798" width="2.5165" height="2.5165" fill="white"/>
<rect x="25.162" y="8.80798" width="2.5165" height="2.5165" fill="white"/>
<rect x="30.2036" y="8.80798" width="2.5165" height="2.5165" fill="white"/>
<rect x="5.03162" y="8.80798" width="2.5165" height="2.5165" fill="white"/>
<rect x="10.0592" y="8.80798" width="2.5165" height="2.5165" fill="white"/>
<rect x="15.0968" y="8.80798" width="2.5165" height="2.5165" fill="white"/>
<rect x="20.1304" y="13.8412" width="2.5165" height="2.5165" fill="white"/>
<rect x="25.162" y="13.8412" width="2.5165" height="2.5165" fill="white"/>
<rect x="30.2036" y="13.8412" width="2.5165" height="2.5165" fill="white"/>
<rect x="5.03162" y="13.8412" width="2.5165" height="2.5165" fill="white"/>
<rect x="10.0592" y="13.8412" width="2.5165" height="2.5165" fill="white"/>
<rect x="15.0968" y="13.8412" width="2.5165" height="2.5165" fill="white"/>
<rect x="20.1304" y="18.8738" width="2.5165" height="2.5165" fill="white"/>
<rect x="25.162" y="18.8738" width="2.5165" height="2.5165" fill="white"/>
<rect x="30.2036" y="18.8738" width="2.5165" height="2.5165" fill="white"/>
<rect x="5.03162" y="18.8738" width="2.5165" height="2.5165" fill="white"/>
<rect x="10.0592" y="18.8738" width="2.5165" height="2.5165" fill="white"/>
<rect x="15.0968" y="18.8738" width="2.5165" height="2.5165" fill="white"/>
<rect x="20.1304" y="23.9064" width="2.5165" height="2.5165" fill="white"/>
<rect x="25.162" y="23.9064" width="2.5165" height="2.5165" fill="white"/>
<rect x="30.2036" y="23.9064" width="2.5165" height="2.5165" fill="white"/>
<rect x="5.03162" y="23.9064" width="2.5165" height="2.5165" fill="white"/>
<rect x="10.0592" y="23.9064" width="2.5165" height="2.5165" fill="white"/>
<rect x="15.0968" y="23.9064" width="2.5165" height="2.5165" fill="white"/>
<rect x="20.1304" y="28.9395" width="2.5165" height="2.5165" fill="white"/>
<rect x="25.162" y="28.9395" width="2.5165" height="2.5165" fill="white"/>
<rect x="30.2036" y="28.9395" width="2.5165" height="2.5165" fill="white"/>
<rect x="5.03162" y="28.9395" width="2.5165" height="2.5165" fill="white"/>
<rect x="10.0592" y="28.9395" width="2.5165" height="2.5165" fill="white"/>
<rect x="15.0968" y="28.9395" width="2.5165" height="2.5165" fill="white"/>
<rect x="20.1304" y="33.9723" width="2.5165" height="2.5165" fill="white"/>
<rect x="25.162" y="33.9723" width="2.5165" height="2.5165" fill="white"/>
<rect x="30.2036" y="33.9723" width="2.5165" height="2.5165" fill="white"/>
<rect x="5.03162" y="33.9723" width="2.5165" height="2.5165" fill="white"/>
<rect x="10.0592" y="33.9723" width="2.5165" height="2.5165" fill="white"/>
<rect x="15.0968" y="33.9723" width="2.5165" height="2.5165" fill="white"/>
<rect x="20.1304" y="39.0066" width="2.5165" height="2.5165" fill="white"/>
<rect x="25.162" y="39.0066" width="2.5165" height="2.5165" fill="white"/>
<rect x="30.2036" y="39.0066" width="2.5165" height="2.5165" fill="white"/>
<rect x="5.03162" y="39.0066" width="2.5165" height="2.5165" fill="white"/>
<rect x="10.0592" y="39.0066" width="2.5165" height="2.5165" fill="white"/>
<rect x="15.0968" y="39.0066" width="2.5165" height="2.5165" fill="white"/>
<rect y="2.51636" width="37.7475" height="3.77475" fill="#5C38FA"/>
<rect x="1.25543" y="6.2915" width="35.231" height="1.25825" fill="#5C38FA"/>
<rect x="11.3286" y="44.0389" width="15.099" height="2.5165" fill="#5C38FA"/>
</svg>
