<svg width="378" height="252" viewBox="0 0 378 252" fill="none" xmlns="http://www.w3.org/2000/svg">
<path d="M289 48V42C289 36.4772 284.523 32 279 32H230.5" stroke="#4027AF" stroke-width="2" stroke-dasharray="2 2"/>
<path d="M148.5 239.5L112 219L165.501 189.67L200.499 208.5L148.5 239.5Z" fill="#211261"/>
<path d="M219.999 197.5L185.312 177.039L221.156 155.287L257.999 176L219.999 197.5Z" fill="#211261"/>
<path d="M199.087 37.4637L166 17.63L199.087 0L232.173 17.63L199.087 37.4637Z" fill="#B0A1F3"/>
<path d="M199.087 209.356L166 190.326V17.6299L199.087 36.6597V209.356Z" fill="#5C38FA"/>
<path d="M232.173 190.326L199.087 209.356V36.6597L232.173 17.6299V190.326Z" fill="#4027AF"/>
<path d="M129.325 239.667L96 220.079L129.325 200L162.173 220.079L129.325 239.667Z" fill="#C4C4C4"/>
<path d="M129.087 251.284L96 231.419V220L129.087 239.38V251.284Z" fill="#939393"/>
<path d="M162.173 231.419L129.087 251.284V239.38L162.173 220V231.419Z" fill="#343434"/>
<rect x="277" y="47" width="101" height="132" rx="7" fill="#4027AF"/>
<path opacity="0.7" d="M290.29 74H292.975V69.74H296.785V67.505H292.975V65.06H297.415V62.825H290.29V74ZM303.813 74.21C306.783 74.21 308.283 72.515 308.283 68.75V62.825H305.703V69.035C305.703 71.15 305.028 71.9 303.813 71.9C302.583 71.9 301.953 71.15 301.953 69.035V62.825H299.283V68.75C299.283 72.515 300.828 74.21 303.813 74.21ZM310.783 74H318.028V71.75H313.468V69.38H317.203V67.13H313.468V65.06H317.863V62.825H310.783V74ZM320.231 74H327.266V71.75H322.916V62.825H320.231V74ZM299.47 80.82H296.905C296.98 81.27 297.025 81.81 297.07 82.5C297.085 82.785 297.1 83.07 297.115 83.37H292.435C291.895 83.37 291.04 83.31 290.62 83.25V85.65C291.175 85.62 291.925 85.59 292.495 85.59H296.08C294.88 87.24 292.51 89.13 289.675 90.465L291.34 92.355C293.53 91.2 295.87 89.295 297.22 87.585C297.235 88.845 297.235 89.985 297.235 90.87C297.235 91.305 297.085 91.5 296.74 91.5C296.26 91.5 295.465 91.44 294.805 91.335L295.015 93.69C295.93 93.75 296.74 93.78 297.73 93.78C299.005 93.78 299.605 93.15 299.59 92.085C299.56 89.985 299.5 87.735 299.455 85.59H301.12C301.54 85.59 302.155 85.605 302.695 85.62V83.235C302.305 83.295 301.525 83.37 300.985 83.37H299.395C299.395 83.07 299.38 82.785 299.38 82.5C299.365 81.99 299.395 81.33 299.47 80.82ZM307.735 81.36L306.01 83.205C307.09 83.97 308.98 85.62 309.775 86.49L311.635 84.585C310.735 83.625 308.77 82.065 307.735 81.36ZM305.515 91.32L307.06 93.72C308.95 93.42 310.9 92.64 312.43 91.74C314.935 90.27 317.065 88.185 318.265 86.055L316.855 83.49C315.85 85.605 313.825 87.93 311.125 89.49C309.655 90.345 307.72 91.02 305.515 91.32ZM322.285 81.3V83.64C322.735 83.595 323.455 83.58 323.965 83.58H329.62C330.19 83.58 331 83.61 331.42 83.64V81.3C330.985 81.36 330.13 81.39 329.65 81.39H323.965C323.44 81.39 322.705 81.36 322.285 81.3ZM332.785 85.89L331.18 84.885C330.94 84.99 330.49 85.065 329.92 85.065H322.78C322.27 85.065 321.565 85.02 320.875 84.96V87.3C321.55 87.24 322.405 87.225 322.78 87.225H329.605C329.35 87.915 328.945 88.665 328.21 89.4C327.13 90.48 325.39 91.47 323.05 91.965L324.865 94.02C326.785 93.465 328.735 92.37 330.22 90.705C331.33 89.46 331.96 88.05 332.455 86.61C332.515 86.43 332.665 86.115 332.785 85.89ZM334.735 86.94L335.86 89.235C337.6 88.74 339.415 87.975 340.93 87.21V91.605C340.93 92.325 340.87 93.375 340.81 93.78H343.69C343.57 93.36 343.54 92.325 343.54 91.605V85.695C344.965 84.75 346.42 83.58 347.545 82.485L345.58 80.61C344.635 81.75 342.805 83.37 341.29 84.3C339.61 85.32 337.465 86.25 334.735 86.94ZM352.735 81.36L351.01 83.205C352.09 83.97 353.98 85.62 354.775 86.49L356.635 84.585C355.735 83.625 353.77 82.065 352.735 81.36ZM350.515 91.32L352.06 93.72C353.95 93.42 355.9 92.64 357.43 91.74C359.935 90.27 362.065 88.185 363.265 86.055L361.855 83.49C360.85 85.605 358.825 87.93 356.125 89.49C354.655 90.345 352.72 91.02 350.515 91.32ZM302.575 102.01L300.775 100.855C300.31 100.975 299.725 100.99 299.395 100.99H292.78C292.285 100.99 291.295 100.915 290.83 100.855V103.42C291.22 103.39 292.045 103.345 292.78 103.345H299.38C299.185 104.545 298.69 106.03 297.73 107.215C296.545 108.685 294.85 110.005 291.835 110.68L293.815 112.855C296.455 112 298.57 110.455 299.92 108.64C301.21 106.9 301.825 104.62 302.185 103.21C302.275 102.88 302.41 102.34 302.575 102.01ZM317.53 104.575L316.195 103.36C315.925 103.435 315.13 103.48 314.74 103.48H308.05C307.51 103.48 306.895 103.42 306.385 103.345V105.655C307 105.595 307.51 105.565 308.05 105.565H314.17C313.855 106.12 313.015 107.02 312.265 107.59C312.295 107.11 312.31 106.63 312.325 106.15H309.82C309.895 106.495 309.955 106.915 309.955 107.32C309.955 109.18 309.625 110.32 308.11 111.37C307.6 111.73 307.21 111.91 306.775 112.09L308.68 113.605C311.695 111.955 312.145 109.78 312.265 107.62L314.05 108.85C314.965 108.1 316.435 106.18 317.005 105.265C317.11 105.1 317.365 104.755 317.53 104.575ZM322.735 100.36L321.01 102.205C322.09 102.97 323.98 104.62 324.775 105.49L326.635 103.585C325.735 102.625 323.77 101.065 322.735 100.36ZM320.515 110.32L322.06 112.72C323.95 112.42 325.9 111.64 327.43 110.74C329.935 109.27 332.065 107.185 333.265 105.055L331.855 102.49C330.85 104.605 328.825 106.93 326.125 108.49C324.655 109.345 322.72 110.02 320.515 110.32ZM344.44 100.63L342.94 101.26C343.525 102.085 343.78 102.55 344.26 103.585L345.805 102.91C345.475 102.235 344.89 101.305 344.44 100.63ZM346.495 99.775L345.01 100.465C345.595 101.26 345.88 101.68 346.405 102.715L347.905 101.98C347.575 101.32 346.96 100.42 346.495 99.775ZM338.065 110.725C338.065 111.34 337.99 112.345 337.885 112.99H340.735C340.66 112.315 340.57 111.13 340.57 110.725V106.87C342.16 107.44 344.215 108.235 345.73 109.015L346.765 106.48C345.505 105.865 342.595 104.8 340.57 104.215V102.16C340.57 101.44 340.66 100.78 340.72 100.21H337.885C338.005 100.78 338.065 101.56 338.065 102.16V110.725Z" fill="white"/>
<path d="M296.676 140.281H299.684C301.116 140.281 302.177 139.923 302.867 139.207C303.557 138.491 303.902 137.54 303.902 136.355C303.902 135.21 303.557 134.318 302.867 133.68C302.19 133.042 301.253 132.723 300.055 132.723C298.974 132.723 298.069 133.022 297.34 133.621C296.611 134.207 296.246 134.975 296.246 135.926H290.602C290.602 134.441 290.999 133.113 291.793 131.941C292.6 130.757 293.72 129.832 295.152 129.168C296.598 128.504 298.186 128.172 299.918 128.172C302.926 128.172 305.283 128.895 306.988 130.34C308.694 131.772 309.547 133.751 309.547 136.277C309.547 137.579 309.15 138.777 308.355 139.871C307.561 140.965 306.52 141.805 305.23 142.391C306.832 142.964 308.023 143.823 308.805 144.969C309.599 146.115 309.996 147.469 309.996 149.031C309.996 151.557 309.072 153.582 307.223 155.105C305.387 156.629 302.952 157.391 299.918 157.391C297.079 157.391 294.755 156.642 292.945 155.145C291.148 153.647 290.25 151.668 290.25 149.207H295.895C295.895 150.275 296.292 151.147 297.086 151.824C297.893 152.501 298.883 152.84 300.055 152.84C301.396 152.84 302.444 152.488 303.199 151.785C303.967 151.069 304.352 150.125 304.352 148.953C304.352 146.115 302.789 144.695 299.664 144.695H296.676V140.281ZM313.43 154.227C313.43 153.328 313.729 152.599 314.328 152.039C314.94 151.479 315.702 151.199 316.613 151.199C317.538 151.199 318.299 151.479 318.898 152.039C319.51 152.599 319.816 153.328 319.816 154.227C319.816 155.112 319.517 155.835 318.918 156.395C318.319 156.941 317.551 157.215 316.613 157.215C315.689 157.215 314.927 156.941 314.328 156.395C313.729 155.835 313.43 155.112 313.43 154.227ZM342.684 145.242C342.684 149.174 341.87 152.182 340.242 154.266C338.615 156.349 336.232 157.391 333.094 157.391C329.995 157.391 327.625 156.368 325.984 154.324C324.344 152.28 323.504 149.35 323.465 145.535V140.301C323.465 136.329 324.285 133.315 325.926 131.258C327.579 129.201 329.956 128.172 333.055 128.172C336.154 128.172 338.523 129.194 340.164 131.238C341.805 133.27 342.645 136.193 342.684 140.008V145.242ZM337.039 139.5C337.039 137.143 336.714 135.431 336.062 134.363C335.424 133.283 334.422 132.742 333.055 132.742C331.727 132.742 330.743 133.257 330.105 134.285C329.48 135.301 329.148 136.896 329.109 139.07V145.984C329.109 148.302 329.422 150.027 330.047 151.16C330.685 152.28 331.701 152.84 333.094 152.84C334.474 152.84 335.47 152.299 336.082 151.219C336.694 150.138 337.013 148.484 337.039 146.258V139.5Z" fill="white"/>
<path d="M346.928 145.516C346.928 144.643 347.211 143.937 347.777 143.396C348.344 142.85 349.086 142.576 350.004 142.576C350.935 142.576 351.684 142.846 352.25 143.387C352.816 143.921 353.1 144.646 353.1 145.564V146.268C353.1 147.146 352.816 147.853 352.25 148.387C351.684 148.921 350.941 149.188 350.023 149.188C349.099 149.188 348.35 148.921 347.777 148.387C347.211 147.846 346.928 147.12 346.928 146.209V145.516ZM348.803 146.268C348.803 146.658 348.913 146.974 349.135 147.215C349.363 147.449 349.659 147.566 350.023 147.566C350.388 147.566 350.678 147.446 350.893 147.205C351.107 146.964 351.215 146.642 351.215 146.238V145.516C351.215 145.125 351.107 144.809 350.893 144.568C350.678 144.327 350.382 144.207 350.004 144.207C349.646 144.207 349.356 144.327 349.135 144.568C348.913 144.803 348.803 145.132 348.803 145.555V146.268ZM353.725 153.514C353.725 152.635 354.011 151.928 354.584 151.395C355.157 150.854 355.899 150.584 356.811 150.584C357.735 150.584 358.48 150.851 359.047 151.385C359.62 151.912 359.906 152.641 359.906 153.572V154.275C359.906 155.148 359.626 155.854 359.066 156.395C358.507 156.928 357.761 157.195 356.83 157.195C355.893 157.195 355.141 156.925 354.574 156.385C354.008 155.844 353.725 155.128 353.725 154.236V153.514ZM355.6 154.275C355.6 154.633 355.717 154.939 355.951 155.193C356.186 155.447 356.479 155.574 356.83 155.574C357.624 155.574 358.021 155.135 358.021 154.256V153.514C358.021 153.123 357.911 152.811 357.689 152.576C357.468 152.335 357.175 152.215 356.811 152.215C356.446 152.215 356.153 152.335 355.932 152.576C355.71 152.811 355.6 153.133 355.6 153.543V154.275ZM350.58 155.936L349.203 155.193L356.146 144.08L357.523 144.822L350.58 155.936Z" fill="white"/>
<path d="M46.5 184.5V215.5C46.5 221.023 50.9772 225.5 56.5 225.5H97" stroke="#939393" stroke-width="2" stroke-dasharray="2 2"/>
<rect y="74" width="101" height="113" rx="7" fill="#343434"/>
<path opacity="0.7" d="M23.075 101.705H23.585C23.825 103.04 24.14 104.225 24.59 105.26C24.08 105.365 23.57 105.47 23.075 105.56V101.705ZM18.62 105.08L19.865 105.425C20.09 104.825 20.36 103.895 20.66 103.025L19.055 102.65C18.98 103.325 18.8 104.285 18.62 104.945V102.365H20.465V100.535H18.62V99.71H20.18V97.955L21.035 96.92V105.965L20.585 106.04L20.555 105.425L18.62 105.71V105.08ZM16.7 97.91C17.195 97.34 17.615 96.755 17.96 96.215C18.47 96.725 18.995 97.37 19.37 97.91H16.7ZM25.94 96.605V97.295H23.075V96.605H25.94ZM23.075 99.8V99.11H25.94V99.8H23.075ZM27.155 101.975C26.825 102.32 26.36 102.725 25.895 103.085C25.745 102.65 25.625 102.185 25.52 101.705H28.01V94.7H21.035V96.65C20.45 95.87 19.37 94.865 18.53 94.175H16.79C16.295 95.33 15.41 96.68 14.105 97.715C14.525 98.015 15.14 98.735 15.425 99.185L15.44 99.17V99.71H16.745V100.535H14.855V102.365H16.745V104.855C16.64 104.21 16.445 103.415 16.25 102.77L14.87 103.13C15.08 103.925 15.29 104.96 15.335 105.65L16.745 105.245V105.965C15.95 106.07 15.215 106.16 14.6 106.235L15.02 108.185C16.52 107.945 18.455 107.645 20.285 107.315L20.54 108.26C21.845 107.975 23.45 107.615 24.92 107.255L24.74 105.575C25.34 106.835 26.195 107.81 27.425 108.47C27.725 107.9 28.355 107.06 28.82 106.655C27.89 106.235 27.185 105.575 26.66 104.735C27.275 104.39 27.98 103.91 28.61 103.46L27.155 101.975ZM43.1 95H35.795V97.07H43.1V95ZM32.705 94.175C32 95.21 30.56 96.575 29.315 97.355C29.69 97.79 30.245 98.66 30.515 99.155C32 98.135 33.665 96.53 34.805 95.045L32.705 94.175ZM33.26 97.475C32.3 99.17 30.665 100.91 29.15 101.96C29.585 102.41 30.32 103.4 30.62 103.865C30.935 103.61 31.25 103.31 31.58 103.01V108.425H33.77V100.55C34.355 99.8 34.895 99.02 35.33 98.27L33.26 97.475ZM43.475 99.17H35.165V101.24H39.275V105.92C39.275 106.13 39.185 106.19 38.915 106.19C38.645 106.19 37.655 106.19 36.92 106.145C37.205 106.775 37.49 107.735 37.565 108.38C38.84 108.38 39.845 108.35 40.565 108.02C41.315 107.69 41.51 107.09 41.51 105.98V101.24H43.475V99.17ZM47.105 97.655H55.805V99.65H58.055V95.6H52.655V94.205H50.315V95.6H44.96V99.65H47.105V97.655ZM52.64 104.315H56.57V102.275H52.64V100.745H55.49V98.675H47.45V100.745H50.36V105.44C49.67 105.035 49.115 104.405 48.725 103.415C48.86 102.83 48.965 102.2 49.04 101.555L46.76 101.33C46.535 103.835 45.83 105.89 44.225 107.03C44.735 107.36 45.665 108.14 46.025 108.53C46.82 107.855 47.435 106.985 47.9 105.95C49.25 107.885 51.215 108.305 53.825 108.305H57.74C57.845 107.645 58.19 106.595 58.505 106.085C57.335 106.13 54.89 106.13 53.945 106.13C53.495 106.13 53.06 106.115 52.64 106.07V104.315ZM69.38 101.555C69.395 101.135 69.395 100.73 69.395 100.355V100.07H71.045V101.555H69.38ZM71.045 96.77V98.165H69.395V96.77H71.045ZM62.615 102.275H64.01V102.995H62.615V102.275ZM64.01 97.7V98.33H62.615V97.7H64.01ZM62.615 99.965H64.01V100.64H62.615V99.965ZM73.145 94.805H67.355V100.355C67.355 102.245 67.295 104.705 66.545 106.55C66.17 106.025 65.615 105.395 65.15 104.885H66.815V102.995H66.005V97.7H66.98V95.81H66.005V94.34H64.01V95.81H62.615V94.34H60.665V95.81H59.54V97.7H60.665V102.995H59.375V104.885H61.115C60.695 105.74 59.96 106.625 59.18 107.195C59.675 107.48 60.515 108.095 60.92 108.47C61.715 107.75 62.615 106.565 63.17 105.47L61.16 104.885H64.79L63.38 105.665C63.98 106.37 64.73 107.345 65.045 107.945L66.275 107.225C66.755 107.465 67.61 108.08 67.955 108.44C68.705 107.135 69.08 105.275 69.26 103.49H71.045V106.1C71.045 106.325 70.97 106.4 70.745 106.4C70.535 106.4 69.815 106.415 69.26 106.37C69.53 106.91 69.8 107.855 69.86 108.425C71 108.44 71.795 108.38 72.38 108.035C72.965 107.705 73.145 107.135 73.145 106.13V94.805ZM25.94 118.515H23.18V117.84H25.94V118.515ZM25.94 120.63H23.18V119.955H25.94V120.63ZM25.94 122.76H23.18V122.085H25.94V122.76ZM19.895 118.56L19.61 118.62H19.1L19.535 118.02C19.325 117.84 19.07 117.645 18.77 117.45C19.475 116.685 20.165 115.74 20.72 114.87V115.515H23.42C23.39 115.77 23.36 116.025 23.33 116.28H21.2V118.845L19.895 118.56ZM28.025 124.32V116.28H25.55C25.64 116.04 25.715 115.785 25.805 115.515H28.43V113.7H20.72V114.45L19.595 113.64L19.205 113.76H14.66V115.635H17.885C17.66 115.95 17.42 116.265 17.195 116.535C16.745 116.31 16.31 116.1 15.905 115.935L14.84 117.36C15.56 117.69 16.37 118.155 17.09 118.62H14.3V120.525H16.4V125.115C16.4 125.28 16.34 125.325 16.13 125.325C15.92 125.325 15.215 125.325 14.645 125.31C14.93 125.88 15.215 126.78 15.29 127.395C16.295 127.395 17.09 127.35 17.705 127.02C18.35 126.69 18.5 126.12 18.5 125.16V120.525H19.055C18.92 121.17 18.785 121.785 18.665 122.235L20.27 122.565C20.555 121.65 20.915 120.255 21.2 118.98V124.32H22.505C21.815 124.935 20.6 125.685 19.535 126.06C20 126.435 20.63 127.065 20.975 127.47C22.13 127.02 23.555 126.15 24.395 125.37L22.82 124.32H26.33L24.74 125.4C25.55 126.015 26.645 126.915 27.14 127.47L28.85 126.255C28.265 125.685 27.155 124.875 26.36 124.32H28.025ZM35.24 122.58V125.175H33.74L34.835 124.695C34.64 124.095 34.145 123.27 33.665 122.58H35.24ZM39.125 122.58C38.81 123.33 38.3 124.23 37.88 124.845L38.675 125.175H37.565V122.58H39.125ZM34.22 117.63C35.12 116.85 35.885 116.025 36.44 115.245C36.995 116.01 37.805 116.835 38.72 117.63H34.22ZM39.845 122.58H41.9V120.72H37.565V119.52H40.235V118.815C40.955 119.325 41.69 119.79 42.41 120.18C42.815 119.505 43.31 118.77 43.85 118.215C41.45 117.285 39.125 115.455 37.49 113.115H35.21C34.13 114.9 31.76 117.165 29.195 118.395C29.66 118.845 30.29 119.655 30.56 120.165C31.28 119.775 31.985 119.34 32.66 118.86V119.52H35.24V120.72H30.95V122.58H32.825L31.715 123.045C32.15 123.69 32.585 124.53 32.84 125.175H30.155V127.035H42.86V125.175H39.8C40.25 124.605 40.775 123.84 41.3 123.105L39.845 122.58Z" fill="white"/>
<path d="M25.6445 150.945C25.6445 153.305 25.1562 155.109 24.1797 156.359C23.2031 157.609 21.7734 158.234 19.8906 158.234C18.0312 158.234 16.6094 157.621 15.625 156.395C14.6406 155.168 14.1367 153.41 14.1133 151.121V147.98C14.1133 145.598 14.6055 143.789 15.5898 142.555C16.582 141.32 18.0078 140.703 19.8672 140.703C21.7266 140.703 23.1484 141.316 24.1328 142.543C25.1172 143.762 25.6211 145.516 25.6445 147.805V150.945ZM22.2578 147.5C22.2578 146.086 22.0625 145.059 21.6719 144.418C21.2891 143.77 20.6875 143.445 19.8672 143.445C19.0703 143.445 18.4805 143.754 18.0977 144.371C17.7227 144.98 17.5234 145.938 17.5 147.242V151.391C17.5 152.781 17.6875 153.816 18.0625 154.496C18.4453 155.168 19.0547 155.504 19.8906 155.504C20.7188 155.504 21.3164 155.18 21.6836 154.531C22.0508 153.883 22.2422 152.891 22.2578 151.555V147.5ZM27.2578 156.336C27.2578 155.797 27.4375 155.359 27.7969 155.023C28.1641 154.688 28.6211 154.52 29.168 154.52C29.7227 154.52 30.1797 154.688 30.5391 155.023C30.9062 155.359 31.0898 155.797 31.0898 156.336C31.0898 156.867 30.9102 157.301 30.5508 157.637C30.1914 157.965 29.7305 158.129 29.168 158.129C28.6133 158.129 28.1562 157.965 27.7969 157.637C27.4375 157.301 27.2578 156.867 27.2578 156.336ZM44.4102 150.945C44.4102 153.305 43.9219 155.109 42.9453 156.359C41.9688 157.609 40.5391 158.234 38.6562 158.234C36.7969 158.234 35.375 157.621 34.3906 156.395C33.4062 155.168 32.9023 153.41 32.8789 151.121V147.98C32.8789 145.598 33.3711 143.789 34.3555 142.555C35.3477 141.32 36.7734 140.703 38.6328 140.703C40.4922 140.703 41.9141 141.316 42.8984 142.543C43.8828 143.762 44.3867 145.516 44.4102 147.805V150.945ZM41.0234 147.5C41.0234 146.086 40.8281 145.059 40.4375 144.418C40.0547 143.77 39.4531 143.445 38.6328 143.445C37.8359 143.445 37.2461 143.754 36.8633 144.371C36.4883 144.98 36.2891 145.938 36.2656 147.242V151.391C36.2656 152.781 36.4531 153.816 36.8281 154.496C37.2109 155.168 37.8203 155.504 38.6562 155.504C39.4844 155.504 40.082 155.18 40.4492 154.531C40.8164 153.883 41.0078 152.891 41.0234 151.555V147.5ZM57.1914 150.945C57.1914 153.305 56.7031 155.109 55.7266 156.359C54.75 157.609 53.3203 158.234 51.4375 158.234C49.5781 158.234 48.1562 157.621 47.1719 156.395C46.1875 155.168 45.6836 153.41 45.6602 151.121V147.98C45.6602 145.598 46.1523 143.789 47.1367 142.555C48.1289 141.32 49.5547 140.703 51.4141 140.703C53.2734 140.703 54.6953 141.316 55.6797 142.543C56.6641 143.762 57.168 145.516 57.1914 147.805V150.945ZM53.8047 147.5C53.8047 146.086 53.6094 145.059 53.2188 144.418C52.8359 143.77 52.2344 143.445 51.4141 143.445C50.6172 143.445 50.0273 143.754 49.6445 144.371C49.2695 144.98 49.0703 145.938 49.0469 147.242V151.391C49.0469 152.781 49.2344 153.816 49.6094 154.496C49.9922 155.168 50.6016 155.504 51.4375 155.504C52.2656 155.504 52.8633 155.18 53.2305 154.531C53.5977 153.883 53.7891 152.891 53.8047 151.555V147.5ZM70.1836 158H58.4883V155.68L64.0078 149.797C64.7656 148.969 65.3242 148.246 65.6836 147.629C66.0508 147.012 66.2344 146.426 66.2344 145.871C66.2344 145.113 66.043 144.52 65.6602 144.09C65.2773 143.652 64.7305 143.434 64.0195 143.434C63.2539 143.434 62.6484 143.699 62.2031 144.23C61.7656 144.754 61.5469 145.445 61.5469 146.305H58.1484C58.1484 145.266 58.3945 144.316 58.8867 143.457C59.3867 142.598 60.0898 141.926 60.9961 141.441C61.9023 140.949 62.9297 140.703 64.0781 140.703C65.8359 140.703 67.1992 141.125 68.168 141.969C69.1445 142.812 69.6328 144.004 69.6328 145.543C69.6328 146.387 69.4141 147.246 68.9766 148.121C68.5391 148.996 67.7891 150.016 66.7266 151.18L62.8477 155.27H70.1836V158Z" fill="white"/>
<path d="M73.9277 147.516C73.9277 146.643 74.2109 145.937 74.7773 145.396C75.3438 144.85 76.0859 144.576 77.0039 144.576C77.9349 144.576 78.6836 144.846 79.25 145.387C79.8164 145.921 80.0996 146.646 80.0996 147.564V148.268C80.0996 149.146 79.8164 149.853 79.25 150.387C78.6836 150.921 77.9414 151.188 77.0234 151.188C76.099 151.188 75.3503 150.921 74.7773 150.387C74.2109 149.846 73.9277 149.12 73.9277 148.209V147.516ZM75.8027 148.268C75.8027 148.658 75.9134 148.974 76.1348 149.215C76.3626 149.449 76.6589 149.566 77.0234 149.566C77.388 149.566 77.6777 149.446 77.8926 149.205C78.1074 148.964 78.2148 148.642 78.2148 148.238V147.516C78.2148 147.125 78.1074 146.809 77.8926 146.568C77.6777 146.327 77.3815 146.207 77.0039 146.207C76.6458 146.207 76.3561 146.327 76.1348 146.568C75.9134 146.803 75.8027 147.132 75.8027 147.555V148.268ZM80.7246 155.514C80.7246 154.635 81.0111 153.928 81.584 153.395C82.1569 152.854 82.8991 152.584 83.8105 152.584C84.735 152.584 85.4805 152.851 86.0469 153.385C86.6198 153.912 86.9062 154.641 86.9062 155.572V156.275C86.9062 157.148 86.6263 157.854 86.0664 158.395C85.5065 158.928 84.7611 159.195 83.8301 159.195C82.8926 159.195 82.1406 158.925 81.5742 158.385C81.0078 157.844 80.7246 157.128 80.7246 156.236V155.514ZM82.5996 156.275C82.5996 156.633 82.7168 156.939 82.9512 157.193C83.1855 157.447 83.4785 157.574 83.8301 157.574C84.6243 157.574 85.0215 157.135 85.0215 156.256V155.514C85.0215 155.123 84.9108 154.811 84.6895 154.576C84.4681 154.335 84.1751 154.215 83.8105 154.215C83.446 154.215 83.153 154.335 82.9316 154.576C82.7103 154.811 82.5996 155.133 82.5996 155.543V156.275ZM77.5801 157.936L76.2031 157.193L83.1465 146.08L84.5234 146.822L77.5801 157.936Z" fill="white"/>
</svg>
