<svg width="358" height="193" viewBox="0 0 358 193" fill="none" xmlns="http://www.w3.org/2000/svg">
<path d="M141 106.5C141 121.592 136.157 136.286 127.182 148.421C118.208 160.555 105.577 169.489 91.146 173.909C76.7152 178.329 61.247 178.001 47.0165 172.974C32.786 167.947 20.5444 158.485 12.0924 145.982C3.64028 133.478 -0.576139 118.592 0.0633059 103.513C0.702751 88.4342 6.1643 73.9585 15.6446 62.2153C25.1249 50.472 38.1236 42.0811 52.7286 38.2766C67.3336 34.4722 82.7741 35.4551 96.7788 41.0808L70.5 106.5H141Z" fill="#4027AF"/>
<path opacity="0.45" d="M101.619 48.1594C111.652 52.7178 120.257 59.917 126.515 68.9875C132.773 78.0581 136.448 88.6588 137.147 99.6563L76.4683 103.515L101.619 48.1594Z" fill="#5C38FA"/>
<rect x="190" width="154" height="55" rx="8" fill="#5C38FA"/>
<path d="M200.29 25H202.975V20.74H206.785V18.505H202.975V16.06H207.415V13.825H200.29V25ZM213.813 25.21C216.783 25.21 218.283 23.515 218.283 19.75V13.825H215.703V20.035C215.703 22.15 215.028 22.9 213.813 22.9C212.583 22.9 211.953 22.15 211.953 20.035V13.825H209.283V19.75C209.283 23.515 210.828 25.21 213.813 25.21ZM220.783 25H228.028V22.75H223.468V20.38H227.203V18.13H223.468V16.06H227.863V13.825H220.783V25ZM230.231 25H237.266V22.75H232.916V13.825H230.231V25ZM248.376 12.82H245.811C245.886 13.27 245.931 13.81 245.976 14.5C245.991 14.785 246.006 15.07 246.021 15.37H241.341C240.801 15.37 239.946 15.31 239.526 15.25V17.65C240.081 17.62 240.831 17.59 241.401 17.59H244.986C243.786 19.24 241.416 21.13 238.581 22.465L240.246 24.355C242.436 23.2 244.776 21.295 246.126 19.585C246.141 20.845 246.141 21.985 246.141 22.87C246.141 23.305 245.991 23.5 245.646 23.5C245.166 23.5 244.371 23.44 243.711 23.335L243.921 25.69C244.836 25.75 245.646 25.78 246.636 25.78C247.911 25.78 248.511 25.15 248.496 24.085C248.466 21.985 248.406 19.735 248.361 17.59H250.026C250.446 17.59 251.061 17.605 251.601 17.62V15.235C251.211 15.295 250.431 15.37 249.891 15.37H248.301C248.301 15.07 248.286 14.785 248.286 14.5C248.271 13.99 248.301 13.33 248.376 12.82ZM256.641 13.36L254.916 15.205C255.996 15.97 257.886 17.62 258.681 18.49L260.541 16.585C259.641 15.625 257.676 14.065 256.641 13.36ZM254.421 23.32L255.966 25.72C257.856 25.42 259.806 24.64 261.336 23.74C263.841 22.27 265.971 20.185 267.171 18.055L265.761 15.49C264.756 17.605 262.731 19.93 260.031 21.49C258.561 22.345 256.626 23.02 254.421 23.32ZM271.191 13.3V15.64C271.641 15.595 272.361 15.58 272.871 15.58H278.526C279.096 15.58 279.906 15.61 280.326 15.64V13.3C279.891 13.36 279.036 13.39 278.556 13.39H272.871C272.346 13.39 271.611 13.36 271.191 13.3ZM281.691 17.89L280.086 16.885C279.846 16.99 279.396 17.065 278.826 17.065H271.686C271.176 17.065 270.471 17.02 269.781 16.96V19.3C270.456 19.24 271.311 19.225 271.686 19.225H278.511C278.256 19.915 277.851 20.665 277.116 21.4C276.036 22.48 274.296 23.47 271.956 23.965L273.771 26.02C275.691 25.465 277.641 24.37 279.126 22.705C280.236 21.46 280.866 20.05 281.361 18.61C281.421 18.43 281.571 18.115 281.691 17.89ZM283.641 18.94L284.766 21.235C286.506 20.74 288.321 19.975 289.836 19.21V23.605C289.836 24.325 289.776 25.375 289.716 25.78H292.596C292.476 25.36 292.446 24.325 292.446 23.605V17.695C293.871 16.75 295.326 15.58 296.451 14.485L294.486 12.61C293.541 13.75 291.711 15.37 290.196 16.3C288.516 17.32 286.371 18.25 283.641 18.94ZM301.641 13.36L299.916 15.205C300.996 15.97 302.886 17.62 303.681 18.49L305.541 16.585C304.641 15.625 302.676 14.065 301.641 13.36ZM299.421 23.32L300.966 25.72C302.856 25.42 304.806 24.64 306.336 23.74C308.841 22.27 310.971 20.185 312.171 18.055L310.761 15.49C309.756 17.605 307.731 19.93 305.031 21.49C303.561 22.345 301.626 23.02 299.421 23.32ZM212.575 34.01L210.775 32.855C210.31 32.975 209.725 32.99 209.395 32.99H202.78C202.285 32.99 201.295 32.915 200.83 32.855V35.42C201.22 35.39 202.045 35.345 202.78 35.345H209.38C209.185 36.545 208.69 38.03 207.73 39.215C206.545 40.685 204.85 42.005 201.835 42.68L203.815 44.855C206.455 44 208.57 42.455 209.92 40.64C211.21 38.9 211.825 36.62 212.185 35.21C212.275 34.88 212.41 34.34 212.575 34.01ZM227.53 36.575L226.195 35.36C225.925 35.435 225.13 35.48 224.74 35.48H218.05C217.51 35.48 216.895 35.42 216.385 35.345V37.655C217 37.595 217.51 37.565 218.05 37.565H224.17C223.855 38.12 223.015 39.02 222.265 39.59C222.295 39.11 222.31 38.63 222.325 38.15H219.82C219.895 38.495 219.955 38.915 219.955 39.32C219.955 41.18 219.625 42.32 218.11 43.37C217.6 43.73 217.21 43.91 216.775 44.09L218.68 45.605C221.695 43.955 222.145 41.78 222.265 39.62L224.05 40.85C224.965 40.1 226.435 38.18 227.005 37.265C227.11 37.1 227.365 36.755 227.53 36.575ZM232.735 32.36L231.01 34.205C232.09 34.97 233.98 36.62 234.775 37.49L236.635 35.585C235.735 34.625 233.77 33.065 232.735 32.36ZM230.515 42.32L232.06 44.72C233.95 44.42 235.9 43.64 237.43 42.74C239.935 41.27 242.065 39.185 243.265 37.055L241.855 34.49C240.85 36.605 238.825 38.93 236.125 40.49C234.655 41.345 232.72 42.02 230.515 42.32ZM254.44 32.63L252.94 33.26C253.525 34.085 253.78 34.55 254.26 35.585L255.805 34.91C255.475 34.235 254.89 33.305 254.44 32.63ZM256.495 31.775L255.01 32.465C255.595 33.26 255.88 33.68 256.405 34.715L257.905 33.98C257.575 33.32 256.96 32.42 256.495 31.775ZM248.065 42.725C248.065 43.34 247.99 44.345 247.885 44.99H250.735C250.66 44.315 250.57 43.13 250.57 42.725V38.87C252.16 39.44 254.215 40.235 255.73 41.015L256.765 38.48C255.505 37.865 252.595 36.8 250.57 36.215V34.16C250.57 33.44 250.66 32.78 250.72 32.21H247.885C248.005 32.78 248.065 33.56 248.065 34.16V42.725ZM273.07 38.705C273.07 35.3 270.655 32.66 266.83 32.66C262.825 32.66 259.75 35.69 259.75 39.26C259.75 41.825 261.16 43.835 263.02 43.835C264.79 43.835 266.14 41.825 267.025 38.825C267.445 37.43 267.715 36.125 267.91 34.91C269.635 35.315 270.58 36.695 270.58 38.63C270.58 40.61 269.305 41.945 267.4 42.41C266.965 42.515 266.56 42.605 265.93 42.68L267.31 44.84C271.21 44.18 273.07 41.87 273.07 38.705ZM262.105 39.02C262.105 37.595 263.215 35.57 265.435 34.97C265.255 36.14 265 37.325 264.67 38.345C264.13 40.085 263.68 41 263.08 41C262.555 41 262.105 40.325 262.105 39.02ZM286.285 34.205L284.395 33.26C284.095 33.395 283.18 33.485 282.745 33.485H278.455C277.945 33.485 277.135 33.425 276.625 33.365V35.915C277.195 35.87 277.84 35.84 278.47 35.84H283.24C283.195 36.77 282.73 39.53 282.46 41.135H276.58C276.085 41.135 275.5 41.09 275.005 41V43.64C275.53 43.58 276.1 43.55 276.58 43.55H286.51C286.885 43.55 287.56 43.58 287.995 43.64V41C287.605 41.06 287.08 41.135 286.51 41.135H285.13C285.415 39.455 285.925 36.335 286.105 35C286.12 34.88 286.21 34.445 286.285 34.205ZM290.29 36.8V39.665C290.905 39.62 292.03 39.575 292.885 39.575H300.85C301.465 39.575 302.305 39.65 302.695 39.665V36.8C302.26 36.83 301.525 36.905 300.85 36.905H292.885C292.15 36.905 290.89 36.845 290.29 36.8ZM317.717 31.715L316.532 32.09C316.832 32.705 317.087 33.47 317.297 34.115L318.482 33.74C318.317 33.185 318.002 32.33 317.717 31.715ZM314.927 37.73V37.25H315.737C316.592 37.25 317.117 37.25 317.537 37.295V34.895C317.012 34.985 316.592 35.015 315.722 35.015H314.927V33.605C314.927 33.23 314.942 32.915 314.972 32.63C315.257 33.215 315.467 33.98 315.677 34.625L316.877 34.235C316.727 33.665 316.427 32.825 316.142 32.21L314.987 32.57C315.002 32.405 315.017 32.255 315.032 32.12H312.452C312.512 32.495 312.542 32.99 312.542 33.605V35.015H309.392V33.785C309.392 33.14 309.452 32.63 309.497 32.27H306.917C306.977 32.795 307.022 33.275 307.022 33.77V35.015H305.942C305.132 35.015 304.592 34.91 304.247 34.85V37.31C304.682 37.28 305.132 37.25 305.942 37.25H307.022V39.065C307.022 39.8 306.977 40.385 306.932 40.76H309.467C309.437 40.385 309.392 39.8 309.392 39.065V37.25H312.542V37.79C312.542 41.18 311.327 42.485 308.327 43.475L310.277 45.305C314.012 43.67 314.927 41.285 314.927 37.73ZM319.997 36.8V39.665C320.612 39.62 321.737 39.575 322.592 39.575H330.557C331.172 39.575 332.012 39.65 332.402 39.665V36.8C331.967 36.83 331.232 36.905 330.557 36.905H322.592C321.857 36.905 320.597 36.845 319.997 36.8Z" fill="white"/>
<g filter="url(#filter0_d)">
<path fill-rule="evenodd" clip-rule="evenodd" d="M190 79C190 69.0589 198.059 61 208 61H326C335.941 61 344 69.0589 344 79V168C344 177.941 335.941 186 326 186H208C198.059 186 190 177.941 190 168V156.194L161 130H190V79Z" fill="white"/>
</g>
<g opacity="0.4">
<path fill-rule="evenodd" clip-rule="evenodd" d="M274.345 100.29H264.643V108.44L269.494 114.261L274.345 108.44V100.29Z" fill="#B7A9F9"/>
<path fill-rule="evenodd" clip-rule="evenodd" d="M260.762 97.2267C261.834 97.2267 262.703 96.3579 262.703 95.2862C262.703 94.2145 261.834 93.3457 260.762 93.3457C259.69 93.3457 258.822 94.2145 258.822 95.2862C258.822 96.3579 259.69 97.2267 260.762 97.2267Z" fill="#B7A9F9"/>
<path fill-rule="evenodd" clip-rule="evenodd" d="M278.226 97.2267C279.298 97.2267 280.167 96.3579 280.167 95.2862C280.167 94.2145 279.298 93.3457 278.226 93.3457C277.155 93.3457 276.286 94.2145 276.286 95.2862C276.286 96.3579 277.155 97.2267 278.226 97.2267Z" fill="#B7A9F9"/>
<path fill-rule="evenodd" clip-rule="evenodd" d="M279.197 90.4347C279.197 88.2983 274.852 84.6133 269.494 84.6133C264.136 84.6133 259.792 88.4515 259.792 90.4347C259.792 92.2782 260.909 99.0504 263.32 101.461C264.23 102.371 265.291 103.028 266.42 103.453C267.131 104.381 268.237 104.988 269.494 104.988C270.752 104.988 271.858 104.381 272.568 103.453C273.697 103.028 274.761 102.371 275.669 101.461C278.079 99.0504 279.197 92.2782 279.197 90.4347Z" fill="#B7A9F9"/>
<path fill-rule="evenodd" clip-rule="evenodd" d="M269.494 79.7617C264.136 79.7617 259.792 84.1065 259.792 89.4641C259.792 90.479 259.792 93.8457 259.792 93.8457L261.732 95.2855V91.4046C265.695 91.4046 271.617 89.3263 273.375 85.5832C274.208 88.8063 277.256 91.4046 277.256 91.4046V95.2855L279.197 93.8457C279.197 93.8457 279.197 90.479 279.197 89.4641C279.197 84.1065 274.852 79.7617 269.494 79.7617Z" fill="#B7A9F9"/>
<path fill-rule="evenodd" clip-rule="evenodd" d="M285.988 116.631C285.988 108.171 274.782 104.988 269.494 104.988C264.206 104.988 253 108.171 253 116.631V141.857H285.988V116.631Z" fill="#B7A9F9"/>
<path fill-rule="evenodd" clip-rule="evenodd" d="M322.857 100.29H313.155V108.44L318.006 114.261L322.857 108.44V100.29Z" fill="#B7A9F9"/>
<path fill-rule="evenodd" clip-rule="evenodd" d="M309.274 97.2267C310.346 97.2267 311.214 96.3579 311.214 95.2862C311.214 94.2145 310.346 93.3457 309.274 93.3457C308.202 93.3457 307.333 94.2145 307.333 95.2862C307.333 96.3579 308.202 97.2267 309.274 97.2267Z" fill="#B7A9F9"/>
<path fill-rule="evenodd" clip-rule="evenodd" d="M326.738 97.2267C327.81 97.2267 328.679 96.3579 328.679 95.2862C328.679 94.2145 327.81 93.3457 326.738 93.3457C325.666 93.3457 324.798 94.2145 324.798 95.2862C324.798 96.3579 325.666 97.2267 326.738 97.2267Z" fill="#B7A9F9"/>
<path fill-rule="evenodd" clip-rule="evenodd" d="M327.708 90.4347C327.708 88.2983 323.364 84.6133 318.006 84.6133C312.648 84.6133 308.304 88.4515 308.304 90.4347C308.304 92.2782 309.421 99.0504 311.831 101.461C312.741 102.371 313.803 103.028 314.932 103.453C315.643 104.381 316.749 104.988 318.006 104.988C319.263 104.988 320.37 104.381 321.08 103.453C322.209 103.028 323.272 102.371 324.181 101.461C326.591 99.0504 327.708 92.2782 327.708 90.4347Z" fill="#B7A9F9"/>
<path fill-rule="evenodd" clip-rule="evenodd" d="M318.006 79.7617C312.648 79.7617 308.304 84.1065 308.304 89.4641C308.304 90.479 308.304 93.8457 308.304 93.8457L310.244 95.2855V91.4046C314.207 91.4046 320.129 89.3263 321.887 85.5832C322.719 88.8063 325.768 91.4046 325.768 91.4046V95.2855L327.708 93.8457C327.708 93.8457 327.708 90.479 327.708 89.4641C327.708 84.1065 323.364 79.7617 318.006 79.7617Z" fill="#B7A9F9"/>
<path fill-rule="evenodd" clip-rule="evenodd" d="M334.5 116.631C334.5 108.171 323.294 104.988 318.006 104.988C312.718 104.988 301.512 108.171 301.512 116.631V141.857H334.5V116.631Z" fill="#B7A9F9"/>
<path fill-rule="evenodd" clip-rule="evenodd" d="M298.601 92.5283H288.899V100.678L293.75 106.5L298.601 100.678V92.5283Z" fill="#B7A9F9"/>
<path fill-rule="evenodd" clip-rule="evenodd" d="M285.018 89.464C286.09 89.464 286.958 88.5952 286.958 87.5235C286.958 86.4518 286.09 85.583 285.018 85.583C283.946 85.583 283.077 86.4518 283.077 87.5235C283.077 88.5952 283.946 89.464 285.018 89.464Z" fill="#B7A9F9"/>
<path fill-rule="evenodd" clip-rule="evenodd" d="M302.482 89.464C303.554 89.464 304.423 88.5952 304.423 87.5235C304.423 86.4518 303.554 85.583 302.482 85.583C301.41 85.583 300.542 86.4518 300.542 87.5235C300.542 88.5952 301.41 89.464 302.482 89.464Z" fill="#B7A9F9"/>
<path fill-rule="evenodd" clip-rule="evenodd" d="M303.452 82.673C303.452 80.5365 299.108 76.8516 293.75 76.8516C288.392 76.8516 284.048 80.6898 284.048 82.673C284.048 84.5165 285.165 91.2887 287.575 93.6988C288.486 94.6089 289.547 95.2667 290.676 95.6917C291.387 96.6192 292.493 97.2266 293.75 97.2266C295.007 97.2266 296.114 96.6192 296.824 95.6917C297.953 95.2667 299.017 94.6089 299.925 93.6988C302.335 91.2887 303.452 84.5165 303.452 82.673Z" fill="#B7A9F9"/>
<path fill-rule="evenodd" clip-rule="evenodd" d="M293.75 72C288.392 72 284.048 76.3447 284.048 81.7024C284.048 82.7173 284.048 86.084 284.048 86.084L285.988 87.5238V83.6429C289.951 83.6429 295.873 81.5646 297.631 77.8214C298.463 81.0446 301.512 83.6429 301.512 83.6429V87.5238L303.452 86.084C303.452 86.084 303.452 82.7173 303.452 81.7024C303.452 76.3447 299.108 72 293.75 72Z" fill="#B7A9F9"/>
<path fill-rule="evenodd" clip-rule="evenodd" d="M310.244 108.869C310.244 100.409 299.038 97.2266 293.75 97.2266C288.462 97.2266 277.256 100.409 277.256 108.869V141.858H310.244V108.869Z" fill="#B7A9F9"/>
<path fill-rule="evenodd" clip-rule="evenodd" d="M277.256 141.858H310.244C310.244 134.135 299.038 132.155 293.75 132.155C288.462 132.155 277.256 134.135 277.256 141.858Z" fill="#5C38FA"/>
<path fill-rule="evenodd" clip-rule="evenodd" d="M298.601 127.457H288.899V135.607L293.75 141.428L298.601 135.607V127.457Z" fill="#5C38FA"/>
<path fill-rule="evenodd" clip-rule="evenodd" d="M285.018 124.393C286.09 124.393 286.958 123.524 286.958 122.452C286.958 121.381 286.09 120.512 285.018 120.512C283.946 120.512 283.077 121.381 283.077 122.452C283.077 123.524 283.946 124.393 285.018 124.393Z" fill="#5C38FA"/>
<path fill-rule="evenodd" clip-rule="evenodd" d="M302.482 124.393C303.554 124.393 304.423 123.524 304.423 122.452C304.423 121.381 303.554 120.512 302.482 120.512C301.41 120.512 300.542 121.381 300.542 122.452C300.542 123.524 301.41 124.393 302.482 124.393Z" fill="#5C38FA"/>
<path fill-rule="evenodd" clip-rule="evenodd" d="M303.452 117.602C303.452 115.465 299.108 111.78 293.75 111.78C288.392 111.78 284.048 115.619 284.048 117.602C284.048 119.445 285.165 126.217 287.575 128.628C288.486 129.538 289.547 130.195 290.676 130.62C291.387 131.548 292.493 132.155 293.75 132.155C295.007 132.155 296.114 131.548 296.824 130.62C297.953 130.195 299.017 129.538 299.925 128.628C302.335 126.217 303.452 119.445 303.452 117.602Z" fill="#5C38FA"/>
<path fill-rule="evenodd" clip-rule="evenodd" d="M293.75 106.929C288.392 106.929 284.048 111.273 284.048 116.631C284.048 117.646 284.048 121.013 284.048 121.013L285.988 122.453V118.572C289.951 118.572 295.873 116.493 297.631 112.75C298.463 115.973 301.512 118.572 301.512 118.572V122.453L303.452 121.013C303.452 121.013 303.452 117.646 303.452 116.631C303.452 111.273 299.108 106.929 293.75 106.929Z" fill="#5C38FA"/>
</g>
<path d="M239.41 155.7H232.51V157.38H239.41V155.7ZM229.63 155.205C228.85 157.275 227.5 159.345 226.12 160.65C226.48 161.19 227.05 162.39 227.23 162.915C227.575 162.57 227.92 162.195 228.25 161.775V169.38H230.32V158.655C230.83 157.74 231.28 156.78 231.655 155.865L229.63 155.205ZM237.73 166.14V167.19H234.04V166.14H237.73ZM231.955 169.41H234.04V168.885H237.73V169.365H239.935V164.475H231.955V169.41ZM232.24 163.965H239.605V162.285H232.24V163.965ZM239.68 160.11H232.24V161.79H239.68V160.11ZM231.07 157.875V159.615H240.67V157.875H231.07ZM243.355 160.89H244.03V161.94H243.355V160.89ZM246.34 161.94H245.65V160.89H246.34V161.94ZM248.125 165.285C247.885 165.015 247.075 164.19 246.43 163.56H248.005V159.285H245.8V158.55H248.005V156.645H245.8V155.205H243.88V156.645H241.585V158.55H243.88V159.285H241.795V163.56H243.37C242.785 164.55 241.975 165.6 241.195 166.26C241.495 166.8 241.93 167.685 242.095 168.27C242.725 167.685 243.34 166.83 243.88 165.915V169.41H245.8V165.3C246.22 165.885 246.625 166.5 246.88 166.965L248.125 165.285ZM253.06 160.605H250.63V159.975H253.06V160.605ZM253.06 162.705H250.63V162.075H253.06V162.705ZM253.06 164.82H250.63V164.19H253.06V164.82ZM255.115 166.41V158.385H252.64C252.73 158.115 252.835 157.83 252.94 157.545H255.55V155.7H248.185V157.545H250.66C250.63 157.815 250.585 158.115 250.54 158.385H248.68V166.41H249.685C248.995 167.01 247.84 167.73 246.82 168.105C247.27 168.465 247.885 169.08 248.23 169.47C249.37 169.02 250.75 168.15 251.575 167.37L250.12 166.41H253.495L251.935 167.37C252.715 167.985 253.75 168.9 254.215 169.455L255.91 168.36C255.37 167.79 254.305 166.965 253.54 166.41H255.115ZM261.835 155.985L258.91 155.955C259.06 156.63 259.135 157.455 259.135 158.265C259.135 159.39 259 163.41 259 165.3C259 167.925 260.635 169.11 263.26 169.11C266.755 169.11 268.99 167.04 269.92 165.6L268.27 163.575C267.175 165.255 265.6 166.62 263.275 166.62C262.255 166.62 261.43 166.17 261.43 164.73C261.43 163.08 261.535 159.84 261.61 158.265C261.64 157.605 261.73 156.69 261.835 155.985ZM271.506 157.485L271.731 159.96C273.531 159.555 276.171 159.255 277.461 159.12C276.651 159.855 275.556 161.445 275.556 163.5C275.556 166.695 278.421 168.51 281.766 168.765L282.621 166.245C280.026 166.095 277.956 165.225 277.956 163.02C277.956 161.235 279.351 159.48 280.971 159.12C281.796 158.955 283.071 158.955 283.851 158.94L283.836 156.6C282.741 156.645 280.971 156.75 279.471 156.87C276.726 157.11 274.461 157.29 273.051 157.41C272.766 157.44 272.106 157.47 271.506 157.485ZM289.746 157.14L286.956 157.11C287.061 157.635 287.091 158.28 287.091 158.73C287.091 159.675 287.106 161.4 287.256 162.825C287.676 166.92 289.146 168.435 290.931 168.435C292.236 168.435 293.196 167.505 294.246 164.85L292.416 162.6C292.191 163.62 291.666 165.495 290.976 165.495C290.106 165.495 289.806 164.115 289.626 162.15C289.536 161.145 289.536 160.17 289.536 159.18C289.536 158.745 289.626 157.77 289.746 157.14ZM297.081 157.425L294.756 158.175C296.511 160.095 297.246 164.04 297.456 166.305L299.871 165.375C299.736 163.215 298.551 159.15 297.081 157.425ZM306.591 166.125C306.591 165.825 306.876 165.525 307.371 165.525C308.001 165.525 308.451 166.065 308.526 166.89C308.316 166.905 308.091 166.92 307.851 166.92C307.086 166.92 306.591 166.59 306.591 166.125ZM303.696 156.36L303.771 158.715C304.131 158.655 304.671 158.61 305.121 158.58C305.931 158.52 307.476 158.46 308.226 158.445C307.506 159.09 306.111 160.17 305.271 160.86C304.386 161.595 302.631 163.08 301.671 163.83L303.321 165.54C304.761 163.785 306.336 162.465 308.526 162.465C310.176 162.465 311.496 163.275 311.496 164.565C311.496 165.3 311.211 165.885 310.611 166.29C310.356 164.865 309.186 163.8 307.356 163.8C305.646 163.8 304.446 165.03 304.446 166.35C304.446 168 306.201 168.99 308.316 168.99C312.201 168.99 313.896 166.935 313.896 164.595C313.896 162.33 311.871 160.68 309.291 160.68C308.931 160.68 308.631 160.695 308.241 160.77C309.066 160.14 310.386 159.06 311.226 158.49C311.601 158.22 311.991 157.995 312.381 157.755L311.256 156.15C311.061 156.21 310.641 156.27 309.921 156.33C309.036 156.405 306.036 156.45 305.226 156.45C304.731 156.45 304.161 156.42 303.696 156.36Z" fill="#211261"/>
<path d="M236.703 111.682C236.703 113.752 236.186 115.588 235.15 117.189C234.115 118.791 232.689 120.07 230.873 121.027C232.943 122.023 234.584 123.4 235.795 125.158C237.006 126.896 237.611 128.947 237.611 131.311C237.611 135.1 236.322 138.098 233.744 140.305C231.166 142.492 227.66 143.586 223.227 143.586C218.793 143.586 215.277 142.482 212.68 140.275C210.082 138.068 208.783 135.08 208.783 131.311C208.783 128.947 209.389 126.887 210.6 125.129C211.811 123.371 213.441 122.004 215.492 121.027C213.676 120.07 212.25 118.791 211.215 117.189C210.199 115.588 209.691 113.752 209.691 111.682C209.691 108.049 210.902 105.158 213.324 103.01C215.746 100.842 219.037 99.7578 223.197 99.7578C227.338 99.7578 230.619 100.832 233.041 102.98C235.482 105.109 236.703 108.01 236.703 111.682ZM229.115 130.695C229.115 128.84 228.578 127.355 227.504 126.242C226.43 125.129 224.984 124.572 223.168 124.572C221.371 124.572 219.936 125.129 218.861 126.242C217.787 127.336 217.25 128.82 217.25 130.695C217.25 132.512 217.777 133.977 218.832 135.09C219.887 136.203 221.352 136.76 223.227 136.76C225.062 136.76 226.498 136.223 227.533 135.148C228.588 134.074 229.115 132.59 229.115 130.695ZM228.236 112.092C228.236 110.432 227.797 109.104 226.918 108.107C226.039 107.092 224.799 106.584 223.197 106.584C221.615 106.584 220.385 107.072 219.506 108.049C218.627 109.025 218.188 110.373 218.188 112.092C218.188 113.791 218.627 115.158 219.506 116.193C220.385 117.229 221.625 117.746 223.227 117.746C224.828 117.746 226.059 117.229 226.918 116.193C227.797 115.158 228.236 113.791 228.236 112.092ZM271.064 125.363C271.064 131.262 269.844 135.773 267.402 138.898C264.961 142.023 261.387 143.586 256.68 143.586C252.031 143.586 248.477 142.053 246.016 138.986C243.555 135.92 242.295 131.525 242.236 125.803V117.951C242.236 111.994 243.467 107.473 245.928 104.387C248.408 101.301 251.973 99.7578 256.621 99.7578C261.27 99.7578 264.824 101.291 267.285 104.357C269.746 107.404 271.006 111.789 271.064 117.512V125.363ZM262.598 116.75C262.598 113.215 262.109 110.646 261.133 109.045C260.176 107.424 258.672 106.613 256.621 106.613C254.629 106.613 253.154 107.385 252.197 108.928C251.26 110.451 250.762 112.844 250.703 116.105V126.477C250.703 129.953 251.172 132.541 252.109 134.24C253.066 135.92 254.59 136.76 256.68 136.76C258.75 136.76 260.244 135.949 261.162 134.328C262.08 132.707 262.559 130.227 262.598 126.887V116.75Z" fill="#5C38FA"/>
<path d="M274.928 129.516C274.928 128.643 275.211 127.937 275.777 127.396C276.344 126.85 277.086 126.576 278.004 126.576C278.935 126.576 279.684 126.846 280.25 127.387C280.816 127.921 281.1 128.646 281.1 129.564V130.268C281.1 131.146 280.816 131.853 280.25 132.387C279.684 132.921 278.941 133.188 278.023 133.188C277.099 133.188 276.35 132.921 275.777 132.387C275.211 131.846 274.928 131.12 274.928 130.209V129.516ZM276.803 130.268C276.803 130.658 276.913 130.974 277.135 131.215C277.363 131.449 277.659 131.566 278.023 131.566C278.388 131.566 278.678 131.446 278.893 131.205C279.107 130.964 279.215 130.642 279.215 130.238V129.516C279.215 129.125 279.107 128.809 278.893 128.568C278.678 128.327 278.382 128.207 278.004 128.207C277.646 128.207 277.356 128.327 277.135 128.568C276.913 128.803 276.803 129.132 276.803 129.555V130.268ZM281.725 137.514C281.725 136.635 282.011 135.928 282.584 135.395C283.157 134.854 283.899 134.584 284.811 134.584C285.735 134.584 286.48 134.851 287.047 135.385C287.62 135.912 287.906 136.641 287.906 137.572V138.275C287.906 139.148 287.626 139.854 287.066 140.395C286.507 140.928 285.761 141.195 284.83 141.195C283.893 141.195 283.141 140.925 282.574 140.385C282.008 139.844 281.725 139.128 281.725 138.236V137.514ZM283.6 138.275C283.6 138.633 283.717 138.939 283.951 139.193C284.186 139.447 284.479 139.574 284.83 139.574C285.624 139.574 286.021 139.135 286.021 138.256V137.514C286.021 137.123 285.911 136.811 285.689 136.576C285.468 136.335 285.175 136.215 284.811 136.215C284.446 136.215 284.153 136.335 283.932 136.576C283.71 136.811 283.6 137.133 283.6 137.543V138.275ZM278.58 139.936L277.203 139.193L284.146 128.08L285.523 128.822L278.58 139.936Z" fill="#5C38FA"/>
<defs>
<filter id="filter0_d" x="147" y="40" width="211" height="153" filterUnits="userSpaceOnUse" color-interpolation-filters="sRGB">
<feFlood flood-opacity="0" result="BackgroundImageFix"/>
<feColorMatrix in="SourceAlpha" type="matrix" values="0 0 0 0 0 0 0 0 0 0 0 0 0 0 0 0 0 0 127 0"/>
<feOffset dy="-7"/>
<feGaussianBlur stdDeviation="7"/>
<feColorMatrix type="matrix" values="0 0 0 0 0 0 0 0 0 0 0 0 0 0 0 0 0 0 0.06 0"/>
<feBlend mode="normal" in2="BackgroundImageFix" result="effect1_dropShadow"/>
<feBlend mode="normal" in="SourceGraphic" in2="effect1_dropShadow" result="shape"/>
</filter>
</defs>
</svg>
