<svg width="364" height="271" viewBox="0 0 364 271" fill="none" xmlns="http://www.w3.org/2000/svg">
<path opacity="0.4" d="M268.954 202.795L238.156 185.025C235.931 183.741 236.212 181.501 238.777 180.021L258.732 168.512L297.575 190.92L277.62 202.435C275.05 203.915 271.173 204.074 268.954 202.795Z" fill="#D6D8E5"/>
<path d="M271.2 201.475L240.402 183.699C238.182 182.42 238.458 180.181 241.023 178.701L260.983 167.191L299.826 189.6L279.892 201.109C277.301 202.595 273.419 202.754 271.2 201.475Z" fill="#B1B4C4"/>
<path d="M299.821 189.599V188.427L298.026 189.461L299.821 189.599Z" fill="#B1B4C4"/>
<path d="M238.899 181.582V180.388L240.742 181.152L238.899 181.582Z" fill="#B1B4C4"/>
<path d="M271.2 200.296L240.402 182.526C238.182 181.242 238.458 179.008 241.023 177.527L260.983 166.013L299.826 188.426L279.892 199.936C277.301 201.416 273.419 201.58 271.2 200.296Z" fill="#D6D8E5"/>
<path d="M261.079 166.066L256.273 150.126L295.541 172.635L299.821 188.426L261.079 166.066Z" fill="#9EA1AF"/>
<path d="M298.684 189.079L299.821 188.426L298.127 187.073L298.684 189.079Z" fill="#9EA1AF"/>
<path d="M259.842 166.666L255.036 150.726L294.304 173.235L298.679 189.079L259.842 166.666Z" fill="#B1B4C4"/>
<path d="M359.542 215.966L207.522 128.249C205.398 127.017 203.662 123.717 203.662 120.878V3.38195C203.662 0.537798 205.393 -0.767539 207.522 0.46351L359.542 88.1598C361.666 89.3909 363.402 92.6914 363.402 95.5302V213.026C363.387 215.865 361.666 217.171 359.542 215.966Z" fill="#C4C7D6"/>
<path d="M360.307 217.154L361.99 216.183L361.263 211.195L360.307 217.154Z" fill="#C4C7D6"/>
<path d="M203.391 1.1909L205.048 0.230469L207.432 1.59417C207.432 1.59417 204.894 1.98153 204.83 1.96561C204.767 1.94969 203.391 1.1909 203.391 1.1909Z" fill="#B1B4C4"/>
<path d="M358.13 216.746L206.131 129.05C204.007 127.819 202.271 124.524 202.271 121.68V4.18337C202.271 1.34453 203.997 0.0391902 206.131 1.27024L358.13 88.9666C360.254 90.1976 361.99 93.4981 361.99 96.3369V213.844C361.99 216.672 360.264 217.977 358.13 216.746Z" fill="#E4E7F2"/>
<path d="M357.864 216.9L205.86 129.203C203.736 127.972 202 124.672 202 121.833V4.33669C202 1.49785 203.731 0.192511 205.86 1.42356L357.864 89.1464C359.988 90.3722 361.724 93.6726 361.724 96.5168V213.981C361.724 216.825 359.993 218.131 357.864 216.9Z" fill="#D6D8E5"/>
<path d="M359.632 209.752L203.959 119.923L204.013 4.80912C204.013 3.63113 204.841 3.15357 205.86 3.74787L357.864 91.4389C358.4 91.7881 358.846 92.2581 359.167 92.8111C359.488 93.364 359.675 93.9845 359.712 94.6226L359.632 209.752Z" fill="white"/>
<path d="M265.407 54.168L215.535 25.3976C215.305 25.2318 215.117 25.0144 214.986 24.7628C214.855 24.5112 214.785 24.2325 214.781 23.949V20.4734C214.781 19.9427 215.116 19.6615 215.535 19.9003L265.407 48.6708C265.636 48.8374 265.823 49.055 265.954 49.3064C266.085 49.5578 266.156 49.8361 266.161 50.1194V53.595C266.161 54.1521 265.821 54.4121 265.407 54.168Z" fill="#E8E9FB"/>
<path d="M252.599 55.0008L215.764 33.7493C215.533 33.5852 215.343 33.369 215.211 33.1183C215.08 32.8675 215.009 32.5893 215.004 32.306V30.5762C215.004 30.0456 215.344 29.759 215.764 30.0031L252.599 51.2546C252.827 51.4207 253.013 51.6377 253.142 51.8883C253.271 52.1389 253.34 52.4161 253.342 52.6979V54.4277C253.342 54.9849 253.013 55.2449 252.599 55.0008Z" fill="#E8E9FB"/>
<path d="M252.599 61.5543L215.764 40.3293C215.533 40.1652 215.343 39.949 215.211 39.6982C215.08 39.4475 215.009 39.1692 215.004 38.886V37.1455C215.004 36.6149 215.344 36.3284 215.764 36.5724L252.599 57.8399C252.829 58.0049 253.017 58.2213 253.148 58.472C253.279 58.7226 253.349 59.0005 253.353 59.2832V61.013C253.342 61.5543 253.013 61.8036 252.599 61.5543Z" fill="#E8E9FB"/>
<path d="M245.648 64.1118L215.764 46.8665C215.533 46.7024 215.343 46.4862 215.211 46.2355C215.08 45.9847 215.009 45.7065 215.004 45.4232V43.6934C215.004 43.1627 215.344 42.8762 215.764 43.1203L245.648 60.3603C245.879 60.5258 246.068 60.743 246.2 60.9946C246.332 61.2461 246.403 61.525 246.408 61.8089V63.5387C246.408 64.0959 246.068 64.3506 245.648 64.1118Z" fill="#4027AF"/>
<path d="M265.407 123.022L215.535 94.2519C215.305 94.0861 215.117 93.8687 214.986 93.6171C214.855 93.3655 214.785 93.0868 214.781 92.8033V89.3277C214.781 88.7705 215.116 88.5158 215.535 88.7546L265.407 117.525C265.636 117.692 265.823 117.909 265.954 118.161C266.085 118.412 266.156 118.69 266.161 118.974V122.449C266.161 123.006 265.821 123.261 265.407 123.022Z" fill="#E8E9FB"/>
<path d="M252.599 123.855L215.764 102.63C215.533 102.464 215.344 102.247 215.212 101.996C215.08 101.744 215.009 101.465 215.004 101.181V99.4515C215.004 98.8943 215.344 98.6396 215.764 98.8837L252.599 120.109C252.828 120.275 253.016 120.493 253.147 120.744C253.277 120.996 253.348 121.274 253.353 121.557V123.287C253.342 123.839 253.013 124.094 252.599 123.855Z" fill="#E8E9FB"/>
<path d="M252.599 130.413L215.764 109.162C215.533 108.997 215.344 108.781 215.213 108.53C215.081 108.28 215.009 108.002 215.004 107.719V105.989C215.004 105.458 215.344 105.177 215.764 105.421L252.599 126.646C252.828 126.813 253.016 127.03 253.147 127.282C253.277 127.533 253.348 127.811 253.353 128.094V129.824C253.342 130.397 253.013 130.652 252.599 130.413Z" fill="#E8E9FB"/>
<path d="M245.648 132.961L215.764 115.721C215.532 115.556 215.343 115.338 215.211 115.087C215.08 114.835 215.009 114.556 215.004 114.272V112.542C215.004 111.985 215.344 111.73 215.764 111.975L245.648 129.215C245.879 129.38 246.068 129.597 246.2 129.849C246.332 130.1 246.403 130.379 246.408 130.663V132.393C246.408 132.95 246.068 133.189 245.648 132.961Z" fill="#4027AF"/>
<path d="M278.751 131.565C278.751 131.565 284.252 136.181 292.196 129.877C297.867 125.229 302.938 127.882 305.763 129.474C308.587 131.066 312.666 132.042 320.434 146.061C320.434 146.061 322.962 150.455 327.135 152.864C331.309 155.273 333.316 154.095 336.598 149.149C339.879 144.204 342.03 138.728 348.062 142.304V192.019L278.209 151.76V131.241L278.751 131.565Z" fill="#F5F6FF"/>
<path d="M263.569 110.489L215.779 82.8963C215.549 82.7307 215.36 82.5135 215.228 82.262C215.096 82.0104 215.025 81.7316 215.02 81.4477V53.8923C215.02 53.3617 215.36 53.0805 215.779 53.3192L263.569 80.9117C263.8 81.0772 263.989 81.2945 264.121 81.546C264.253 81.7975 264.324 82.0764 264.329 82.3603V109.926C264.329 110.473 263.989 110.728 263.569 110.489Z" fill="#E8E9FB"/>
<path d="M278.209 130.408V151.75L348.062 192.046V142.331" stroke="#E9EAF2" stroke-width="0.31" stroke-miterlimit="10"/>
<path d="M305.662 129.724V167.536" stroke="#E9EAF2" stroke-width="0.31" stroke-miterlimit="10"/>
<path d="M327.034 153.639V179.862" stroke="#E9EAF2" stroke-width="0.31" stroke-miterlimit="10"/>
<path d="M278.209 131.241C290.602 138.919 292.355 121.562 305.858 129.352C319.361 137.142 317.498 147.292 327.464 153.044C337.431 158.796 337.665 136.33 348.062 142.331" stroke="#E9EAF2" stroke-width="1.53" stroke-miterlimit="10"/>
<path d="M306.824 131.747C307.466 131.377 307.465 130.173 306.822 129.059C306.178 127.945 305.135 127.342 304.493 127.713C303.85 128.083 303.851 129.287 304.495 130.401C305.139 131.515 306.181 132.118 306.824 131.747Z" fill="#4027AF"/>
<path d="M350.202 144.931C350.848 144.56 350.849 143.352 350.205 142.233C349.562 141.114 348.517 140.507 347.871 140.878C347.226 141.248 347.224 142.456 347.868 143.575C348.512 144.695 349.557 145.302 350.202 144.931Z" fill="#4027AF"/>
<path d="M329.086 155.817C329.731 155.446 329.733 154.238 329.089 153.119C328.446 151.999 327.4 151.393 326.755 151.763C326.109 152.134 326.108 153.342 326.752 154.461C327.395 155.58 328.44 156.187 329.086 155.817Z" fill="#4027AF"/>
<path d="M279.375 133.263C280.017 132.892 280.016 131.688 279.373 130.574C278.729 129.46 277.686 128.857 277.044 129.228C276.401 129.599 276.402 130.803 277.046 131.917C277.689 133.031 278.732 133.634 279.375 133.263Z" fill="#4027AF"/>
<path d="M280.179 94.5753L277.317 92.9251C277.086 92.7595 276.897 92.5423 276.765 92.2908C276.633 92.0392 276.562 91.7604 276.558 91.4765V77.6802C276.558 77.1231 276.897 76.8684 277.317 77.1071L280.179 78.7627C280.41 78.9224 280.6 79.1336 280.734 79.3796C280.869 79.6255 280.944 79.8994 280.954 80.1795V94.0022C280.954 94.5594 280.599 94.8141 280.179 94.5753Z" fill="#E8E9FB"/>
<path d="M286.795 98.3801L283.933 96.7246C283.702 96.5605 283.513 96.3443 283.381 96.0936C283.249 95.8428 283.178 95.5646 283.174 95.2813V67.1582C283.174 66.6276 283.514 66.3411 283.933 66.5851L286.795 68.2407C287.026 68.4062 287.215 68.6234 287.347 68.875C287.479 69.1265 287.55 69.4054 287.555 69.6893V97.8124C287.533 98.3642 287.194 98.6189 286.795 98.3801Z" fill="#4027AF"/>
<path d="M299.959 105.983L297.097 104.333C296.865 104.169 296.675 103.952 296.543 103.7C296.411 103.448 296.341 103.169 296.337 102.885V77.4996C296.337 76.9424 296.677 76.6877 297.097 76.9265L299.959 78.5767C300.19 78.7423 300.378 78.9595 300.51 79.211C300.642 79.4625 300.713 79.7414 300.718 80.0253V105.416C300.718 105.973 300.378 106.228 299.959 105.983Z" fill="#E8E9FB"/>
<path d="M306.554 109.788L303.692 108.138C303.461 107.972 303.272 107.755 303.14 107.503C303.008 107.252 302.937 106.973 302.932 106.689V85.655C302.932 85.1244 303.272 84.8432 303.692 85.0819L306.554 86.7375C306.785 86.9016 306.974 87.1178 307.106 87.3685C307.238 87.6193 307.309 87.8975 307.313 88.1808V109.215C307.313 109.777 306.973 110.032 306.554 109.788Z" fill="#4027AF"/>
<path d="M319.685 117.366L316.818 115.715C316.588 115.549 316.4 115.332 316.269 115.081C316.138 114.829 316.068 114.55 316.064 114.267V103.872C316.064 103.309 316.398 103.055 316.818 103.299L319.685 104.949C319.915 105.116 320.102 105.333 320.233 105.585C320.364 105.836 320.434 106.114 320.439 106.398V116.792C320.439 117.35 320.1 117.604 319.685 117.366Z" fill="#E8E9FB"/>
<path d="M326.275 121.17L323.434 119.514C323.203 119.35 323.014 119.134 322.882 118.883C322.75 118.633 322.679 118.354 322.675 118.071V82.7155C322.675 82.153 323.015 81.8983 323.434 82.1424L326.296 83.7926C326.527 83.9579 326.717 84.175 326.848 84.4266C326.98 84.6782 327.051 84.9573 327.056 85.2413V120.597C327.034 121.154 326.695 121.409 326.275 121.17Z" fill="#4027AF"/>
<path d="M342.359 130.451L339.497 128.795C339.266 128.631 339.077 128.415 338.945 128.164C338.813 127.913 338.742 127.635 338.738 127.352V116.952C338.738 116.395 339.077 116.14 339.497 116.379L342.359 118.034C342.591 118.199 342.78 118.416 342.912 118.668C343.044 118.919 343.115 119.199 343.118 119.483V129.878C343.118 130.435 342.778 130.69 342.359 130.451Z" fill="#E8E9FB"/>
<path d="M348.954 134.25L346.092 132.594C345.86 132.429 345.671 132.212 345.539 131.961C345.407 131.709 345.336 131.43 345.333 131.145V117.349C345.333 116.792 345.672 116.537 346.092 116.776L348.954 118.426C349.185 118.592 349.374 118.809 349.506 119.061C349.637 119.312 349.709 119.591 349.713 119.875V133.698C349.713 134.25 349.373 134.494 348.954 134.25Z" fill="#4027AF"/>
<rect x="88" y="15" width="84" height="37" rx="8" fill="#4027AF"/>
<path d="M104.5 28.34C100.66 28.34 97.54 31.46 97.54 35.3C97.54 39.14 100.66 42.26 104.5 42.26C108.34 42.26 111.46 39.14 111.46 35.3C111.46 31.46 108.34 28.34 104.5 28.34ZM104.5 30.59C107.095 30.59 109.21 32.705 109.21 35.3C109.21 37.895 107.095 40.01 104.5 40.01C101.905 40.01 99.79 37.895 99.79 35.3C99.79 32.705 101.905 30.59 104.5 30.59ZM119.5 28.34C115.66 28.34 112.54 31.46 112.54 35.3C112.54 39.14 115.66 42.26 119.5 42.26C123.34 42.26 126.46 39.14 126.46 35.3C126.46 31.46 123.34 28.34 119.5 28.34ZM119.5 30.59C122.095 30.59 124.21 32.705 124.21 35.3C124.21 37.895 122.095 40.01 119.5 40.01C116.905 40.01 114.79 37.895 114.79 35.3C114.79 32.705 116.905 30.59 119.5 30.59ZM130.18 32.18V31.295H138.715V32.18H135.505V31.55H133.3V32.18H130.18ZM141.13 38.855V36.98H135.43C135.46 36.755 135.49 36.53 135.49 36.305H139.375V34.565H135.505V33.92H139.735V32.81H140.98V29.405H135.61V28.205H133.36V29.405H128.02V32.81H129.4V33.92H133.3V34.565H129.64V36.305H133.285C133.27 36.53 133.255 36.755 133.195 36.98H127.96V38.855H132.1C131.26 39.59 129.865 40.22 127.6 40.67C128.08 41.12 128.71 41.96 128.95 42.425C131.8 41.705 133.48 40.655 134.425 39.41C135.61 41.105 137.305 42.05 140.08 42.47C140.35 41.885 140.905 41.015 141.355 40.565C139.15 40.37 137.59 39.815 136.54 38.855H141.13ZM151.09 30.425H148.54V31.64H151.09V31.985H147.835V33.305H156.49V31.985H153.265V31.64H155.905V30.425H153.265V30.065H156.235V28.79H153.265V28.175H151.09V28.79H148.195V30.065H151.09V30.425ZM145.315 34.55C145.525 34.28 145.735 34.01 145.945 33.725C146.065 33.965 146.17 34.22 146.275 34.49L145.315 34.55ZM148.48 39.605C148.39 38.9 148.09 37.82 147.745 36.995L146.305 37.445V36.275L146.86 36.215C146.935 36.485 146.995 36.74 147.025 36.95L148.645 36.245C148.495 35.36 147.955 34.04 147.415 33.02L146.065 33.56C146.74 32.66 147.415 31.685 148 30.8L146.245 30.005C145.915 30.695 145.48 31.49 145.015 32.27C144.925 32.15 144.835 32.03 144.73 31.91C145.255 31.07 145.87 29.9 146.425 28.835L144.55 28.19C144.325 28.94 143.965 29.87 143.59 30.68L143.32 30.425L142.27 31.91C142.84 32.51 143.5 33.29 143.905 33.965C143.725 34.205 143.56 34.445 143.395 34.67L142.27 34.73L142.42 36.59L144.445 36.425V37.415L142.765 37.13C142.675 38.375 142.48 39.725 142.09 40.595C142.51 40.76 143.29 41.105 143.65 41.345C144.01 40.475 144.295 39.17 144.445 37.865V42.425H146.305V37.625C146.59 38.435 146.83 39.455 146.89 40.13L148.48 39.605ZM150.685 38.24H153.775V38.69H150.685V38.24ZM150.685 36.59H153.775V37.04H150.685V36.59ZM150.685 34.955H153.775V35.39H150.685V34.955ZM155.83 39.98V33.665H148.735V39.98H149.755C148.99 40.43 147.97 40.895 147.07 41.15C147.49 41.525 148.075 42.11 148.39 42.5C149.605 42.11 151.12 41.375 152.05 40.67L151.045 39.98H153.445L152.485 40.67C153.325 41.225 154.345 41.99 154.885 42.44L156.775 41.435C156.22 41.06 155.32 40.49 154.495 39.98H155.83Z" fill="white"/>
<rect x="1" y="76" width="84" height="37" rx="8" fill="#4027AF"/>
<path d="M17.5 89.34C13.66 89.34 10.54 92.46 10.54 96.3C10.54 100.14 13.66 103.26 17.5 103.26C21.34 103.26 24.46 100.14 24.46 96.3C24.46 92.46 21.34 89.34 17.5 89.34ZM17.5 91.59C20.095 91.59 22.21 93.705 22.21 96.3C22.21 98.895 20.095 101.01 17.5 101.01C14.905 101.01 12.79 98.895 12.79 96.3C12.79 93.705 14.905 91.59 17.5 91.59ZM32.5 89.34C28.66 89.34 25.54 92.46 25.54 96.3C25.54 100.14 28.66 103.26 32.5 103.26C36.34 103.26 39.46 100.14 39.46 96.3C39.46 92.46 36.34 89.34 32.5 89.34ZM32.5 91.59C35.095 91.59 37.21 93.705 37.21 96.3C37.21 98.895 35.095 101.01 32.5 101.01C29.905 101.01 27.79 98.895 27.79 96.3C27.79 93.705 29.905 91.59 32.5 91.59ZM43.18 93.18V92.295H51.715V93.18H48.505V92.55H46.3V93.18H43.18ZM54.13 99.855V97.98H48.43C48.46 97.755 48.49 97.53 48.49 97.305H52.375V95.565H48.505V94.92H52.735V93.81H53.98V90.405H48.61V89.205H46.36V90.405H41.02V93.81H42.4V94.92H46.3V95.565H42.64V97.305H46.285C46.27 97.53 46.255 97.755 46.195 97.98H40.96V99.855H45.1C44.26 100.59 42.865 101.22 40.6 101.67C41.08 102.12 41.71 102.96 41.95 103.425C44.8 102.705 46.48 101.655 47.425 100.41C48.61 102.105 50.305 103.05 53.08 103.47C53.35 102.885 53.905 102.015 54.355 101.565C52.15 101.37 50.59 100.815 49.54 99.855H54.13ZM64.09 91.425H61.54V92.64H64.09V92.985H60.835V94.305H69.49V92.985H66.265V92.64H68.905V91.425H66.265V91.065H69.235V89.79H66.265V89.175H64.09V89.79H61.195V91.065H64.09V91.425ZM58.315 95.55C58.525 95.28 58.735 95.01 58.945 94.725C59.065 94.965 59.17 95.22 59.275 95.49L58.315 95.55ZM61.48 100.605C61.39 99.9 61.09 98.82 60.745 97.995L59.305 98.445V97.275L59.86 97.215C59.935 97.485 59.995 97.74 60.025 97.95L61.645 97.245C61.495 96.36 60.955 95.04 60.415 94.02L59.065 94.56C59.74 93.66 60.415 92.685 61 91.8L59.245 91.005C58.915 91.695 58.48 92.49 58.015 93.27C57.925 93.15 57.835 93.03 57.73 92.91C58.255 92.07 58.87 90.9 59.425 89.835L57.55 89.19C57.325 89.94 56.965 90.87 56.59 91.68L56.32 91.425L55.27 92.91C55.84 93.51 56.5 94.29 56.905 94.965C56.725 95.205 56.56 95.445 56.395 95.67L55.27 95.73L55.42 97.59L57.445 97.425V98.415L55.765 98.13C55.675 99.375 55.48 100.725 55.09 101.595C55.51 101.76 56.29 102.105 56.65 102.345C57.01 101.475 57.295 100.17 57.445 98.865V103.425H59.305V98.625C59.59 99.435 59.83 100.455 59.89 101.13L61.48 100.605ZM63.685 99.24H66.775V99.69H63.685V99.24ZM63.685 97.59H66.775V98.04H63.685V97.59ZM63.685 95.955H66.775V96.39H63.685V95.955ZM68.83 100.98V94.665H61.735V100.98H62.755C61.99 101.43 60.97 101.895 60.07 102.15C60.49 102.525 61.075 103.11 61.39 103.5C62.605 103.11 64.12 102.375 65.05 101.67L64.045 100.98H66.445L65.485 101.67C66.325 102.225 67.345 102.99 67.885 103.44L69.775 102.435C69.22 102.06 68.32 101.49 67.495 100.98H68.83Z" fill="white"/>
<rect y="165" width="84" height="37" rx="8" fill="#4027AF"/>
<path d="M16.5 178.34C12.66 178.34 9.54 181.46 9.54 185.3C9.54 189.14 12.66 192.26 16.5 192.26C20.34 192.26 23.46 189.14 23.46 185.3C23.46 181.46 20.34 178.34 16.5 178.34ZM16.5 180.59C19.095 180.59 21.21 182.705 21.21 185.3C21.21 187.895 19.095 190.01 16.5 190.01C13.905 190.01 11.79 187.895 11.79 185.3C11.79 182.705 13.905 180.59 16.5 180.59ZM31.5 178.34C27.66 178.34 24.54 181.46 24.54 185.3C24.54 189.14 27.66 192.26 31.5 192.26C35.34 192.26 38.46 189.14 38.46 185.3C38.46 181.46 35.34 178.34 31.5 178.34ZM31.5 180.59C34.095 180.59 36.21 182.705 36.21 185.3C36.21 187.895 34.095 190.01 31.5 190.01C28.905 190.01 26.79 187.895 26.79 185.3C26.79 182.705 28.905 180.59 31.5 180.59ZM42.18 182.18V181.295H50.715V182.18H47.505V181.55H45.3V182.18H42.18ZM53.13 188.855V186.98H47.43C47.46 186.755 47.49 186.53 47.49 186.305H51.375V184.565H47.505V183.92H51.735V182.81H52.98V179.405H47.61V178.205H45.36V179.405H40.02V182.81H41.4V183.92H45.3V184.565H41.64V186.305H45.285C45.27 186.53 45.255 186.755 45.195 186.98H39.96V188.855H44.1C43.26 189.59 41.865 190.22 39.6 190.67C40.08 191.12 40.71 191.96 40.95 192.425C43.8 191.705 45.48 190.655 46.425 189.41C47.61 191.105 49.305 192.05 52.08 192.47C52.35 191.885 52.905 191.015 53.355 190.565C51.15 190.37 49.59 189.815 48.54 188.855H53.13ZM63.09 180.425H60.54V181.64H63.09V181.985H59.835V183.305H68.49V181.985H65.265V181.64H67.905V180.425H65.265V180.065H68.235V178.79H65.265V178.175H63.09V178.79H60.195V180.065H63.09V180.425ZM57.315 184.55C57.525 184.28 57.735 184.01 57.945 183.725C58.065 183.965 58.17 184.22 58.275 184.49L57.315 184.55ZM60.48 189.605C60.39 188.9 60.09 187.82 59.745 186.995L58.305 187.445V186.275L58.86 186.215C58.935 186.485 58.995 186.74 59.025 186.95L60.645 186.245C60.495 185.36 59.955 184.04 59.415 183.02L58.065 183.56C58.74 182.66 59.415 181.685 60 180.8L58.245 180.005C57.915 180.695 57.48 181.49 57.015 182.27C56.925 182.15 56.835 182.03 56.73 181.91C57.255 181.07 57.87 179.9 58.425 178.835L56.55 178.19C56.325 178.94 55.965 179.87 55.59 180.68L55.32 180.425L54.27 181.91C54.84 182.51 55.5 183.29 55.905 183.965C55.725 184.205 55.56 184.445 55.395 184.67L54.27 184.73L54.42 186.59L56.445 186.425V187.415L54.765 187.13C54.675 188.375 54.48 189.725 54.09 190.595C54.51 190.76 55.29 191.105 55.65 191.345C56.01 190.475 56.295 189.17 56.445 187.865V192.425H58.305V187.625C58.59 188.435 58.83 189.455 58.89 190.13L60.48 189.605ZM62.685 188.24H65.775V188.69H62.685V188.24ZM62.685 186.59H65.775V187.04H62.685V186.59ZM62.685 184.955H65.775V185.39H62.685V184.955ZM67.83 189.98V183.665H60.735V189.98H61.755C60.99 190.43 59.97 190.895 59.07 191.15C59.49 191.525 60.075 192.11 60.39 192.5C61.605 192.11 63.12 191.375 64.05 190.67L63.045 189.98H65.445L64.485 190.67C65.325 191.225 66.345 191.99 66.885 192.44L68.775 191.435C68.22 191.06 67.32 190.49 66.495 189.98H67.83Z" fill="white"/>
<rect x="225" y="211" width="84" height="37" rx="8" fill="#4027AF"/>
<path d="M241.5 224.34C237.66 224.34 234.54 227.46 234.54 231.3C234.54 235.14 237.66 238.26 241.5 238.26C245.34 238.26 248.46 235.14 248.46 231.3C248.46 227.46 245.34 224.34 241.5 224.34ZM241.5 226.59C244.095 226.59 246.21 228.705 246.21 231.3C246.21 233.895 244.095 236.01 241.5 236.01C238.905 236.01 236.79 233.895 236.79 231.3C236.79 228.705 238.905 226.59 241.5 226.59ZM256.5 224.34C252.66 224.34 249.54 227.46 249.54 231.3C249.54 235.14 252.66 238.26 256.5 238.26C260.34 238.26 263.46 235.14 263.46 231.3C263.46 227.46 260.34 224.34 256.5 224.34ZM256.5 226.59C259.095 226.59 261.21 228.705 261.21 231.3C261.21 233.895 259.095 236.01 256.5 236.01C253.905 236.01 251.79 233.895 251.79 231.3C251.79 228.705 253.905 226.59 256.5 226.59ZM267.18 228.18V227.295H275.715V228.18H272.505V227.55H270.3V228.18H267.18ZM278.13 234.855V232.98H272.43C272.46 232.755 272.49 232.53 272.49 232.305H276.375V230.565H272.505V229.92H276.735V228.81H277.98V225.405H272.61V224.205H270.36V225.405H265.02V228.81H266.4V229.92H270.3V230.565H266.64V232.305H270.285C270.27 232.53 270.255 232.755 270.195 232.98H264.96V234.855H269.1C268.26 235.59 266.865 236.22 264.6 236.67C265.08 237.12 265.71 237.96 265.95 238.425C268.8 237.705 270.48 236.655 271.425 235.41C272.61 237.105 274.305 238.05 277.08 238.47C277.35 237.885 277.905 237.015 278.355 236.565C276.15 236.37 274.59 235.815 273.54 234.855H278.13ZM288.09 226.425H285.54V227.64H288.09V227.985H284.835V229.305H293.49V227.985H290.265V227.64H292.905V226.425H290.265V226.065H293.235V224.79H290.265V224.175H288.09V224.79H285.195V226.065H288.09V226.425ZM282.315 230.55C282.525 230.28 282.735 230.01 282.945 229.725C283.065 229.965 283.17 230.22 283.275 230.49L282.315 230.55ZM285.48 235.605C285.39 234.9 285.09 233.82 284.745 232.995L283.305 233.445V232.275L283.86 232.215C283.935 232.485 283.995 232.74 284.025 232.95L285.645 232.245C285.495 231.36 284.955 230.04 284.415 229.02L283.065 229.56C283.74 228.66 284.415 227.685 285 226.8L283.245 226.005C282.915 226.695 282.48 227.49 282.015 228.27C281.925 228.15 281.835 228.03 281.73 227.91C282.255 227.07 282.87 225.9 283.425 224.835L281.55 224.19C281.325 224.94 280.965 225.87 280.59 226.68L280.32 226.425L279.27 227.91C279.84 228.51 280.5 229.29 280.905 229.965C280.725 230.205 280.56 230.445 280.395 230.67L279.27 230.73L279.42 232.59L281.445 232.425V233.415L279.765 233.13C279.675 234.375 279.48 235.725 279.09 236.595C279.51 236.76 280.29 237.105 280.65 237.345C281.01 236.475 281.295 235.17 281.445 233.865V238.425H283.305V233.625C283.59 234.435 283.83 235.455 283.89 236.13L285.48 235.605ZM287.685 234.24H290.775V234.69H287.685V234.24ZM287.685 232.59H290.775V233.04H287.685V232.59ZM287.685 230.955H290.775V231.39H287.685V230.955ZM292.83 235.98V229.665H285.735V235.98H286.755C285.99 236.43 284.97 236.895 284.07 237.15C284.49 237.525 285.075 238.11 285.39 238.5C286.605 238.11 288.12 237.375 289.05 236.67L288.045 235.98H290.445L289.485 236.67C290.325 237.225 291.345 237.99 291.885 238.44L293.775 237.435C293.22 237.06 292.32 236.49 291.495 235.98H292.83Z" fill="white"/>
<rect x="85" y="234" width="84" height="37" rx="8" fill="#4027AF"/>
<path d="M101.5 247.34C97.66 247.34 94.54 250.46 94.54 254.3C94.54 258.14 97.66 261.26 101.5 261.26C105.34 261.26 108.46 258.14 108.46 254.3C108.46 250.46 105.34 247.34 101.5 247.34ZM101.5 249.59C104.095 249.59 106.21 251.705 106.21 254.3C106.21 256.895 104.095 259.01 101.5 259.01C98.905 259.01 96.79 256.895 96.79 254.3C96.79 251.705 98.905 249.59 101.5 249.59ZM116.5 247.34C112.66 247.34 109.54 250.46 109.54 254.3C109.54 258.14 112.66 261.26 116.5 261.26C120.34 261.26 123.46 258.14 123.46 254.3C123.46 250.46 120.34 247.34 116.5 247.34ZM116.5 249.59C119.095 249.59 121.21 251.705 121.21 254.3C121.21 256.895 119.095 259.01 116.5 259.01C113.905 259.01 111.79 256.895 111.79 254.3C111.79 251.705 113.905 249.59 116.5 249.59ZM127.18 251.18V250.295H135.715V251.18H132.505V250.55H130.3V251.18H127.18ZM138.13 257.855V255.98H132.43C132.46 255.755 132.49 255.53 132.49 255.305H136.375V253.565H132.505V252.92H136.735V251.81H137.98V248.405H132.61V247.205H130.36V248.405H125.02V251.81H126.4V252.92H130.3V253.565H126.64V255.305H130.285C130.27 255.53 130.255 255.755 130.195 255.98H124.96V257.855H129.1C128.26 258.59 126.865 259.22 124.6 259.67C125.08 260.12 125.71 260.96 125.95 261.425C128.8 260.705 130.48 259.655 131.425 258.41C132.61 260.105 134.305 261.05 137.08 261.47C137.35 260.885 137.905 260.015 138.355 259.565C136.15 259.37 134.59 258.815 133.54 257.855H138.13ZM148.09 249.425H145.54V250.64H148.09V250.985H144.835V252.305H153.49V250.985H150.265V250.64H152.905V249.425H150.265V249.065H153.235V247.79H150.265V247.175H148.09V247.79H145.195V249.065H148.09V249.425ZM142.315 253.55C142.525 253.28 142.735 253.01 142.945 252.725C143.065 252.965 143.17 253.22 143.275 253.49L142.315 253.55ZM145.48 258.605C145.39 257.9 145.09 256.82 144.745 255.995L143.305 256.445V255.275L143.86 255.215C143.935 255.485 143.995 255.74 144.025 255.95L145.645 255.245C145.495 254.36 144.955 253.04 144.415 252.02L143.065 252.56C143.74 251.66 144.415 250.685 145 249.8L143.245 249.005C142.915 249.695 142.48 250.49 142.015 251.27C141.925 251.15 141.835 251.03 141.73 250.91C142.255 250.07 142.87 248.9 143.425 247.835L141.55 247.19C141.325 247.94 140.965 248.87 140.59 249.68L140.32 249.425L139.27 250.91C139.84 251.51 140.5 252.29 140.905 252.965C140.725 253.205 140.56 253.445 140.395 253.67L139.27 253.73L139.42 255.59L141.445 255.425V256.415L139.765 256.13C139.675 257.375 139.48 258.725 139.09 259.595C139.51 259.76 140.29 260.105 140.65 260.345C141.01 259.475 141.295 258.17 141.445 256.865V261.425H143.305V256.625C143.59 257.435 143.83 258.455 143.89 259.13L145.48 258.605ZM147.685 257.24H150.775V257.69H147.685V257.24ZM147.685 255.59H150.775V256.04H147.685V255.59ZM147.685 253.955H150.775V254.39H147.685V253.955ZM152.83 258.98V252.665H145.735V258.98H146.755C145.99 259.43 144.97 259.895 144.07 260.15C144.49 260.525 145.075 261.11 145.39 261.5C146.605 261.11 148.12 260.375 149.05 259.67L148.045 258.98H150.445L149.485 259.67C150.325 260.225 151.345 260.99 151.885 261.44L153.775 260.435C153.22 260.06 152.32 259.49 151.495 258.98H152.83Z" fill="white"/>
<path opacity="0.2" d="M162.5 248L286.5 93" stroke="#4027AF" stroke-width="2"/>
<path opacity="0.2" d="M81.5 187.5L215 124.5" stroke="#4027AF" stroke-width="2"/>
<path opacity="0.2" d="M71.5 91L217.5 79.5" stroke="#4027AF" stroke-width="2"/>
<path opacity="0.1" d="M154.719 234.577C168.41 234.577 179.509 228.077 179.509 220.058C179.509 212.039 168.41 205.539 154.719 205.539C141.027 205.539 129.928 212.039 129.928 220.058C129.928 228.077 141.027 234.577 154.719 234.577Z" fill="#4027AF"/>
<path d="M136.997 124.227C136.997 124.227 137.7 134.724 139.072 136.238C140.445 137.751 145.111 138.782 145.111 138.782L148.712 144.695C148.712 144.695 145.418 125.905 144.715 125.455C144.013 125.005 136.997 124.227 136.997 124.227Z" fill="#F7E5D0"/>
<path d="M143.903 112.534C143.03 112.126 142.037 112.056 141.115 112.335C140.193 112.614 139.407 113.224 138.908 114.047C137.579 116.241 136.207 123.744 136.086 125.016C136.086 125.016 137.942 127.583 140.719 127.21L143.903 112.534Z" fill="#EDEDED"/>
<path d="M154.509 217.408C156.466 217.945 158.555 217.693 160.328 216.706C161.722 216.706 169.331 213.492 170.363 216.223C171.274 218.615 167.98 220.83 166.224 221.258C162.381 222.19 159.537 224.099 157.989 224.428C156.891 224.669 155.354 224.823 154.443 223.924C153.411 222.838 153.477 218.834 154.509 217.408Z" fill="#414345"/>
<path d="M158.033 223.759C159.581 223.441 162.424 221.565 166.267 220.589C167.738 220.238 170.274 218.626 170.538 216.706C170.878 218.9 167.903 220.863 166.267 221.258C162.424 222.19 159.581 224.099 158.033 224.428C156.935 224.669 155.398 224.823 154.487 223.924C154.243 223.664 154.069 223.347 153.982 223.002C154.551 223.434 155.214 223.728 155.918 223.859C156.621 223.991 157.345 223.956 158.033 223.759Z" fill="#606265"/>
<path d="M142.706 213.711C144.663 214.254 146.755 214.002 148.525 213.009C149.931 213.009 157.528 209.806 158.571 212.537C159.471 214.928 156.178 217.144 154.421 217.572C150.578 218.493 147.735 220.413 146.198 220.731C145.045 220.972 143.552 221.137 142.641 220.237C141.543 219.151 141.641 215.148 142.706 213.711Z" fill="#414345"/>
<path d="M146.197 220.029C147.735 219.7 150.589 217.835 154.421 216.859C155.892 216.508 158.439 214.895 158.692 212.965C159.032 215.159 156.057 217.122 154.421 217.528C150.578 218.449 147.735 220.369 146.197 220.687C145.045 220.928 143.552 221.093 142.64 220.193C142.403 219.929 142.23 219.614 142.135 219.272C142.707 219.704 143.372 219.998 144.077 220.129C144.782 220.261 145.508 220.226 146.197 220.029Z" fill="#606265"/>
<path d="M141.872 192.343C142.199 189.523 142.787 186.74 143.629 184.029C143.629 184.029 143.102 176.844 142.838 170.032C142.542 162.354 139.863 155.509 141.971 149.345L165.488 154.577C165.488 154.577 164.39 185.444 164.028 189.173C163.846 192.078 163.479 194.969 162.93 197.828C161.832 203.806 160.657 217.188 160.657 217.188C158.132 218.658 154.432 217.451 154.432 217.451C154.432 217.451 154.432 200.701 154.575 196.391C154.773 191.126 154.937 191.531 154.937 191.531L154.147 178.423L153.631 171.908C153.631 171.908 152.972 176.69 152.533 180.957C152.16 184.687 151.259 188.054 150.249 194.998C149.382 201.009 148.482 213.283 148.482 213.283C145.957 214.742 142.553 213.733 142.553 213.733C142.553 213.733 141.192 197.564 141.872 192.343Z" fill="#5C38FA"/>
<path d="M145.177 112.687C146.988 112.774 148.339 113.246 148.569 112.687C148.765 111.749 148.904 110.8 148.986 109.846C148.778 109.319 148.591 108.749 148.591 108.749C146.307 107.356 145.594 104.888 145.297 102.014C144.792 97.1108 147.493 92.8219 152.346 92.3063C156.968 91.8237 160.361 95.0705 161.272 99.513C161.755 101.707 162.732 105.864 161.415 109.473C160.679 111.502 159.735 113.103 158.791 113.411C157.875 113.394 156.961 113.313 156.057 113.169C156.057 113.169 155.815 114.529 155.651 115.363C155.486 116.197 155.541 116.69 157.287 117.765C159.032 118.84 154.652 121.056 151.797 120.826C148.942 120.595 145.715 118.884 144.836 117.041C143.837 115.056 143.925 112.621 145.177 112.687Z" fill="#F7E5D0"/>
<path d="M147.8 112.961C147.295 114.212 148.58 115.747 151.994 116.811C155.409 117.875 155.705 116.504 155.705 116.504C157.962 117.523 160.161 118.666 162.293 119.926C164.335 121.352 165.246 125.499 165.521 132.486C165.839 140.57 165.872 152.57 165.598 154.643C165.598 154.643 161.777 158.46 156.814 158.055C151.852 157.649 143.639 153.316 141.674 149.97C141.674 142.884 142.563 141.733 141.411 137.641C138.776 128.285 137.392 124.478 138.677 118.248C139.775 113.126 141.202 112.489 143.233 112.533C144.762 112.594 146.287 112.737 147.8 112.961Z" fill="#F4F4F4"/>
<path d="M161.349 160.873C160.748 160.546 158.9 132.705 158.9 132.705L164.159 129.919L166.213 131.641L165.488 156.936V157.638V158.537C165.488 158.537 166.584 159.888 162.565 162.433C162.565 162.433 161.949 162.433 161.949 161.817C161.949 161.817 161.334 160.586 161.334 159.354C161.334 158.122 161.949 161.201 161.349 160.873Z" fill="#F7E5D0"/>
<path d="M164.5 154.171C165.107 154.269 165.567 156.525 165.644 157.506C165.637 158.591 165.57 159.168 165.57 160.113C165.57 161.058 166.95 161.307 167.737 161.744C168.123 162.066 168.422 162.488 168.603 162.964C168.349 163.06 166.669 163.155 166.669 163.155C166.669 163.155 168.334 167.6 168.514 168.08C168.598 168.223 168.638 168.388 168.629 168.553C168.62 168.717 168.562 168.872 168.464 168.996C168.366 169.121 168.232 169.209 168.081 169.248C167.93 169.287 167.769 169.276 167.62 169.215L167.735 169.523C168.257 170.353 167.04 171.188 166.559 170.399L166.179 169.699C166.18 170.372 165.298 170.871 164.906 170.176L164.818 169.942C164.762 169.842 164.721 169.734 164.699 169.622L164.602 169.363C164.511 169.423 164.409 169.462 164.301 169.478C164.194 169.494 164.083 169.485 163.977 169.454C163.871 169.422 163.771 169.368 163.684 169.295C163.598 169.221 163.526 169.13 163.473 169.027C162.396 166.96 160.392 164.074 161.336 161.488C160.949 160.083 160.797 158.766 160.869 157.325C160.987 155.947 163.158 154.252 164.5 154.171Z" fill="#F7E5D0"/>
<path d="M160.723 118.183C163.435 118.183 165.115 119.565 165.829 123.744C166.542 127.923 166.927 131.345 166.927 131.345C165.677 132.731 163.945 133.586 162.085 133.737C158.791 134.099 157.847 132.431 157.847 132.431C157.847 132.431 157.495 128.099 157.32 125.148C157.144 122.197 157.364 118.248 160.723 118.183Z" fill="#EDEDED"/>
<path d="M161.096 98.8878C161.096 98.8878 165.334 92.449 156.144 91.1328C149.557 90.1894 145.253 94.4235 144.759 99.0633C144.287 103.451 147.01 108.047 148.975 109.868C150.905 110.358 152.948 110.111 154.706 109.177C154.814 107.977 154.854 106.772 154.827 105.568C154.827 105.568 151.61 98.7672 161.096 98.8878Z" fill="#414345"/>
<path opacity="0.2" d="M163 33.5L218.5 47.5" stroke="#4027AF" stroke-width="2"/>
<path opacity="0.2" d="M292 221L307.5 154" stroke="#4027AF" stroke-width="2"/>
</svg>
