<svg width="144" height="107" viewBox="0 0 144 107" fill="none" xmlns="http://www.w3.org/2000/svg">
<path d="M87.9533 19.0614C78.8871 3.81065 63.6257 -3.84266 53.8656 1.91687L45.3814 6.78259L48.6329 12.1846C49.1562 11.353 49.7761 10.5861 50.4798 9.89977C58.7289 7.2295 70.0672 13.6035 77.0627 25.3405C84.0582 37.0774 84.2037 50.0824 77.9077 56.0319C77.0797 56.2922 76.226 56.4626 75.3614 56.5402L78.5345 61.8026L86.6885 57.138C96.4486 51.3561 97.0139 34.3066 87.9533 19.0614Z" fill="#DEE1E4"/>
<path d="M79.7938 23.7325C70.7276 8.48179 55.4662 0.828482 45.706 6.58801C35.9459 12.3475 35.3807 29.4194 44.4468 44.6702C53.513 59.9209 68.7744 67.5742 78.5346 61.8091C88.2947 56.044 88.8599 38.9721 79.7938 23.7325ZM77.9078 56.0384C69.6531 58.7087 58.3203 52.3347 51.3248 40.5921C44.3293 28.8496 44.1838 15.8558 50.4798 9.90631C58.7289 7.23603 70.0672 13.6101 77.0627 25.347C84.0582 37.0839 84.2037 50.0834 77.9078 56.0328V56.0384Z" fill="#BCBEC1"/>
<path d="M51.3359 40.5863C44.3572 28.855 44.1949 15.85 50.4909 9.90049C54.0893 8.73294 58.2811 9.29157 62.4392 11.2636C57.3353 8.83908 52.1922 8.52066 48.146 10.9172C39.8353 15.8388 39.3093 30.2851 46.9707 43.1728C54.6322 56.0605 67.5879 62.5239 75.8985 57.6023C76.6294 57.1571 77.3071 56.6305 77.9188 56.0326C69.653 58.7029 58.3034 52.3288 51.3359 40.5863Z" fill="#9D9FA2"/>
<path opacity="0.1" d="M77.0792 25.3409C70.1005 13.6096 58.7454 7.22997 50.4963 9.90024C44.2004 15.8497 44.3403 28.8491 51.3414 40.5861C58.3425 52.323 69.6696 58.7026 77.9243 56.0323C84.2035 50.0829 84.0412 37.0834 77.0792 25.3409Z" fill="#A1BAD6"/>
<path d="M88.4344 44.2397L106.729 54.77V59.4737L88.4344 48.9435V44.2397Z" fill="#BCBEC1"/>
<path d="M92.5141 41.8865L110.809 52.4168L106.729 54.7686L88.4344 44.2383L92.5141 41.8865Z" fill="#DEE1E4"/>
<path d="M102.851 52.11C104.58 49.1939 107.496 47.7303 109.359 48.8364L142.591 68.1204L136.261 78.6228L103.091 59.3778C101.228 58.2717 101.144 55.0149 102.851 52.11Z" fill="#8D77ED"/>
<path d="M142.77 75.349C141.035 78.2595 138.125 79.7287 136.261 78.6226C134.398 77.5165 134.286 74.2653 136.021 71.3604C137.756 68.4555 140.666 66.9806 142.529 68.0867C144.393 69.1928 144.499 72.4385 142.77 75.349Z" fill="#4C37AA"/>
<path opacity="0.4" d="M15.0019 106.005L0 97.4389L22.4548 84.6084L37.4568 93.1741L15.0019 106.005Z" fill="#DEE1E4"/>
<path d="M15.3137 88.7327L2.88814 81.5687L15.3137 74.4087L27.7393 81.5687L15.3137 88.7327Z" fill="#DEE1E4"/>
<path d="M15.3137 103.054L2.88814 95.8939V81.5698L15.3137 88.7338V103.054Z" fill="#9D9FA2"/>
<path d="M27.7398 95.8939L15.3143 103.054V88.7338L27.7398 81.5698V95.8939Z" fill="#BCBEC1"/>
<path d="M32.0037 91.3855C33.0815 91.6797 34.2321 91.5361 35.2042 90.9862C35.9762 91.0101 40.1608 89.2211 40.7289 90.7226C41.2289 92.0404 39.4167 93.2584 38.4486 93.49C36.3323 94.0011 34.7681 95.0554 33.92 95.2311C33.2879 95.3668 32.4678 95.4547 31.9637 94.9555C31.3677 94.3725 31.4197 92.1722 32.0037 91.3855Z" fill="#414345"/>
<path d="M33.9282 94.8796C34.7763 94.6999 36.3285 93.6496 38.4568 93.1385C39.2569 92.9428 40.6651 92.0563 40.8051 90.998C40.9931 92.196 39.3569 93.2862 38.4568 93.5019C36.3405 94.013 34.7763 95.0672 33.9282 95.243C33.2961 95.3787 32.476 95.4666 31.972 94.9674C31.8405 94.8245 31.7458 94.6518 31.6959 94.4643C32.01 94.7021 32.3753 94.8636 32.7628 94.9357C33.1504 95.0078 33.5494 94.9886 33.9282 94.8796Z" fill="#414345"/>
<path d="M24.4668 87.3755C25.5447 87.667 26.6943 87.5236 27.6672 86.9762C28.4393 87.0001 32.6198 85.2111 33.1919 86.7126C33.688 88.0304 31.8757 89.2444 30.9076 89.48C28.8033 90.0031 27.2311 91.0573 26.403 91.229C25.7709 91.3648 24.9508 91.4487 24.4468 90.9535C23.8227 90.3625 23.8747 88.1582 24.4668 87.3755Z" fill="#414345"/>
<path d="M26.403 90.8698C27.2512 90.6901 28.8033 89.6399 30.9276 89.1287C31.7277 88.933 33.1399 88.0465 33.2799 86.9883C33.4679 88.1863 31.8317 89.2725 30.9276 89.4921C28.8033 90.0032 27.2311 91.0575 26.403 91.2292C25.771 91.365 24.9509 91.4488 24.4468 90.9537C24.3171 90.8095 24.2226 90.6373 24.1708 90.4505C24.4844 90.6891 24.8496 90.8512 25.2372 90.924C25.6247 90.9968 26.0239 90.9782 26.403 90.8698Z" fill="#414345"/>
<path d="M12.7177 82.1761C15.9821 83.6058 19.0585 83.8334 21.5748 82.4836L24.1751 80.9861C24.3312 84.3365 24.4792 87.5552 24.4792 87.5552C24.4792 87.5552 26.4794 89.0606 28.0236 87.7189C28.0236 87.7189 28.3477 83.0148 28.6757 78.3905L31.4041 76.8211C31.3408 77.0679 31.3059 77.3211 31.3 77.5758C31.32 78.4544 31.9321 91.5165 31.9321 91.5165C31.9321 91.5165 33.9324 92.7145 35.4926 91.3648C35.4926 91.3648 36.5367 76.2301 36.7767 73.8141C37.0488 71.0947 34.0244 69.7529 32.1081 70.4518C31.6641 70.6115 30.568 71.0188 29.1838 71.5339C29.2438 70.7792 29.2918 70.1882 29.3278 69.8528C29.5958 67.1333 26.5714 65.7955 24.6592 66.4904C22.915 67.1253 11.1415 71.5339 11.1415 71.5339C11.2111 72.6627 11.3446 73.7866 11.5415 74.9003L6.88895 74.501C6.62491 78.8737 9.45727 80.7425 12.7177 82.1761ZM20.8387 74.6527L23.9511 72.8597C23.8998 73.079 23.8663 73.302 23.8511 73.5266L20.8387 74.6527Z" fill="#8D77ED"/>
<path d="M4.35274 61.2798C4.35274 61.2798 4.75279 67.0541 5.49688 67.8847C6.24098 68.7154 8.8213 69.2664 8.8213 69.2664L10.8016 72.517C10.8016 72.517 8.99733 62.1903 8.60528 61.9427C8.21323 61.6951 4.35274 61.2798 4.35274 61.2798Z" fill="#F7E5D0"/>
<path d="M8.15712 54.8502C7.6754 54.6272 7.12818 54.5894 6.6203 54.7442C6.11241 54.8989 5.67959 55.2353 5.40477 55.6888C4.67667 56.8868 3.92058 61.0159 3.85257 61.7227C3.85257 61.7227 4.8727 63.1284 6.40489 62.8928L8.15712 54.8502Z" fill="#EDEDED"/>
<path d="M8.85277 54.9228C9.85289 54.9707 10.597 55.2263 10.721 54.9228C10.8278 54.4073 10.9039 53.8859 10.949 53.3614C10.833 53.0699 10.733 52.7584 10.733 52.7584C9.47684 51.9877 9.08079 50.634 8.91677 49.0566C8.63674 46.3611 10.0929 44.001 12.7973 43.7175C15.3336 43.454 17.1978 45.235 17.7019 47.6829C17.9699 48.8809 18.502 51.1731 17.7819 53.1577C17.3818 54.2679 16.8578 55.1544 16.3377 55.3221C15.8342 55.3066 15.332 55.2626 14.8335 55.1903C14.8335 55.1903 14.6975 55.9411 14.6055 56.4203C14.5135 56.8995 14.5495 57.155 15.5056 57.7461C16.4617 58.3371 14.0574 59.547 12.4852 59.4272C10.913 59.3074 9.1408 58.361 8.65674 57.3467C8.11667 56.2246 8.16468 54.8908 8.85277 54.9228Z" fill="#F7E5D0"/>
<path d="M34.1844 72.5872C34.1864 72.7292 34.1504 72.8693 34.0801 72.9928C34.0097 73.1164 33.9077 73.2189 33.7844 73.29L26.1594 77.6826C26.0378 77.7527 25.8998 77.7896 25.7594 77.7896C25.6189 77.7896 25.4809 77.7527 25.3593 77.6826L14.658 71.5249C14.5347 71.4539 14.4326 71.3513 14.3623 71.2278C14.292 71.1042 14.2559 70.9642 14.2579 70.8221V70.7622L34.1844 72.5872Z" fill="#E5E5E5"/>
<path d="M33.7797 73.2907L26.1547 77.6833C26.0332 77.7537 25.8952 77.7909 25.7547 77.7912V72.5999H34.1838C34.1832 72.7403 34.1456 72.8781 34.0746 72.9994C34.0037 73.1207 33.902 73.2212 33.7797 73.2907Z" fill="#E5E5E5"/>
<path d="M26.0354 77.2835C25.9481 77.3325 25.8496 77.3582 25.7494 77.3582C25.6492 77.3582 25.5507 77.3325 25.4633 77.2835L14.3579 70.8942C14.2179 70.8103 14.2179 70.6786 14.3579 70.5987L22.539 65.8706L34.1844 72.5874L26.0354 77.2835Z" fill="#F4F4F4"/>
<path d="M18.9226 72.587L18.9787 72.619L22.5351 74.6675L24.4914 73.5414L24.5434 73.5095L20.9309 71.429L18.9226 72.587Z" fill="#BFBFBF"/>
<path d="M18.978 72.6198L22.5345 74.6683L24.4907 73.5422L20.9303 71.4937L18.978 72.6198Z" fill="#E5E5E5"/>
<path d="M31.1642 72.9181L31.6802 73.2136C31.7057 73.2262 31.7338 73.2328 31.7622 73.2328C31.7907 73.2328 31.8188 73.2262 31.8443 73.2136L32.3323 72.93C32.3803 72.9021 32.3843 72.8622 32.3323 72.8382L31.8203 72.5427C31.7948 72.53 31.7667 72.5234 31.7382 72.5234C31.7098 72.5234 31.6817 72.53 31.6562 72.5427L31.1642 72.8262C31.1282 72.8582 31.1242 72.8941 31.1642 72.9181Z" fill="#414345"/>
<path d="M30.44 72.5001L30.9521 72.7956C30.9775 72.8083 31.0056 72.8148 31.0341 72.8148C31.0625 72.8148 31.0906 72.8083 31.1161 72.7956L31.6041 72.5121C31.6562 72.4841 31.6602 72.4442 31.6041 72.4202L31.0921 72.1247C31.0666 72.1121 31.0385 72.1055 31.0101 72.1055C30.9816 72.1055 30.9535 72.1121 30.9281 72.1247L30.44 72.4042C30.404 72.4322 30.404 72.4602 30.44 72.5001Z" fill="#414345"/>
<path d="M29.7115 72.0808L30.2275 72.3764C30.2523 72.389 30.2797 72.3955 30.3076 72.3955C30.3354 72.3955 30.3628 72.389 30.3876 72.3764L30.8796 72.0968C30.9276 72.0689 30.9316 72.0249 30.8796 72.001L30.3636 71.7055C30.3388 71.6929 30.3114 71.6863 30.2835 71.6863C30.2557 71.6863 30.2283 71.6929 30.2035 71.7055L29.7115 71.985C29.6755 72.013 29.6715 72.0609 29.7115 72.0808Z" fill="#414345"/>
<path d="M28.9878 71.661L29.4999 71.9565C29.5253 71.9692 29.5534 71.9758 29.5819 71.9758C29.6103 71.9758 29.6384 71.9692 29.6639 71.9565L30.1519 71.677C30.2 71.649 30.208 71.6051 30.1519 71.5811L29.6519 71.2617C29.6264 71.249 29.5983 71.2424 29.5699 71.2424C29.5414 71.2424 29.5133 71.249 29.4879 71.2617L28.9998 71.5412C28.9478 71.5931 28.9438 71.6371 28.9878 71.661Z" fill="#414345"/>
<path d="M28.2597 71.2616L28.7717 71.5571C28.7972 71.5698 28.8253 71.5764 28.8537 71.5764C28.8822 71.5764 28.9103 71.5698 28.9357 71.5571L29.4278 71.2736C29.4758 71.2456 29.4798 71.2017 29.4278 71.1777L28.9237 70.8623C28.8983 70.8496 28.8702 70.843 28.8417 70.843C28.8133 70.843 28.7852 70.8496 28.7597 70.8623L28.2717 71.1458C28.2237 71.1777 28.2157 71.2177 28.2597 71.2616Z" fill="#414345"/>
<path d="M27.5316 70.822L28.0477 71.1175C28.0724 71.1301 28.0999 71.1367 28.1277 71.1367C28.1555 71.1367 28.1829 71.1301 28.2077 71.1175L28.6998 70.8339C28.7478 70.806 28.7518 70.7621 28.6998 70.7381L28.1877 70.4426C28.1622 70.4299 28.1341 70.4233 28.1057 70.4233C28.0772 70.4233 28.0491 70.4299 28.0237 70.4426L27.5316 70.7261C27.4956 70.7581 27.4916 70.798 27.5316 70.822Z" fill="#414345"/>
<path d="M26.8031 70.4034L27.3152 70.7029C27.3407 70.7156 27.3687 70.7221 27.3972 70.7221C27.4257 70.7221 27.4537 70.7156 27.4792 70.7029L27.9673 70.4194C28.0153 70.3914 28.0233 70.3515 27.9673 70.3275L27.4552 70.028C27.4297 70.0154 27.4017 70.0088 27.3732 70.0088C27.3447 70.0088 27.3167 70.0154 27.2912 70.028L26.8031 70.3116C26.7711 70.3395 26.7631 70.3794 26.8031 70.4034Z" fill="#414345"/>
<path d="M26.079 69.9881L26.5911 70.2836C26.6166 70.2963 26.6446 70.3029 26.6731 70.3029C26.7016 70.3029 26.7296 70.2963 26.7551 70.2836L27.2472 70.0001C27.2952 69.9721 27.2992 69.9322 27.2472 69.9082L26.7311 69.6127C26.7056 69.6001 26.6776 69.5935 26.6491 69.5935C26.6206 69.5935 26.5926 69.6001 26.5671 69.6127L26.079 69.8963C26.043 69.9202 26.039 69.9642 26.079 69.9881Z" fill="#414345"/>
<path d="M25.3507 69.5681L25.8668 69.8636C25.8923 69.8763 25.9203 69.8829 25.9488 69.8829C25.9773 69.8829 26.0053 69.8763 26.0308 69.8636L26.5189 69.5801C26.5669 69.5522 26.5709 69.5122 26.5189 69.4883L26.0028 69.1848C25.9773 69.1721 25.9493 69.1655 25.9208 69.1655C25.8923 69.1655 25.8643 69.1721 25.8388 69.1848L25.3467 69.4683C25.3147 69.5003 25.3107 69.5442 25.3507 69.5681Z" fill="#414345"/>
<path d="M24.627 69.1497L25.1391 69.4453C25.1646 69.4579 25.1926 69.4645 25.2211 69.4645C25.2495 69.4645 25.2776 69.4579 25.3031 69.4453L25.7912 69.1657C25.8392 69.1378 25.8472 69.0938 25.7912 69.0699L25.2791 68.7744C25.2536 68.7617 25.2255 68.7551 25.1971 68.7551C25.1686 68.7551 25.1405 68.7617 25.1151 68.7744L24.627 69.0539C24.591 69.0819 24.583 69.1258 24.627 69.1497Z" fill="#414345"/>
<path d="M23.8992 68.7305L24.4112 69.026C24.4367 69.0387 24.4648 69.0453 24.4932 69.0453C24.5217 69.0453 24.5498 69.0387 24.5753 69.026L25.0673 68.7465C25.1153 68.7185 25.1193 68.6746 25.0673 68.6506L24.5512 68.3551C24.5265 68.3425 24.4991 68.3359 24.4712 68.3359C24.4434 68.3359 24.416 68.3425 24.3912 68.3551L23.8992 68.6347C23.8632 68.6626 23.8592 68.7066 23.8992 68.7305Z" fill="#414345"/>
<path d="M23.1751 68.3102L23.6872 68.6058C23.7129 68.6176 23.7409 68.6237 23.7692 68.6237C23.7975 68.6237 23.8255 68.6176 23.8512 68.6058L24.3393 68.3222C24.3873 68.2943 24.3953 68.2503 24.3393 68.2264L23.8272 67.9309C23.8017 67.9182 23.7736 67.9116 23.7452 67.9116C23.7167 67.9116 23.6886 67.9182 23.6632 67.9309L23.1711 68.2144C23.1351 68.2463 23.1311 68.2863 23.1751 68.3102Z" fill="#414345"/>
<path d="M22.4467 67.8908L22.9588 68.1863C22.9842 68.199 23.0123 68.2056 23.0408 68.2056C23.0692 68.2056 23.0973 68.199 23.1228 68.1863L23.6149 67.9028C23.6629 67.8748 23.6669 67.8309 23.6149 67.8069L23.1028 67.5114C23.0773 67.4988 23.0492 67.4922 23.0208 67.4922C22.9923 67.4922 22.9642 67.4988 22.9388 67.5114L22.4507 67.795C22.4027 67.8269 22.4027 67.8668 22.4467 67.8908Z" fill="#414345"/>
<path d="M21.3701 67.269L22.2342 67.7641C22.2587 67.7778 22.2862 67.7849 22.3142 67.7849C22.3422 67.7849 22.3698 67.7778 22.3942 67.7641L22.8863 67.4806C22.9343 67.4527 22.9383 67.4127 22.8863 67.3888L22.0222 66.8896C21.9967 66.8769 21.9686 66.8704 21.9402 66.8704C21.9117 66.8704 21.8836 66.8769 21.8582 66.8896L21.3701 67.1691C21.3341 67.2051 21.3261 67.269 21.3701 67.269Z" fill="#414345"/>
<path d="M29.3836 72.7032L29.8957 72.9987C29.9212 73.0114 29.9492 73.018 29.9777 73.018C30.0062 73.018 30.0342 73.0114 30.0597 72.9987L30.5518 72.7152C30.5998 72.6873 30.6038 72.6473 30.5518 72.6234L30.0357 72.3278C30.0102 72.3152 29.9822 72.3086 29.9537 72.3086C29.9252 72.3086 29.8972 72.3152 29.8717 72.3278L29.3836 72.6114C29.3476 72.6353 29.3436 72.6793 29.3836 72.7032Z" fill="#414345"/>
<path d="M28.6553 72.2838L29.1674 72.5793C29.1929 72.5919 29.2209 72.5985 29.2494 72.5985C29.2779 72.5985 29.3059 72.5919 29.3314 72.5793L29.8235 72.2958C29.8715 72.2678 29.8755 72.2279 29.8235 72.2039L29.3074 71.9084C29.2819 71.8957 29.2539 71.8892 29.2254 71.8892C29.1969 71.8892 29.1689 71.8957 29.1434 71.9084L28.6553 72.1919C28.6193 72.2159 28.6153 72.2598 28.6553 72.2838Z" fill="#414345"/>
<path d="M27.9272 71.8644L28.4392 72.1598C28.4647 72.1725 28.4928 72.1791 28.5212 72.1791C28.5497 72.1791 28.5778 72.1725 28.6032 72.1598L29.0953 71.8763C29.1433 71.8484 29.1473 71.8084 29.0953 71.7845L28.5792 71.489C28.5538 71.4763 28.5257 71.4697 28.4972 71.4697C28.4688 71.4697 28.4407 71.4763 28.4152 71.489L27.9272 71.7725C27.8912 71.7965 27.8872 71.8404 27.9272 71.8644Z" fill="#414345"/>
<path d="M27.2031 71.4449L27.7152 71.7404C27.7407 71.753 27.7687 71.7596 27.7972 71.7596C27.8257 71.7596 27.8537 71.753 27.8792 71.7404L28.3713 71.4568C28.4193 71.4289 28.4233 71.389 28.3713 71.365L27.8552 71.0695C27.8304 71.0569 27.803 71.0503 27.7752 71.0503C27.7474 71.0503 27.72 71.0569 27.6952 71.0695L27.2031 71.353C27.1631 71.377 27.1591 71.4209 27.2031 71.4449Z" fill="#414345"/>
<path d="M26.479 71.0268L26.9911 71.3223C27.0163 71.3359 27.0445 71.3431 27.0731 71.3431C27.1017 71.3431 27.1299 71.3359 27.1551 71.3223L27.6432 71.0388C27.6912 71.0108 27.6992 70.9709 27.6432 70.9469L27.1311 70.6474C27.1056 70.6348 27.0776 70.6282 27.0491 70.6282C27.0206 70.6282 26.9926 70.6348 26.9671 70.6474L26.479 70.931C26.443 70.9629 26.435 71.0028 26.479 71.0268Z" fill="#414345"/>
<path d="M25.7509 70.6062L26.2629 70.9017C26.2884 70.9144 26.3165 70.921 26.3449 70.921C26.3734 70.921 26.4015 70.9144 26.4269 70.9017L26.915 70.6182C26.963 70.5903 26.971 70.5503 26.915 70.5224L26.4029 70.2229C26.3775 70.2102 26.3494 70.2036 26.3209 70.2036C26.2925 70.2036 26.2644 70.2102 26.2389 70.2229L25.7509 70.5064C25.7149 70.5423 25.7069 70.5823 25.7509 70.6062Z" fill="#414345"/>
<path d="M25.0227 70.1877L25.5347 70.4832C25.5602 70.4958 25.5883 70.5024 25.6168 70.5024C25.6452 70.5024 25.6733 70.4958 25.6988 70.4832L26.1868 70.1997C26.2348 70.1717 26.2428 70.1278 26.1868 70.1038L25.6748 69.8083C25.6493 69.7956 25.6212 69.7891 25.5928 69.7891C25.5643 69.7891 25.5362 69.7956 25.5107 69.8083L25.0227 70.0918C24.9867 70.1238 24.9787 70.1637 25.0227 70.1877Z" fill="#414345"/>
<path d="M24.295 69.7683L24.803 70.0638C24.8285 70.0764 24.8566 70.083 24.885 70.083C24.9135 70.083 24.9416 70.0764 24.9671 70.0638L25.4551 69.7802C25.5071 69.7523 25.5111 69.7083 25.4551 69.6844L24.943 69.3889C24.9176 69.3762 24.8895 69.3696 24.861 69.3696C24.8326 69.3696 24.8045 69.3762 24.779 69.3889L24.291 69.6724C24.259 69.7044 24.251 69.7443 24.295 69.7683Z" fill="#414345"/>
<path d="M23.5666 69.3488L24.0786 69.6443C24.1041 69.657 24.1322 69.6636 24.1606 69.6636C24.1891 69.6636 24.2172 69.657 24.2427 69.6443L24.7347 69.3608C24.7827 69.3328 24.7867 69.2889 24.7347 69.265L24.2227 68.9695C24.1972 68.9568 24.1691 68.9502 24.1406 68.9502C24.1122 68.9502 24.0841 68.9568 24.0586 68.9695L23.5706 69.253C23.5306 69.2849 23.5226 69.3249 23.5666 69.3488Z" fill="#414345"/>
<path d="M22.8386 68.9294L23.3507 69.2249C23.3762 69.2375 23.4042 69.2441 23.4327 69.2441C23.4612 69.2441 23.4892 69.2375 23.5147 69.2249L24.0068 68.9414C24.0548 68.9134 24.0588 68.8695 24.0068 68.8455L23.4907 68.55C23.4652 68.5373 23.4372 68.5308 23.4087 68.5308C23.3802 68.5308 23.3522 68.5373 23.3267 68.55L22.8386 68.8335C22.8026 68.8655 22.8026 68.9054 22.8386 68.9294Z" fill="#414345"/>
<path d="M22.1106 68.5108L22.6227 68.8063C22.6481 68.819 22.6762 68.8256 22.7047 68.8256C22.7331 68.8256 22.7612 68.819 22.7867 68.8063L23.2787 68.5268C23.3268 68.4988 23.3308 68.4549 23.2787 68.431L22.7627 68.1355C22.7372 68.1228 22.7091 68.1162 22.6807 68.1162C22.6522 68.1162 22.6241 68.1228 22.5987 68.1355L22.1106 68.419C22.0746 68.4669 22.0706 68.4869 22.1106 68.5108Z" fill="#414345"/>
<path d="M21.3831 68.0914L21.8951 68.3869C21.9206 68.3995 21.9487 68.4061 21.9771 68.4061C22.0056 68.4061 22.0337 68.3995 22.0591 68.3869L22.5512 68.1074C22.5992 68.0794 22.6032 68.0355 22.5512 68.0115L22.0351 67.716C22.0097 67.7034 21.9816 67.6968 21.9531 67.6968C21.9247 67.6968 21.8966 67.7034 21.8711 67.716L21.3831 67.9956C21.3471 68.0235 21.3431 68.0674 21.3831 68.0914Z" fill="#414345"/>
<path d="M30.1115 73.1222L30.9756 73.6173C31.001 73.63 31.0291 73.6366 31.0576 73.6366C31.086 73.6366 31.1141 73.63 31.1396 73.6173L31.6277 73.3338C31.6757 73.3059 31.6797 73.2619 31.6277 73.238L30.7635 72.7428C30.7378 72.731 30.7098 72.7249 30.6815 72.7249C30.6532 72.7249 30.6252 72.731 30.5995 72.7428L30.1115 73.0263C30.0755 73.0543 30.0675 73.0982 30.1115 73.1222Z" fill="#414345"/>
<path d="M21.3225 67.2921L21.8345 67.5876C21.8786 67.6115 21.8786 67.6515 21.8345 67.6754L21.3185 67.9749C21.2949 67.9869 21.2689 67.9931 21.2425 67.9931C21.2161 67.9931 21.19 67.9869 21.1665 67.9749L21.1265 67.951C21.1043 67.9391 21.0796 67.9329 21.0544 67.9329C21.0293 67.9329 21.0046 67.9391 20.9824 67.951L20.4384 68.2664C20.4148 68.2784 20.3888 68.2846 20.3624 68.2846C20.3359 68.2846 20.3099 68.2784 20.2864 68.2664L19.9583 68.0788C19.9497 68.075 19.9425 68.0689 19.9373 68.0611C19.9322 68.0533 19.9295 68.0442 19.9295 68.0348C19.9295 68.0255 19.9322 68.0164 19.9373 68.0086C19.9425 68.0008 19.9497 67.9946 19.9583 67.9909L20.4704 67.6954L20.5784 67.6355L20.6544 67.5916L20.7304 67.5477L21.1705 67.2921C21.194 67.2801 21.2201 67.2739 21.2465 67.2739C21.2729 67.2739 21.2989 67.2801 21.3225 67.2921Z" fill="#414345"/>
<path d="M28.3472 74.5409L28.8593 74.8364C28.8848 74.849 28.9129 74.8556 28.9413 74.8556C28.9698 74.8556 28.9978 74.849 29.0233 74.8364L29.5114 74.5528C29.5594 74.5249 29.5674 74.485 29.5114 74.461L28.9993 74.1655C28.9738 74.1528 28.9458 74.1462 28.9173 74.1462C28.8889 74.1462 28.8608 74.1528 28.8353 74.1655L28.3472 74.445C28.3072 74.457 28.3032 74.5169 28.3472 74.5409Z" fill="#414345"/>
<path d="M27.6039 74.1205L28.1199 74.416C28.1454 74.4287 28.1735 74.4353 28.2019 74.4353C28.2304 74.4353 28.2585 74.4287 28.2839 74.416L28.772 74.1325C28.82 74.1046 28.824 74.0606 28.772 74.0367L28.2599 73.7412C28.2345 73.7285 28.2064 73.7219 28.1779 73.7219C28.1495 73.7219 28.1214 73.7285 28.0959 73.7412L27.6039 74.0247C27.6039 74.0566 27.5799 74.0966 27.6039 74.1205Z" fill="#414345"/>
<path d="M26.8949 73.7054L27.411 74.0009C27.4358 74.0135 27.4632 74.0201 27.491 74.0201C27.5188 74.0201 27.5462 74.0135 27.571 74.0009L28.0631 73.7174C28.1111 73.6894 28.1151 73.6495 28.0631 73.6255L27.551 73.33C27.5255 73.3174 27.4975 73.3108 27.469 73.3108C27.4405 73.3108 27.4125 73.3174 27.387 73.33L26.8949 73.6136C26.8589 73.6575 26.8549 73.6814 26.8949 73.7054Z" fill="#414345"/>
<path d="M20.7262 70.1479L21.2382 70.4434C21.2637 70.4561 21.2918 70.4626 21.3202 70.4626C21.3487 70.4626 21.3768 70.4561 21.4022 70.4434L21.8943 70.1599C21.9423 70.1319 21.9463 70.088 21.8943 70.064L21.3822 69.7685C21.3568 69.7559 21.3287 69.7493 21.3002 69.7493C21.2718 69.7493 21.2437 69.7559 21.2182 69.7685L20.7302 70.052C20.6901 70.084 20.6861 70.1239 20.7262 70.1479Z" fill="#414345"/>
<path d="M20.0025 69.732L20.5146 70.0275C20.54 70.0402 20.5681 70.0468 20.5966 70.0468C20.625 70.0468 20.6531 70.0402 20.6786 70.0275L21.1666 69.744C21.2186 69.7161 21.2226 69.6761 21.1666 69.6522L20.6546 69.3567C20.6291 69.344 20.601 69.3374 20.5726 69.3374C20.5441 69.3374 20.516 69.344 20.4906 69.3567L20.0025 69.6402C19.9665 69.6641 19.9585 69.7081 20.0025 69.732Z" fill="#414345"/>
<path d="M19.2779 69.3126L19.79 69.6081C19.8155 69.6208 19.8436 69.6273 19.872 69.6273C19.9005 69.6273 19.9286 69.6208 19.954 69.6081L20.4421 69.3286C20.4901 69.3006 20.4981 69.2567 20.4421 69.2327L19.93 68.9372C19.9046 68.9246 19.8765 68.918 19.848 68.918C19.8196 68.918 19.7915 68.9246 19.766 68.9372L19.2779 69.2168C19.2419 69.2647 19.2339 69.2886 19.2779 69.3126Z" fill="#414345"/>
<path d="M18.5542 68.8936L19.0663 69.1931C19.0918 69.2057 19.1198 69.2123 19.1483 69.2123C19.1768 69.2123 19.2048 69.2057 19.2303 69.1931L19.7184 68.9095C19.7664 68.8816 19.7744 68.8417 19.7184 68.8177L19.2023 68.5102C19.1768 68.4975 19.1487 68.491 19.1203 68.491C19.0918 68.491 19.0638 68.4975 19.0383 68.5102L18.5502 68.7937C18.5142 68.8297 18.5102 68.8656 18.5542 68.8936Z" fill="#414345"/>
<path d="M26.0028 73.1781L26.7029 73.5774C26.7277 73.59 26.7551 73.5966 26.7829 73.5966C26.8107 73.5966 26.8381 73.59 26.8629 73.5774L27.355 73.2979C27.403 73.2699 27.407 73.226 27.355 73.202L26.6549 72.8027C26.6294 72.79 26.6013 72.7834 26.5729 72.7834C26.5444 72.7834 26.5163 72.79 26.4909 72.8027L26.0028 73.0862C25.9468 73.1142 25.9428 73.1541 26.0028 73.1781Z" fill="#414345"/>
<path d="M21.4505 70.5668L22.1506 70.9661C22.1761 70.9788 22.2041 70.9853 22.2326 70.9853C22.2611 70.9853 22.2891 70.9788 22.3146 70.9661L22.8027 70.6826C22.8507 70.6546 22.8587 70.6147 22.8027 70.5907L22.1026 70.1914C22.0771 70.1787 22.049 70.1721 22.0206 70.1721C21.9921 70.1721 21.964 70.1787 21.9386 70.1914L21.4505 70.4749C21.4145 70.4989 21.4105 70.5428 21.4505 70.5668Z" fill="#414345"/>
<path d="M22.3624 71.0902L25.7749 73.0589C25.8003 73.0715 25.8284 73.0781 25.8569 73.0781C25.8853 73.0781 25.9134 73.0715 25.9389 73.0589L26.4269 72.7754C26.4749 72.7474 26.4789 72.7075 26.4269 72.6835L23.0145 70.7148C22.989 70.7022 22.961 70.6956 22.9325 70.6956C22.904 70.6956 22.876 70.7022 22.8505 70.7148L22.3624 70.9983C22.3264 71.0263 22.3184 71.0662 22.3624 71.0902Z" fill="#414345"/>
<path d="M28.4831 72.9952L28.9952 73.2907C29.0207 73.3034 29.0487 73.31 29.0772 73.31C29.1056 73.31 29.1337 73.3034 29.1592 73.2907L29.6473 73.0112C29.6953 72.9832 29.7033 72.9393 29.6473 72.9153L29.1352 72.6198C29.1097 72.6072 29.0816 72.6006 29.0532 72.6006C29.0247 72.6006 28.9967 72.6072 28.9712 72.6198L28.4791 72.8994C28.4431 72.9273 28.4391 72.9712 28.4831 72.9952Z" fill="#414345"/>
<path d="M27.7557 72.5762L28.2678 72.8717C28.2932 72.8844 28.3213 72.891 28.3498 72.891C28.3782 72.891 28.4063 72.8844 28.4318 72.8717L28.9239 72.5922C28.9719 72.5642 28.9759 72.5203 28.9239 72.4963L28.4038 72.1928C28.3783 72.1802 28.3502 72.1736 28.3218 72.1736C28.2933 72.1736 28.2652 72.1802 28.2398 72.1928L27.7517 72.4764C27.7197 72.5083 27.7157 72.5522 27.7557 72.5762Z" fill="#414345"/>
<path d="M27.0312 72.1557L27.5433 72.4512C27.5687 72.4639 27.5968 72.4704 27.6253 72.4704C27.6537 72.4704 27.6818 72.4639 27.7073 72.4512L28.1953 72.1677C28.2434 72.1397 28.2514 72.0958 28.1953 72.0718L27.6833 71.7763C27.6578 71.7637 27.6297 71.7571 27.6013 71.7571C27.5728 71.7571 27.5447 71.7637 27.5193 71.7763L27.0432 72.0599C26.9952 72.0918 26.9872 72.1317 27.0312 72.1557Z" fill="#414345"/>
<path d="M26.303 71.7417L26.8191 72.0373C26.8439 72.0499 26.8713 72.0564 26.8991 72.0564C26.9269 72.0564 26.9543 72.0499 26.9791 72.0373L27.4712 71.7537C27.5192 71.7258 27.5232 71.6858 27.4712 71.6619L26.9551 71.3664C26.9303 71.3538 26.9029 71.3472 26.8751 71.3472C26.8473 71.3472 26.8199 71.3538 26.7951 71.3664L26.303 71.6499C26.267 71.6619 26.263 71.7178 26.303 71.7417Z" fill="#414345"/>
<path d="M25.5793 71.3224L26.0914 71.6179C26.1168 71.6305 26.1449 71.6371 26.1734 71.6371C26.2018 71.6371 26.2299 71.6305 26.2554 71.6179L26.7434 71.3383C26.7954 71.3104 26.7995 71.2665 26.7434 71.2425L26.2314 70.947C26.2059 70.9343 26.1778 70.9277 26.1494 70.9277C26.1209 70.9277 26.0928 70.9343 26.0674 70.947L25.5793 71.2265C25.5433 71.2625 25.5353 71.2984 25.5793 71.3224Z" fill="#414345"/>
<path d="M24.8509 70.9029L25.367 71.1984C25.3925 71.2111 25.4205 71.2177 25.449 71.2177C25.4775 71.2177 25.5055 71.2111 25.531 71.1984L26.0191 70.9189C26.0671 70.8909 26.0711 70.847 26.0191 70.8231L25.507 70.5276C25.4815 70.5149 25.4535 70.5083 25.425 70.5083C25.3965 70.5083 25.3685 70.5149 25.343 70.5276L24.8509 70.8111C24.8029 70.835 24.8029 70.863 24.8509 70.9029Z" fill="#414345"/>
<path d="M24.1265 70.4837L24.6386 70.7792C24.664 70.7918 24.6921 70.7984 24.7206 70.7984C24.749 70.7984 24.7771 70.7918 24.8026 70.7792L25.2947 70.4956C25.3427 70.4677 25.3467 70.4277 25.2947 70.3998L24.8026 70.1003C24.7771 70.0876 24.749 70.0811 24.7206 70.0811C24.6921 70.0811 24.664 70.0876 24.6386 70.1003L24.1505 70.3838C24.0905 70.4198 24.0865 70.4637 24.1265 70.4837Z" fill="#414345"/>
<path d="M23.403 70.0638L23.9151 70.3593C23.9405 70.372 23.9686 70.3786 23.9971 70.3786C24.0255 70.3786 24.0536 70.372 24.0791 70.3593L24.5671 70.0758C24.6151 70.0478 24.6231 70.0079 24.5671 69.9839L24.0551 69.6884C24.0296 69.6758 24.0015 69.6692 23.9731 69.6692C23.9446 69.6692 23.9165 69.6758 23.8911 69.6884L23.403 69.972C23.363 69.9999 23.359 70.0638 23.403 70.0638Z" fill="#414345"/>
<path d="M22.6746 69.6639L23.1867 69.9594C23.2121 69.9721 23.2402 69.9787 23.2687 69.9787C23.2971 69.9787 23.3252 69.9721 23.3507 69.9594L23.8427 69.6799C23.8907 69.6519 23.8947 69.608 23.8427 69.584L23.3387 69.2646C23.3139 69.2519 23.2865 69.2454 23.2587 69.2454C23.2308 69.2454 23.2034 69.2519 23.1787 69.2646L22.6866 69.5441C22.6386 69.58 22.6346 69.624 22.6746 69.6639Z" fill="#414345"/>
<path d="M21.9509 69.2293L22.463 69.5248C22.4885 69.5375 22.5166 69.5441 22.545 69.5441C22.5735 69.5441 22.6015 69.5375 22.627 69.5248L23.1151 69.2453C23.1631 69.2173 23.1711 69.1734 23.1151 69.1495L22.615 68.8659C22.5895 68.8533 22.5615 68.8467 22.533 68.8467C22.5046 68.8467 22.4765 68.8533 22.451 68.8659L21.9629 69.1495C21.9149 69.1654 21.9069 69.2054 21.9509 69.2293Z" fill="#414345"/>
<path d="M21.2225 68.8097L21.7386 69.1053C21.7633 69.1179 21.7908 69.1245 21.8186 69.1245C21.8464 69.1245 21.8738 69.1179 21.8986 69.1053L22.3906 68.8217C22.4387 68.7938 22.4427 68.7538 22.3906 68.7259L21.8786 68.4304C21.8531 68.4177 21.825 68.4111 21.7966 68.4111C21.7681 68.4111 21.74 68.4177 21.7146 68.4304L21.2225 68.7139C21.2025 68.7459 21.2025 68.7858 21.2225 68.8097Z" fill="#414345"/>
<path d="M20.4981 68.3941L21.0102 68.6896C21.0357 68.7023 21.0638 68.7089 21.0922 68.7089C21.1207 68.7089 21.1488 68.7023 21.1742 68.6896L21.6623 68.4061C21.7143 68.3782 21.7183 68.3382 21.6623 68.3143L21.1502 68.0188C21.1248 68.0061 21.0967 67.9995 21.0682 67.9995C21.0398 67.9995 21.0117 68.0061 20.9862 68.0188L20.4981 68.3023C20.4621 68.3263 20.4541 68.3702 20.4981 68.3941Z" fill="#414345"/>
<path d="M29.2031 73.4149L30.2632 74.0259C30.2887 74.0385 30.3167 74.0451 30.3452 74.0451C30.3737 74.0451 30.4017 74.0385 30.4272 74.0259L30.9193 73.7423C30.9673 73.7144 30.9713 73.6745 30.9193 73.6505L29.8551 73.0395C29.8297 73.0269 29.8016 73.0203 29.7731 73.0203C29.7447 73.0203 29.7166 73.0269 29.6911 73.0395L29.2031 73.323C29.171 73.347 29.167 73.3909 29.2031 73.4149Z" fill="#414345"/>
<path d="M28.1395 73.6057L28.6516 73.9052C28.677 73.9179 28.7051 73.9245 28.7336 73.9245C28.762 73.9245 28.7901 73.9179 28.8156 73.9052L29.3037 73.6217C29.3517 73.5937 29.3597 73.5538 29.3037 73.5298L28.8036 73.2263C28.7784 73.2127 28.7502 73.2056 28.7216 73.2056C28.6929 73.2056 28.6647 73.2127 28.6396 73.2263L28.1515 73.5099C28.0995 73.5418 28.0955 73.5817 28.1395 73.6057Z" fill="#414345"/>
<path d="M27.4115 73.1902L27.9235 73.4857C27.949 73.4984 27.9771 73.505 28.0056 73.505C28.034 73.505 28.0621 73.4984 28.0876 73.4857L28.5796 73.2022C28.6276 73.1742 28.6316 73.1343 28.5796 73.1104L28.0636 72.8149C28.0388 72.8022 28.0114 72.7957 27.9836 72.7957C27.9557 72.7957 27.9283 72.8022 27.9035 72.8149L27.4115 73.0984C27.3755 73.1223 27.3715 73.1663 27.4115 73.1902Z" fill="#414345"/>
<path d="M26.6869 72.7706L27.1989 73.0661C27.2244 73.0788 27.2525 73.0854 27.2809 73.0854C27.3094 73.0854 27.3375 73.0788 27.363 73.0661L27.851 72.7866C27.899 72.7586 27.907 72.7147 27.851 72.6907L27.339 72.3952C27.3135 72.3826 27.2854 72.376 27.2569 72.376C27.2285 72.376 27.2004 72.3826 27.1749 72.3952L26.6869 72.6748C26.6509 72.7027 26.6429 72.7466 26.6869 72.7706Z" fill="#414345"/>
<path d="M25.9589 72.3525L26.475 72.648C26.5004 72.6606 26.5285 72.6672 26.557 72.6672C26.5854 72.6672 26.6135 72.6606 26.639 72.648L27.127 72.3645C27.1751 72.3365 27.1791 72.2926 27.127 72.2686L26.615 71.9731C26.5895 71.9605 26.5614 71.9539 26.533 71.9539C26.5045 71.9539 26.4764 71.9605 26.451 71.9731L25.9589 72.2566C25.9229 72.2886 25.9189 72.3285 25.9589 72.3525Z" fill="#414345"/>
<path d="M25.2349 71.9373L25.7469 72.2328C25.7724 72.2454 25.8005 72.252 25.8289 72.252C25.8574 72.252 25.8855 72.2454 25.911 72.2328L26.403 71.9413C26.451 71.9133 26.455 71.8734 26.403 71.8494L25.891 71.5539C25.8655 71.5413 25.8374 71.5347 25.8089 71.5347C25.7805 71.5347 25.7524 71.5413 25.7269 71.5539L25.2389 71.8374C25.2029 71.8694 25.2029 71.9133 25.2349 71.9373Z" fill="#414345"/>
<path d="M24.5106 71.5172L25.0226 71.8127C25.0481 71.8253 25.0762 71.8319 25.1046 71.8319C25.1331 71.8319 25.1612 71.8253 25.1867 71.8127L25.6747 71.5331C25.7227 71.5052 25.7307 71.4613 25.6747 71.4373L25.1627 71.1418C25.1372 71.1292 25.1091 71.1226 25.0806 71.1226C25.0522 71.1226 25.0241 71.1292 24.9986 71.1418L24.5106 71.4213C24.4706 71.4493 24.4666 71.4932 24.5106 71.5172Z" fill="#414345"/>
<path d="M23.7828 71.0977L24.2949 71.3932C24.3203 71.4059 24.3484 71.4124 24.3769 71.4124C24.4053 71.4124 24.4334 71.4059 24.4589 71.3932L24.9509 71.1137C24.9989 71.0857 25.0029 71.0418 24.9509 71.0178L24.4349 70.7223C24.4101 70.7097 24.3827 70.7031 24.3549 70.7031C24.327 70.7031 24.2996 70.7097 24.2749 70.7223L23.7828 71.0058C23.7468 71.0298 23.7428 71.0737 23.7828 71.0977Z" fill="#414345"/>
<path d="M23.0589 70.6794L23.571 70.9749C23.5965 70.9875 23.6245 70.9941 23.653 70.9941C23.6815 70.9941 23.7095 70.9875 23.735 70.9749L24.2231 70.6914C24.2711 70.6634 24.2791 70.6235 24.2231 70.5955L23.711 70.3C23.6855 70.2873 23.6575 70.2808 23.629 70.2808C23.6005 70.2808 23.5725 70.2873 23.547 70.3L23.0589 70.5835C23.0229 70.6155 23.0149 70.6554 23.0589 70.6794Z" fill="#414345"/>
<path d="M22.3303 70.2638L22.8464 70.5593C22.8719 70.5719 22.8999 70.5785 22.9284 70.5785C22.9569 70.5785 22.9849 70.5719 23.0104 70.5593L23.4985 70.2757C23.5465 70.2478 23.5505 70.2079 23.4985 70.1839L22.9864 69.8884C22.9609 69.8757 22.9329 69.8691 22.9044 69.8691C22.8759 69.8691 22.8479 69.8757 22.8224 69.8884L22.3303 70.1719C22.2943 70.1959 22.2903 70.2398 22.3303 70.2638Z" fill="#414345"/>
<path d="M21.6027 69.8441L22.1147 70.1396C22.1402 70.1522 22.1683 70.1588 22.1967 70.1588C22.2252 70.1588 22.2533 70.1522 22.2788 70.1396L22.7708 69.8601C22.8188 69.8321 22.8228 69.7882 22.7708 69.7642L22.2548 69.4687C22.2293 69.4561 22.2012 69.4495 22.1727 69.4495C22.1443 69.4495 22.1162 69.4561 22.0907 69.4687L21.6027 69.7482C21.5707 69.7762 21.5667 69.8201 21.6027 69.8441Z" fill="#414345"/>
<path d="M20.8826 69.424L21.3947 69.7195C21.4202 69.7322 21.4482 69.7388 21.4767 69.7388C21.5052 69.7388 21.5332 69.7322 21.5587 69.7195L22.0468 69.436C22.0948 69.408 22.1028 69.3641 22.0468 69.3402L21.5347 69.0446C21.5092 69.032 21.4812 69.0254 21.4527 69.0254C21.4242 69.0254 21.3962 69.032 21.3707 69.0446L20.8826 69.3282C20.8426 69.3601 20.8386 69.4 20.8826 69.424Z" fill="#414345"/>
<path d="M19.258 68.491L20.6702 69.2897C20.695 69.3023 20.7224 69.3089 20.7502 69.3089C20.778 69.3089 20.8054 69.3023 20.8302 69.2897L21.3223 69.0062C21.3703 68.9782 21.3743 68.9383 21.3223 68.9143L19.9101 68.1157C19.8846 68.103 19.8565 68.0964 19.8281 68.0964C19.7996 68.0964 19.7715 68.103 19.7461 68.1157L19.258 68.3952C19.222 68.4232 19.202 68.4671 19.258 68.491Z" fill="#414345"/>
<path d="M28.8636 74.0256L29.5637 74.4249C29.5894 74.4367 29.6174 74.4428 29.6457 74.4428C29.674 74.4428 29.702 74.4367 29.7277 74.4249L30.2157 74.1414C30.2638 74.1134 30.2718 74.0695 30.2157 74.0455L29.5157 73.6462C29.4902 73.6335 29.4621 73.627 29.4336 73.627C29.4052 73.627 29.3771 73.6335 29.3516 73.6462L28.8636 73.9297C28.8276 73.9617 28.8036 74.0016 28.8636 74.0256Z" fill="#414345"/>
<path d="M34.1843 72.5887L22.5388 65.8719V56.7312L22.6268 56.5236L22.7228 56.4757C22.8445 56.4056 22.9824 56.3687 23.1229 56.3687C23.2633 56.3687 23.4013 56.4056 23.5229 56.4757L34.1803 62.6214C34.3024 62.6917 34.4037 62.7931 34.474 62.9151C34.5442 63.0371 34.5809 63.1755 34.5803 63.3162V71.8939C34.5123 72.3371 34.4323 72.4609 34.1843 72.5887Z" fill="#E5E5E5"/>
<path d="M33.1162 63.7275L22.5388 57.0347V56.7312L22.6268 56.5236L22.7228 56.4757C22.8445 56.4056 22.9824 56.3687 23.1229 56.3687C23.2633 56.3687 23.4013 56.4056 23.5229 56.4757L34.1803 62.6214C34.3096 62.6969 34.416 62.8059 34.4883 62.9369L33.1162 63.7275Z" fill="#E5E5E5"/>
<path d="M22.8028 56.5228L34.0042 62.968C34.0633 63.003 34.1124 63.0526 34.1468 63.1121C34.1811 63.1715 34.1995 63.2388 34.2002 63.3074V72.5879L22.5387 65.8711V56.6865C22.5379 56.6551 22.5453 56.6241 22.5602 56.5964C22.5751 56.5688 22.597 56.5456 22.6237 56.529C22.6504 56.5124 22.681 56.5032 22.7124 56.5021C22.7438 56.501 22.775 56.5081 22.8028 56.5228Z" fill="#DCEEFF"/>
<path d="M22.8028 56.5228L34.0042 62.968C34.0633 63.003 34.1124 63.0526 34.1468 63.1121C34.1811 63.1715 34.1995 63.2388 34.2002 63.3074V72.5879L22.5387 65.8711V56.6865C22.5379 56.6551 22.5453 56.6241 22.5602 56.5964C22.5751 56.5688 22.597 56.5456 22.6237 56.529C22.6504 56.5124 22.681 56.5032 22.7124 56.5021C22.7438 56.501 22.775 56.5081 22.8028 56.5228Z" fill="#F4F4F4"/>
<path d="M34.1843 72.5835V72.2561L22.5388 65.5393V65.8707L34.1843 72.5835Z" fill="#DBDBDB"/>
<path d="M22.983 57.0867V65.3169L33.8124 71.5425V63.3282L22.983 57.0867Z" fill="white"/>
<path d="M22.839 65.3839V57.002L22.983 57.0858V65.316L22.839 65.3839Z" fill="#F8FBFD"/>
<path d="M22.8391 65.3845L33.8125 71.706V71.5422L22.9831 65.3167L22.8391 65.3845Z" fill="#F8FBFD"/>
<path d="M10.297 55.0694C10.021 55.7563 10.7251 56.6029 12.6013 57.1899C14.4776 57.7769 14.6496 57.0222 14.6496 57.0222C15.9002 57.5813 17.1195 58.2079 18.302 58.899C19.4262 59.6977 19.9262 61.9619 20.0783 65.8035C20.2543 70.252 20.2703 76.849 20.1223 77.9871C20.1223 77.9871 18.014 80.0796 15.3217 79.86C12.6293 79.6403 8.08874 77.2523 6.9886 75.4194C7.0166 71.5219 7.47666 70.887 6.84458 68.6307C5.3964 63.4913 4.6323 61.3829 5.33639 57.9686C5.91646 55.1533 6.72857 54.8019 7.84471 54.8298C8.66582 54.8663 9.48441 54.9463 10.297 55.0694Z" fill="#F4F4F4"/>
<path d="M24.5109 70.5717C22.3027 71.1268 21.7826 69.7371 21.4906 68.5751C20.8025 65.7917 20.4024 63.2759 19.8824 61.6786C19.2663 59.8097 18.6182 59.5102 17.7061 59.1468C16.6379 58.7195 15.7058 59.622 16.0779 61.998C16.4979 64.8133 17.05 66.79 18.1021 70.1165C18.3782 70.987 18.9942 72.5324 19.9184 73.2792C21.0625 74.1977 22.7787 74.1577 25.3831 73.5148C26.4912 73.2393 27.7073 72.5764 29.7836 71.598C30.3477 71.3384 30.7877 71.1627 31.8679 70.6596C32.9525 70.1723 33.9034 69.4312 34.6402 68.4992C35.2083 67.6805 35.2843 67.3012 35.1683 67.1095C35.0523 66.9178 34.7682 66.9258 34.4642 67.2692C34.024 67.8525 33.4819 68.3517 32.864 68.7428C32.864 68.7428 33.5601 68.02 33.9401 67.5448C34.2889 67.1366 34.5797 66.6824 34.8043 66.195C35.0043 65.7198 34.5922 65.0689 34.2802 65.3964C33.9681 65.7238 33.8161 66.0872 33.2441 66.7701C32.9431 67.1348 32.5993 67.4619 32.2199 67.7444C32.5753 67.2664 32.891 66.7602 33.164 66.231C33.4092 65.8158 33.5287 65.3387 33.5081 64.8573C33.5081 64.6097 33.14 64.3142 32.808 64.7854C32.476 65.2566 32.3159 65.8756 31.6078 66.5984C31.1038 67.1215 30.6757 67.421 30.6597 67.2772C30.6437 67.1335 30.9678 66.842 31.1478 66.235C31.3278 65.628 31.1478 64.9811 30.8077 64.9092C30.4677 64.8373 30.5357 64.8573 30.2677 65.4283C29.9996 65.9994 29.6036 66.4306 29.2715 67.2692C29.1032 67.8568 28.7911 68.3934 28.3634 68.8306C27.8194 69.4057 26.6152 70.0646 24.5109 70.5717Z" fill="#F7E5D0"/>
<path d="M16.8901 58.7758C18.3663 58.5562 19.4105 59.2191 20.0625 61.4554C20.7146 63.6916 21.1707 65.5245 21.1707 65.5245C20.5853 66.367 19.6994 66.9542 18.6944 67.1658C16.9301 67.5891 16.2941 66.7465 16.2941 66.7465C16.2941 66.7465 15.802 64.4064 15.494 62.8131C15.1859 61.2197 15.0619 59.0434 16.8901 58.7758Z" fill="#EDEDED"/>
<path d="M17.6025 47.3347C17.6025 47.3347 19.9348 43.7927 14.8782 43.0739C11.2297 42.5507 8.87744 44.8908 8.61741 47.4306C8.35738 49.8545 9.85357 52.3743 10.9337 53.3726C11.4618 53.5603 12.5939 53.6681 14.0861 52.9933C14.1467 52.3295 14.1694 51.6629 14.1541 50.9966C14.1541 50.9966 12.4019 47.2708 17.6025 47.3347Z" fill="#414345"/>
<path d="M27.7394 92.1509V81.5127L19.2783 86.4444L22.5387 93.1732L27.7394 92.1509Z" fill="#BCBEC1"/>
<path d="M22.1948 82.1284L25.4433 80.2476L27.7396 81.5694L24.3711 83.4782L22.1948 82.1284Z" fill="#D6D8E5"/>
</svg>
