<svg width="48" height="72" viewBox="0 0 48 72" fill="none" xmlns="http://www.w3.org/2000/svg">
<path d="M25.5591 4.34659C25.5591 4.34659 18.6834 6.2642 3.1382 0L0.148743 1.78977V1.91761C15.5444 8.05397 22.5697 6.2642 22.5697 6.2642C22.5697 6.2642 29.4454 14.9574 44.9906 24.1619C44.9906 39.8863 44.9906 52.6704 44.9906 52.6704C44.9906 52.6704 44.3927 61.2357 36.6201 66.7329L36.7696 66.605C47.2327 61.2357 47.98 50.7528 47.98 50.7528C47.98 50.7528 47.98 37.9687 47.98 22.2443C32.5843 13.0398 25.5591 4.34659 25.5591 4.34659Z" fill="#C8BBFF"/>
<path d="M44.9913 52.6703C44.9913 52.6703 44.9913 39.8862 44.9913 24.1618C29.4461 15.0851 22.5704 6.26407 22.5704 6.26407C22.5704 6.26407 15.6946 8.18168 0.149473 1.91748C0.149473 1.91748 0.149473 1.91748 0 1.91748C0 17.6419 0 30.426 0 30.426C0 30.426 1.34525 48.9629 22.4209 71.4629C28.6988 70.9515 33.3324 69.1618 36.6208 66.7328C44.3934 61.1078 44.9913 52.6703 44.9913 52.6703Z" fill="#8D77ED"/>
<path d="M42.5976 51.137C42.5976 51.137 42.5976 39.6313 42.5976 25.6967C28.6966 17.5149 22.5682 9.71657 22.5682 9.71657C22.5682 9.71657 16.4399 11.3785 2.53888 5.88135C2.53888 19.9438 2.53888 31.3217 2.53888 31.3217C2.53888 31.3217 3.73466 47.8131 22.5682 67.8841C41.4018 66.4779 42.5976 51.137 42.5976 51.137Z" fill="white"/>
<path d="M22.5705 64.56C22.5705 53.1821 22.5705 13.4236 22.5705 13.4236C22.5705 13.4236 17.1895 14.9577 4.93268 9.97192C4.93268 22.2446 4.93268 32.3441 4.93268 32.3441C4.93268 32.3441 5.97899 46.9179 22.5705 64.56Z" fill="#8D77ED"/>
</svg>
